<ttFont>
    <TTGlyph name="A" xMin="-45" yMin="-10" xMax="542" yMax="649">
      <contour>
        <pt x="287" y="-10" on="1"/>
        <pt x="285" y="-3" on="1"/>
        <pt x="293" y="33" on="1"/>
        <pt x="348" y="37" on="0"/>
        <pt x="385" y="57" on="0"/>
        <pt x="385" y="83" on="1"/>
        <pt x="385" y="96" on="0"/>
        <pt x="363" y="234" on="1"/>
        <pt x="339" y="235" on="0"/>
        <pt x="220" y="235" on="0"/>
        <pt x="156" y="227" on="1"/>
        <pt x="107" y="119" on="1"/>
        <pt x="93" y="90" on="0"/>
        <pt x="93" y="73" on="1"/>
        <pt x="93" y="37" on="0"/>
        <pt x="146" y="37" on="1"/>
        <pt x="202" y="37" on="1"/>
        <pt x="202" y="34" on="1"/>
        <pt x="192" y="-7" on="1"/>
        <pt x="124" y="0" on="0"/>
        <pt x="60" y="0" on="1"/>
        <pt x="-45" y="-3" on="1"/>
        <pt x="-32" y="42" on="1"/>
        <pt x="-3" y="45" on="0"/>
        <pt x="34" y="78" on="0"/>
        <pt x="54" y="120" on="1"/>
        <pt x="302" y="631" on="1"/>
        <pt x="358" y="648" on="1"/>
        <pt x="366" y="649" on="1"/>
        <pt x="410" y="342" on="0"/>
        <pt x="456" y="111" on="1"/>
        <pt x="463" y="73" on="0"/>
        <pt x="498" y="44" on="0"/>
        <pt x="540" y="39" on="1"/>
        <pt x="542" y="36" on="1"/>
        <pt x="531" y="-3" on="1"/>
        <pt x="462" y="0" on="0"/>
        <pt x="365" y="0" on="0"/>
      </contour>
      <contour>
        <pt x="264" y="271" on="1"/>
        <pt x="311" y="271" on="0"/>
        <pt x="355" y="277" on="1"/>
        <pt x="311" y="544" on="1"/>
        <pt x="304" y="544" on="1"/>
        <pt x="179" y="271" on="1"/>
      </contour>
    </TTGlyph>
    <TTGlyph name="AE" xMin="-33" yMin="-10" xMax="747" yMax="649">
      <contour>
        <pt x="367" y="117" on="1"/>
        <pt x="367" y="153" on="1"/>
        <pt x="365" y="277" on="1"/>
        <pt x="180" y="260" on="1"/>
        <pt x="96" y="120" on="1"/>
        <pt x="75" y="85" on="0"/>
        <pt x="75" y="52" on="0"/>
        <pt x="97" y="39" on="0"/>
        <pt x="124" y="39" on="1"/>
        <pt x="178" y="39" on="1"/>
        <pt x="167" y="-7" on="1"/>
        <pt x="96" y="0" on="0"/>
        <pt x="35" y="0" on="1"/>
        <pt x="-31" y="-4" on="1"/>
        <pt x="-33" y="30" on="1"/>
        <pt x="3" y="65" on="0"/>
        <pt x="38" y="121" on="1"/>
        <pt x="329" y="579" on="1"/>
        <pt x="326" y="595" on="0"/>
        <pt x="307" y="595" on="1"/>
        <pt x="274" y="593" on="1"/>
        <pt x="272" y="597" on="1"/>
        <pt x="285" y="640" on="1"/>
        <pt x="285" y="637" on="0"/>
        <pt x="650" y="637" on="0"/>
        <pt x="726" y="649" on="1"/>
        <pt x="728" y="643" on="1"/>
        <pt x="703" y="570" on="0"/>
        <pt x="686" y="478" on="1"/>
        <pt x="639" y="474" on="1"/>
        <pt x="648" y="512" on="0"/>
        <pt x="648" y="570" on="0"/>
        <pt x="595" y="588" on="0"/>
        <pt x="459" y="588" on="0"/>
        <pt x="433" y="575" on="0"/>
        <pt x="433" y="557" on="1"/>
        <pt x="435" y="327" on="1"/>
        <pt x="551" y="338" on="1"/>
        <pt x="641" y="351" on="1"/>
        <pt x="645" y="346" on="1"/>
        <pt x="626" y="294" on="1"/>
        <pt x="543" y="292" on="1"/>
        <pt x="435" y="283" on="1"/>
        <pt x="441" y="112" on="1"/>
        <pt x="442" y="75" on="0"/>
        <pt x="475" y="44" on="0"/>
        <pt x="560" y="44" on="0"/>
        <pt x="610" y="49" on="0"/>
        <pt x="651" y="61" on="0"/>
        <pt x="662" y="76" on="1"/>
        <pt x="685" y="105" on="0"/>
        <pt x="700" y="166" on="1"/>
        <pt x="744" y="171" on="1"/>
        <pt x="747" y="166" on="1"/>
        <pt x="719" y="83" on="0"/>
        <pt x="700" y="-1" on="1"/>
        <pt x="695" y="-7" on="1"/>
        <pt x="697" y="-5" on="0"/>
        <pt x="451" y="0" on="0"/>
        <pt x="411" y="0" on="1"/>
        <pt x="339" y="0" on="0"/>
        <pt x="261" y="-10" on="1"/>
        <pt x="260" y="-3" on="1"/>
        <pt x="266" y="35" on="1"/>
        <pt x="313" y="38" on="0"/>
        <pt x="367" y="82" on="0"/>
      </contour>
      <contour>
        <pt x="213" y="310" on="1"/>
        <pt x="364" y="321" on="1"/>
        <pt x="363" y="540" on="1"/>
        <pt x="354" y="540" on="1"/>
      </contour>
    </TTGlyph>
    <TTGlyph name="AEacute" xMin="-33" yMin="-10" xMax="747" yMax="890">
      <contour>
        <pt x="367" y="117" on="1"/>
        <pt x="367" y="153" on="1"/>
        <pt x="365" y="277" on="1"/>
        <pt x="180" y="260" on="1"/>
        <pt x="96" y="120" on="1"/>
        <pt x="75" y="85" on="0"/>
        <pt x="75" y="52" on="0"/>
        <pt x="97" y="39" on="0"/>
        <pt x="124" y="39" on="1"/>
        <pt x="178" y="39" on="1"/>
        <pt x="167" y="-7" on="1"/>
        <pt x="96" y="0" on="0"/>
        <pt x="35" y="0" on="1"/>
        <pt x="-31" y="-4" on="1"/>
        <pt x="-33" y="30" on="1"/>
        <pt x="3" y="65" on="0"/>
        <pt x="38" y="121" on="1"/>
        <pt x="329" y="579" on="1"/>
        <pt x="326" y="595" on="0"/>
        <pt x="307" y="595" on="1"/>
        <pt x="274" y="593" on="1"/>
        <pt x="272" y="597" on="1"/>
        <pt x="285" y="640" on="1"/>
        <pt x="285" y="637" on="0"/>
        <pt x="650" y="637" on="0"/>
        <pt x="726" y="649" on="1"/>
        <pt x="728" y="643" on="1"/>
        <pt x="703" y="570" on="0"/>
        <pt x="686" y="478" on="1"/>
        <pt x="639" y="474" on="1"/>
        <pt x="648" y="512" on="0"/>
        <pt x="648" y="570" on="0"/>
        <pt x="595" y="588" on="0"/>
        <pt x="459" y="588" on="0"/>
        <pt x="433" y="575" on="0"/>
        <pt x="433" y="557" on="1"/>
        <pt x="435" y="327" on="1"/>
        <pt x="551" y="338" on="1"/>
        <pt x="641" y="351" on="1"/>
        <pt x="645" y="346" on="1"/>
        <pt x="626" y="294" on="1"/>
        <pt x="543" y="292" on="1"/>
        <pt x="435" y="283" on="1"/>
        <pt x="441" y="112" on="1"/>
        <pt x="442" y="75" on="0"/>
        <pt x="475" y="44" on="0"/>
        <pt x="560" y="44" on="0"/>
        <pt x="610" y="49" on="0"/>
        <pt x="651" y="61" on="0"/>
        <pt x="662" y="76" on="1"/>
        <pt x="685" y="105" on="0"/>
        <pt x="700" y="166" on="1"/>
        <pt x="744" y="171" on="1"/>
        <pt x="747" y="166" on="1"/>
        <pt x="719" y="83" on="0"/>
        <pt x="700" y="-1" on="1"/>
        <pt x="695" y="-7" on="1"/>
        <pt x="697" y="-5" on="0"/>
        <pt x="451" y="0" on="0"/>
        <pt x="411" y="0" on="1"/>
        <pt x="339" y="0" on="0"/>
        <pt x="261" y="-10" on="1"/>
        <pt x="260" y="-3" on="1"/>
        <pt x="266" y="35" on="1"/>
        <pt x="313" y="38" on="0"/>
        <pt x="367" y="82" on="0"/>
      </contour>
      <contour>
        <pt x="213" y="310" on="1"/>
        <pt x="364" y="321" on="1"/>
        <pt x="363" y="540" on="1"/>
        <pt x="354" y="540" on="1"/>
      </contour>
      <contour>
        <pt x="639" y="847" on="1"/>
        <pt x="638" y="836" on="1"/>
        <pt x="554" y="772" on="0"/>
        <pt x="470" y="696" on="1"/>
        <pt x="461" y="698" on="1"/>
        <pt x="441" y="717" on="1"/>
        <pt x="514" y="796" on="0"/>
        <pt x="591" y="890" on="1"/>
        <pt x="601" y="888" on="1"/>
      </contour>
    </TTGlyph>
    <TTGlyph name="Aacute" xMin="-45" yMin="-10" xMax="542" yMax="841">
      <contour>
        <pt x="287" y="-10" on="1"/>
        <pt x="285" y="-3" on="1"/>
        <pt x="293" y="33" on="1"/>
        <pt x="348" y="37" on="0"/>
        <pt x="385" y="57" on="0"/>
        <pt x="385" y="83" on="1"/>
        <pt x="385" y="96" on="0"/>
        <pt x="363" y="234" on="1"/>
        <pt x="339" y="235" on="0"/>
        <pt x="220" y="235" on="0"/>
        <pt x="156" y="227" on="1"/>
        <pt x="107" y="119" on="1"/>
        <pt x="93" y="90" on="0"/>
        <pt x="93" y="73" on="1"/>
        <pt x="93" y="37" on="0"/>
        <pt x="146" y="37" on="1"/>
        <pt x="202" y="37" on="1"/>
        <pt x="202" y="34" on="1"/>
        <pt x="192" y="-7" on="1"/>
        <pt x="124" y="0" on="0"/>
        <pt x="60" y="0" on="1"/>
        <pt x="-45" y="-3" on="1"/>
        <pt x="-32" y="42" on="1"/>
        <pt x="-3" y="45" on="0"/>
        <pt x="34" y="78" on="0"/>
        <pt x="54" y="120" on="1"/>
        <pt x="302" y="631" on="1"/>
        <pt x="358" y="648" on="1"/>
        <pt x="366" y="649" on="1"/>
        <pt x="410" y="342" on="0"/>
        <pt x="456" y="111" on="1"/>
        <pt x="463" y="73" on="0"/>
        <pt x="498" y="44" on="0"/>
        <pt x="540" y="39" on="1"/>
        <pt x="542" y="36" on="1"/>
        <pt x="531" y="-3" on="1"/>
        <pt x="462" y="0" on="0"/>
        <pt x="365" y="0" on="0"/>
      </contour>
      <contour>
        <pt x="264" y="271" on="1"/>
        <pt x="311" y="271" on="0"/>
        <pt x="355" y="277" on="1"/>
        <pt x="311" y="544" on="1"/>
        <pt x="304" y="544" on="1"/>
        <pt x="179" y="271" on="1"/>
      </contour>
      <contour>
        <pt x="512" y="787" on="1"/>
        <pt x="508" y="777" on="1"/>
        <pt x="407" y="743" on="0"/>
        <pt x="302" y="703" on="1"/>
        <pt x="294" y="708" on="1"/>
        <pt x="288" y="732" on="1"/>
        <pt x="487" y="841" on="1"/>
        <pt x="496" y="835" on="1"/>
      </contour>
    </TTGlyph>
    <TTGlyph name="Abreve" xMin="-45" yMin="-10" xMax="542" yMax="818">
      <contour>
        <pt x="287" y="-10" on="1"/>
        <pt x="285" y="-3" on="1"/>
        <pt x="293" y="33" on="1"/>
        <pt x="348" y="37" on="0"/>
        <pt x="385" y="57" on="0"/>
        <pt x="385" y="83" on="1"/>
        <pt x="385" y="96" on="0"/>
        <pt x="363" y="234" on="1"/>
        <pt x="339" y="235" on="0"/>
        <pt x="220" y="235" on="0"/>
        <pt x="156" y="227" on="1"/>
        <pt x="107" y="119" on="1"/>
        <pt x="93" y="90" on="0"/>
        <pt x="93" y="73" on="1"/>
        <pt x="93" y="37" on="0"/>
        <pt x="146" y="37" on="1"/>
        <pt x="202" y="37" on="1"/>
        <pt x="202" y="34" on="1"/>
        <pt x="192" y="-7" on="1"/>
        <pt x="124" y="0" on="0"/>
        <pt x="60" y="0" on="1"/>
        <pt x="-45" y="-3" on="1"/>
        <pt x="-32" y="42" on="1"/>
        <pt x="-3" y="45" on="0"/>
        <pt x="34" y="78" on="0"/>
        <pt x="54" y="120" on="1"/>
        <pt x="302" y="631" on="1"/>
        <pt x="358" y="648" on="1"/>
        <pt x="366" y="649" on="1"/>
        <pt x="410" y="342" on="0"/>
        <pt x="456" y="111" on="1"/>
        <pt x="463" y="73" on="0"/>
        <pt x="498" y="44" on="0"/>
        <pt x="540" y="39" on="1"/>
        <pt x="542" y="36" on="1"/>
        <pt x="531" y="-3" on="1"/>
        <pt x="462" y="0" on="0"/>
        <pt x="365" y="0" on="0"/>
      </contour>
      <contour>
        <pt x="264" y="271" on="1"/>
        <pt x="311" y="271" on="0"/>
        <pt x="355" y="277" on="1"/>
        <pt x="311" y="544" on="1"/>
        <pt x="304" y="544" on="1"/>
        <pt x="179" y="271" on="1"/>
      </contour>
      <contour>
        <pt x="267" y="818" on="1"/>
        <pt x="285" y="768" on="0"/>
        <pt x="422" y="768" on="0"/>
        <pt x="452" y="818" on="1"/>
        <pt x="460" y="818" on="1"/>
        <pt x="475" y="808" on="1"/>
        <pt x="458" y="766" on="0"/>
        <pt x="392" y="710" on="0"/>
        <pt x="300" y="710" on="0"/>
        <pt x="248" y="766" on="0"/>
        <pt x="241" y="808" on="1"/>
        <pt x="259" y="818" on="1"/>
      </contour>
    </TTGlyph>
    <TTGlyph name="Acircumflex" xMin="-45" yMin="-10" xMax="542" yMax="846">
      <contour>
        <pt x="287" y="-10" on="1"/>
        <pt x="285" y="-3" on="1"/>
        <pt x="293" y="33" on="1"/>
        <pt x="348" y="37" on="0"/>
        <pt x="385" y="57" on="0"/>
        <pt x="385" y="83" on="1"/>
        <pt x="385" y="96" on="0"/>
        <pt x="363" y="234" on="1"/>
        <pt x="339" y="235" on="0"/>
        <pt x="220" y="235" on="0"/>
        <pt x="156" y="227" on="1"/>
        <pt x="107" y="119" on="1"/>
        <pt x="93" y="90" on="0"/>
        <pt x="93" y="73" on="1"/>
        <pt x="93" y="37" on="0"/>
        <pt x="146" y="37" on="1"/>
        <pt x="202" y="37" on="1"/>
        <pt x="202" y="34" on="1"/>
        <pt x="192" y="-7" on="1"/>
        <pt x="124" y="0" on="0"/>
        <pt x="60" y="0" on="1"/>
        <pt x="-45" y="-3" on="1"/>
        <pt x="-32" y="42" on="1"/>
        <pt x="-3" y="45" on="0"/>
        <pt x="34" y="78" on="0"/>
        <pt x="54" y="120" on="1"/>
        <pt x="302" y="631" on="1"/>
        <pt x="358" y="648" on="1"/>
        <pt x="366" y="649" on="1"/>
        <pt x="410" y="342" on="0"/>
        <pt x="456" y="111" on="1"/>
        <pt x="463" y="73" on="0"/>
        <pt x="498" y="44" on="0"/>
        <pt x="540" y="39" on="1"/>
        <pt x="542" y="36" on="1"/>
        <pt x="531" y="-3" on="1"/>
        <pt x="462" y="0" on="0"/>
        <pt x="365" y="0" on="0"/>
      </contour>
      <contour>
        <pt x="264" y="271" on="1"/>
        <pt x="311" y="271" on="0"/>
        <pt x="355" y="277" on="1"/>
        <pt x="311" y="544" on="1"/>
        <pt x="304" y="544" on="1"/>
        <pt x="179" y="271" on="1"/>
      </contour>
      <contour>
        <pt x="221" y="713" on="1"/>
        <pt x="210" y="735" on="1"/>
        <pt x="357" y="846" on="1"/>
        <pt x="371" y="846" on="1"/>
        <pt x="491" y="735" on="1"/>
        <pt x="474" y="713" on="1"/>
        <pt x="465" y="712" on="1"/>
        <pt x="355" y="777" on="1"/>
        <pt x="230" y="712" on="1"/>
      </contour>
    </TTGlyph>
    <TTGlyph name="Adieresis" xMin="-45" yMin="-10" xMax="542" yMax="818">
      <contour>
        <pt x="287" y="-10" on="1"/>
        <pt x="285" y="-3" on="1"/>
        <pt x="293" y="33" on="1"/>
        <pt x="348" y="37" on="0"/>
        <pt x="385" y="57" on="0"/>
        <pt x="385" y="83" on="1"/>
        <pt x="385" y="96" on="0"/>
        <pt x="363" y="234" on="1"/>
        <pt x="339" y="235" on="0"/>
        <pt x="220" y="235" on="0"/>
        <pt x="156" y="227" on="1"/>
        <pt x="107" y="119" on="1"/>
        <pt x="93" y="90" on="0"/>
        <pt x="93" y="73" on="1"/>
        <pt x="93" y="37" on="0"/>
        <pt x="146" y="37" on="1"/>
        <pt x="202" y="37" on="1"/>
        <pt x="202" y="34" on="1"/>
        <pt x="192" y="-7" on="1"/>
        <pt x="124" y="0" on="0"/>
        <pt x="60" y="0" on="1"/>
        <pt x="-45" y="-3" on="1"/>
        <pt x="-32" y="42" on="1"/>
        <pt x="-3" y="45" on="0"/>
        <pt x="34" y="78" on="0"/>
        <pt x="54" y="120" on="1"/>
        <pt x="302" y="631" on="1"/>
        <pt x="358" y="648" on="1"/>
        <pt x="366" y="649" on="1"/>
        <pt x="410" y="342" on="0"/>
        <pt x="456" y="111" on="1"/>
        <pt x="463" y="73" on="0"/>
        <pt x="498" y="44" on="0"/>
        <pt x="540" y="39" on="1"/>
        <pt x="542" y="36" on="1"/>
        <pt x="531" y="-3" on="1"/>
        <pt x="462" y="0" on="0"/>
        <pt x="365" y="0" on="0"/>
      </contour>
      <contour>
        <pt x="264" y="271" on="1"/>
        <pt x="311" y="271" on="0"/>
        <pt x="355" y="277" on="1"/>
        <pt x="311" y="544" on="1"/>
        <pt x="304" y="544" on="1"/>
        <pt x="179" y="271" on="1"/>
      </contour>
      <contour>
        <pt x="480" y="758" on="0"/>
        <pt x="447" y="725" on="0"/>
        <pt x="427" y="725" on="1"/>
        <pt x="389" y="725" on="0"/>
        <pt x="389" y="763" on="1"/>
        <pt x="389" y="785" on="0"/>
        <pt x="422" y="818" on="0"/>
        <pt x="461" y="818" on="0"/>
        <pt x="480" y="796" on="0"/>
      </contour>
      <contour>
        <pt x="320" y="758" on="0"/>
        <pt x="287" y="725" on="0"/>
        <pt x="267" y="725" on="1"/>
        <pt x="229" y="725" on="0"/>
        <pt x="229" y="763" on="1"/>
        <pt x="229" y="785" on="0"/>
        <pt x="261" y="818" on="0"/>
        <pt x="301" y="818" on="0"/>
        <pt x="320" y="796" on="0"/>
      </contour>
    </TTGlyph>
    <TTGlyph name="Agrave" xMin="-45" yMin="-10" xMax="542" yMax="841">
      <contour>
        <pt x="287" y="-10" on="1"/>
        <pt x="285" y="-3" on="1"/>
        <pt x="293" y="33" on="1"/>
        <pt x="348" y="37" on="0"/>
        <pt x="385" y="57" on="0"/>
        <pt x="385" y="83" on="1"/>
        <pt x="385" y="96" on="0"/>
        <pt x="363" y="234" on="1"/>
        <pt x="339" y="235" on="0"/>
        <pt x="220" y="235" on="0"/>
        <pt x="156" y="227" on="1"/>
        <pt x="107" y="119" on="1"/>
        <pt x="93" y="90" on="0"/>
        <pt x="93" y="73" on="1"/>
        <pt x="93" y="37" on="0"/>
        <pt x="146" y="37" on="1"/>
        <pt x="202" y="37" on="1"/>
        <pt x="202" y="34" on="1"/>
        <pt x="192" y="-7" on="1"/>
        <pt x="124" y="0" on="0"/>
        <pt x="60" y="0" on="1"/>
        <pt x="-45" y="-3" on="1"/>
        <pt x="-32" y="42" on="1"/>
        <pt x="-3" y="45" on="0"/>
        <pt x="34" y="78" on="0"/>
        <pt x="54" y="120" on="1"/>
        <pt x="302" y="631" on="1"/>
        <pt x="358" y="648" on="1"/>
        <pt x="366" y="649" on="1"/>
        <pt x="410" y="342" on="0"/>
        <pt x="456" y="111" on="1"/>
        <pt x="463" y="73" on="0"/>
        <pt x="498" y="44" on="0"/>
        <pt x="540" y="39" on="1"/>
        <pt x="542" y="36" on="1"/>
        <pt x="531" y="-3" on="1"/>
        <pt x="462" y="0" on="0"/>
        <pt x="365" y="0" on="0"/>
      </contour>
      <contour>
        <pt x="264" y="271" on="1"/>
        <pt x="311" y="271" on="0"/>
        <pt x="355" y="277" on="1"/>
        <pt x="311" y="544" on="1"/>
        <pt x="304" y="544" on="1"/>
        <pt x="179" y="271" on="1"/>
      </contour>
      <contour>
        <pt x="209" y="777" on="1"/>
        <pt x="205" y="787" on="1"/>
        <pt x="221" y="835" on="1"/>
        <pt x="230" y="841" on="1"/>
        <pt x="335" y="781" on="0"/>
        <pt x="429" y="732" on="1"/>
        <pt x="423" y="708" on="1"/>
        <pt x="415" y="703" on="1"/>
      </contour>
    </TTGlyph>
    <TTGlyph name="Amacron" xMin="-45" yMin="-10" xMax="542" yMax="788">
      <contour>
        <pt x="287" y="-10" on="1"/>
        <pt x="285" y="-3" on="1"/>
        <pt x="293" y="33" on="1"/>
        <pt x="348" y="37" on="0"/>
        <pt x="385" y="57" on="0"/>
        <pt x="385" y="83" on="1"/>
        <pt x="385" y="96" on="0"/>
        <pt x="363" y="234" on="1"/>
        <pt x="339" y="235" on="0"/>
        <pt x="220" y="235" on="0"/>
        <pt x="156" y="227" on="1"/>
        <pt x="107" y="119" on="1"/>
        <pt x="93" y="90" on="0"/>
        <pt x="93" y="73" on="1"/>
        <pt x="93" y="37" on="0"/>
        <pt x="146" y="37" on="1"/>
        <pt x="202" y="37" on="1"/>
        <pt x="202" y="34" on="1"/>
        <pt x="192" y="-7" on="1"/>
        <pt x="124" y="0" on="0"/>
        <pt x="60" y="0" on="1"/>
        <pt x="-45" y="-3" on="1"/>
        <pt x="-32" y="42" on="1"/>
        <pt x="-3" y="45" on="0"/>
        <pt x="34" y="78" on="0"/>
        <pt x="54" y="120" on="1"/>
        <pt x="302" y="631" on="1"/>
        <pt x="358" y="648" on="1"/>
        <pt x="366" y="649" on="1"/>
        <pt x="410" y="342" on="0"/>
        <pt x="456" y="111" on="1"/>
        <pt x="463" y="73" on="0"/>
        <pt x="498" y="44" on="0"/>
        <pt x="540" y="39" on="1"/>
        <pt x="542" y="36" on="1"/>
        <pt x="531" y="-3" on="1"/>
        <pt x="462" y="0" on="0"/>
        <pt x="365" y="0" on="0"/>
      </contour>
      <contour>
        <pt x="264" y="271" on="1"/>
        <pt x="311" y="271" on="0"/>
        <pt x="355" y="277" on="1"/>
        <pt x="311" y="544" on="1"/>
        <pt x="304" y="544" on="1"/>
        <pt x="179" y="271" on="1"/>
      </contour>
      <contour>
        <pt x="493" y="788" on="1"/>
        <pt x="498" y="778" on="1"/>
        <pt x="485" y="731" on="1"/>
        <pt x="210" y="729" on="1"/>
        <pt x="205" y="738" on="1"/>
        <pt x="221" y="783" on="1"/>
        <pt x="312" y="782" on="0"/>
        <pt x="368" y="782" on="1"/>
      </contour>
    </TTGlyph>
    <TTGlyph name="Aogonek" xMin="-45" yMin="-242" xMax="542" yMax="649">
      <contour>
        <pt x="381" y="-242" on="0"/>
        <pt x="329" y="-198" on="0"/>
        <pt x="329" y="-123" on="0"/>
        <pt x="384" y="-49" on="0"/>
        <pt x="439" y="0" on="1"/>
        <pt x="430" y="0" on="1"/>
        <pt x="365" y="0" on="0"/>
        <pt x="287" y="-10" on="1"/>
        <pt x="285" y="-3" on="1"/>
        <pt x="293" y="33" on="1"/>
        <pt x="348" y="37" on="0"/>
        <pt x="385" y="57" on="0"/>
        <pt x="385" y="83" on="1"/>
        <pt x="385" y="96" on="0"/>
        <pt x="363" y="234" on="1"/>
        <pt x="339" y="235" on="0"/>
        <pt x="220" y="235" on="0"/>
        <pt x="156" y="227" on="1"/>
        <pt x="107" y="119" on="1"/>
        <pt x="93" y="90" on="0"/>
        <pt x="93" y="73" on="1"/>
        <pt x="93" y="37" on="0"/>
        <pt x="146" y="37" on="1"/>
        <pt x="202" y="37" on="1"/>
        <pt x="202" y="34" on="1"/>
        <pt x="192" y="-7" on="1"/>
        <pt x="124" y="0" on="0"/>
        <pt x="60" y="0" on="1"/>
        <pt x="-45" y="-3" on="1"/>
        <pt x="-32" y="42" on="1"/>
        <pt x="-3" y="45" on="0"/>
        <pt x="34" y="78" on="0"/>
        <pt x="54" y="120" on="1"/>
        <pt x="302" y="631" on="1"/>
        <pt x="358" y="648" on="1"/>
        <pt x="366" y="649" on="1"/>
        <pt x="410" y="342" on="0"/>
        <pt x="456" y="111" on="1"/>
        <pt x="463" y="73" on="0"/>
        <pt x="498" y="44" on="0"/>
        <pt x="540" y="39" on="1"/>
        <pt x="542" y="36" on="1"/>
        <pt x="531" y="-3" on="1"/>
        <pt x="481" y="-1" on="1"/>
        <pt x="430" y="-49" on="0"/>
        <pt x="393" y="-104" on="0"/>
        <pt x="393" y="-156" on="0"/>
        <pt x="420" y="-183" on="0"/>
        <pt x="439" y="-183" on="1"/>
        <pt x="477" y="-183" on="0"/>
        <pt x="519" y="-160" on="1"/>
        <pt x="529" y="-179" on="1"/>
        <pt x="476" y="-225" on="0"/>
        <pt x="425" y="-242" on="1"/>
      </contour>
      <contour>
        <pt x="264" y="271" on="1"/>
        <pt x="311" y="271" on="0"/>
        <pt x="355" y="277" on="1"/>
        <pt x="311" y="544" on="1"/>
        <pt x="304" y="544" on="1"/>
        <pt x="179" y="271" on="1"/>
      </contour>
    </TTGlyph>
    <TTGlyph name="Aring" xMin="-45" yMin="-10" xMax="542" yMax="838">
      <contour>
        <pt x="287" y="-10" on="1"/>
        <pt x="285" y="-3" on="1"/>
        <pt x="293" y="33" on="1"/>
        <pt x="348" y="37" on="0"/>
        <pt x="385" y="57" on="0"/>
        <pt x="385" y="83" on="1"/>
        <pt x="385" y="96" on="0"/>
        <pt x="363" y="234" on="1"/>
        <pt x="339" y="235" on="0"/>
        <pt x="220" y="235" on="0"/>
        <pt x="156" y="227" on="1"/>
        <pt x="107" y="119" on="1"/>
        <pt x="93" y="90" on="0"/>
        <pt x="93" y="73" on="1"/>
        <pt x="93" y="37" on="0"/>
        <pt x="146" y="37" on="1"/>
        <pt x="202" y="37" on="1"/>
        <pt x="202" y="34" on="1"/>
        <pt x="192" y="-7" on="1"/>
        <pt x="124" y="0" on="0"/>
        <pt x="60" y="0" on="1"/>
        <pt x="-45" y="-3" on="1"/>
        <pt x="-32" y="42" on="1"/>
        <pt x="-3" y="45" on="0"/>
        <pt x="34" y="78" on="0"/>
        <pt x="54" y="120" on="1"/>
        <pt x="302" y="631" on="1"/>
        <pt x="358" y="648" on="1"/>
        <pt x="366" y="649" on="1"/>
        <pt x="410" y="342" on="0"/>
        <pt x="456" y="111" on="1"/>
        <pt x="463" y="73" on="0"/>
        <pt x="498" y="44" on="0"/>
        <pt x="540" y="39" on="1"/>
        <pt x="542" y="36" on="1"/>
        <pt x="531" y="-3" on="1"/>
        <pt x="462" y="0" on="0"/>
        <pt x="365" y="0" on="0"/>
      </contour>
      <contour>
        <pt x="264" y="271" on="1"/>
        <pt x="311" y="271" on="0"/>
        <pt x="355" y="277" on="1"/>
        <pt x="311" y="544" on="1"/>
        <pt x="304" y="544" on="1"/>
        <pt x="179" y="271" on="1"/>
      </contour>
      <contour>
        <pt x="349" y="712" on="1"/>
        <pt x="397" y="712" on="0"/>
        <pt x="397" y="757" on="1"/>
        <pt x="397" y="799" on="0"/>
        <pt x="353" y="799" on="1"/>
        <pt x="331" y="799" on="0"/>
        <pt x="306" y="775" on="0"/>
        <pt x="306" y="733" on="0"/>
        <pt x="333" y="712" on="0"/>
      </contour>
      <contour>
        <pt x="432" y="733" on="0"/>
        <pt x="379" y="674" on="0"/>
        <pt x="307" y="674" on="0"/>
        <pt x="273" y="711" on="0"/>
        <pt x="273" y="783" on="0"/>
        <pt x="326" y="838" on="0"/>
        <pt x="400" y="838" on="0"/>
        <pt x="432" y="800" on="0"/>
      </contour>
    </TTGlyph>
    <TTGlyph name="Aringacute" xMin="-45" yMin="-10" xMax="542" yMax="942">
      <contour>
        <pt x="287" y="-10" on="1"/>
        <pt x="285" y="-3" on="1"/>
        <pt x="293" y="33" on="1"/>
        <pt x="348" y="37" on="0"/>
        <pt x="385" y="57" on="0"/>
        <pt x="385" y="83" on="1"/>
        <pt x="385" y="96" on="0"/>
        <pt x="363" y="234" on="1"/>
        <pt x="339" y="235" on="0"/>
        <pt x="220" y="235" on="0"/>
        <pt x="156" y="227" on="1"/>
        <pt x="107" y="119" on="1"/>
        <pt x="93" y="90" on="0"/>
        <pt x="93" y="73" on="1"/>
        <pt x="93" y="37" on="0"/>
        <pt x="146" y="37" on="1"/>
        <pt x="202" y="37" on="1"/>
        <pt x="202" y="34" on="1"/>
        <pt x="192" y="-7" on="1"/>
        <pt x="124" y="0" on="0"/>
        <pt x="60" y="0" on="1"/>
        <pt x="-45" y="-3" on="1"/>
        <pt x="-32" y="42" on="1"/>
        <pt x="-3" y="45" on="0"/>
        <pt x="34" y="78" on="0"/>
        <pt x="54" y="120" on="1"/>
        <pt x="302" y="631" on="1"/>
        <pt x="358" y="648" on="1"/>
        <pt x="366" y="649" on="1"/>
        <pt x="410" y="342" on="0"/>
        <pt x="456" y="111" on="1"/>
        <pt x="463" y="73" on="0"/>
        <pt x="498" y="44" on="0"/>
        <pt x="540" y="39" on="1"/>
        <pt x="542" y="36" on="1"/>
        <pt x="531" y="-3" on="1"/>
        <pt x="462" y="0" on="0"/>
        <pt x="365" y="0" on="0"/>
      </contour>
      <contour>
        <pt x="264" y="271" on="1"/>
        <pt x="311" y="271" on="0"/>
        <pt x="355" y="277" on="1"/>
        <pt x="311" y="544" on="1"/>
        <pt x="304" y="544" on="1"/>
        <pt x="179" y="271" on="1"/>
      </contour>
      <contour>
        <pt x="355" y="704" on="1"/>
        <pt x="398" y="704" on="0"/>
        <pt x="398" y="744" on="1"/>
        <pt x="398" y="782" on="0"/>
        <pt x="316" y="782" on="0"/>
        <pt x="316" y="741" on="1"/>
        <pt x="316" y="723" on="0"/>
        <pt x="341" y="704" on="0"/>
      </contour>
      <contour>
        <pt x="430" y="723" on="0"/>
        <pt x="382" y="669" on="0"/>
        <pt x="317" y="669" on="0"/>
        <pt x="286" y="703" on="0"/>
        <pt x="286" y="768" on="0"/>
        <pt x="334" y="817" on="0"/>
        <pt x="400" y="817" on="0"/>
        <pt x="430" y="783" on="0"/>
      </contour>
      <contour>
        <pt x="474" y="893" on="1"/>
        <pt x="471" y="884" on="1"/>
        <pt x="380" y="854" on="0"/>
        <pt x="285" y="818" on="1"/>
        <pt x="278" y="822" on="1"/>
        <pt x="273" y="844" on="1"/>
        <pt x="452" y="942" on="1"/>
        <pt x="460" y="936" on="1"/>
      </contour>
    </TTGlyph>
    <TTGlyph name="Atilde" xMin="-45" yMin="-10" xMax="542" yMax="820">
      <contour>
        <pt x="287" y="-10" on="1"/>
        <pt x="285" y="-3" on="1"/>
        <pt x="293" y="33" on="1"/>
        <pt x="348" y="37" on="0"/>
        <pt x="385" y="57" on="0"/>
        <pt x="385" y="83" on="1"/>
        <pt x="385" y="96" on="0"/>
        <pt x="363" y="234" on="1"/>
        <pt x="339" y="235" on="0"/>
        <pt x="220" y="235" on="0"/>
        <pt x="156" y="227" on="1"/>
        <pt x="107" y="119" on="1"/>
        <pt x="93" y="90" on="0"/>
        <pt x="93" y="73" on="1"/>
        <pt x="93" y="37" on="0"/>
        <pt x="146" y="37" on="1"/>
        <pt x="202" y="37" on="1"/>
        <pt x="202" y="34" on="1"/>
        <pt x="192" y="-7" on="1"/>
        <pt x="124" y="0" on="0"/>
        <pt x="60" y="0" on="1"/>
        <pt x="-45" y="-3" on="1"/>
        <pt x="-32" y="42" on="1"/>
        <pt x="-3" y="45" on="0"/>
        <pt x="34" y="78" on="0"/>
        <pt x="54" y="120" on="1"/>
        <pt x="302" y="631" on="1"/>
        <pt x="358" y="648" on="1"/>
        <pt x="366" y="649" on="1"/>
        <pt x="410" y="342" on="0"/>
        <pt x="456" y="111" on="1"/>
        <pt x="463" y="73" on="0"/>
        <pt x="498" y="44" on="0"/>
        <pt x="540" y="39" on="1"/>
        <pt x="542" y="36" on="1"/>
        <pt x="531" y="-3" on="1"/>
        <pt x="462" y="0" on="0"/>
        <pt x="365" y="0" on="0"/>
      </contour>
      <contour>
        <pt x="264" y="271" on="1"/>
        <pt x="311" y="271" on="0"/>
        <pt x="355" y="277" on="1"/>
        <pt x="311" y="544" on="1"/>
        <pt x="304" y="544" on="1"/>
        <pt x="179" y="271" on="1"/>
      </contour>
      <contour>
        <pt x="307" y="808" on="0"/>
        <pt x="414" y="775" on="0"/>
        <pt x="426" y="775" on="1"/>
        <pt x="446" y="775" on="0"/>
        <pt x="493" y="820" on="1"/>
        <pt x="499" y="820" on="1"/>
        <pt x="518" y="799" on="1"/>
        <pt x="518" y="794" on="1"/>
        <pt x="435" y="715" on="1"/>
        <pt x="419" y="711" on="1"/>
        <pt x="402" y="711" on="0"/>
        <pt x="296" y="744" on="0"/>
        <pt x="284" y="744" on="1"/>
        <pt x="262" y="744" on="0"/>
        <pt x="228" y="710" on="1"/>
        <pt x="217" y="699" on="1"/>
        <pt x="211" y="699" on="1"/>
        <pt x="191" y="720" on="1"/>
        <pt x="192" y="725" on="1"/>
        <pt x="275" y="804" on="1"/>
        <pt x="290" y="808" on="1"/>
      </contour>
    </TTGlyph>
    <TTGlyph name="B" xMin="29" yMin="-12" xMax="514" yMax="640">
      <contour>
        <pt x="275" y="-10" on="1"/>
        <pt x="138" y="0" on="1"/>
        <pt x="95" y="0" on="0"/>
        <pt x="29" y="-12" on="1"/>
        <pt x="39" y="31" on="1"/>
        <pt x="86" y="40" on="0"/>
        <pt x="121" y="75" on="0"/>
        <pt x="126" y="118" on="1"/>
        <pt x="180" y="556" on="0"/>
        <pt x="180" y="579" on="0"/>
        <pt x="171" y="596" on="0"/>
        <pt x="149" y="596" on="1"/>
        <pt x="117" y="594" on="1"/>
        <pt x="115" y="598" on="1"/>
        <pt x="127" y="639" on="1"/>
        <pt x="195" y="636" on="0"/>
        <pt x="231" y="636" on="1"/>
        <pt x="333" y="640" on="1"/>
        <pt x="417" y="640" on="0"/>
        <pt x="514" y="571" on="0"/>
        <pt x="514" y="451" on="0"/>
        <pt x="443" y="361" on="0"/>
        <pt x="381" y="335" on="1"/>
        <pt x="444" y="321" on="0"/>
        <pt x="514" y="247" on="0"/>
        <pt x="514" y="196" on="1"/>
        <pt x="514" y="115" on="0"/>
        <pt x="369" y="-10" on="0"/>
      </contour>
      <contour>
        <pt x="187" y="97" on="1"/>
        <pt x="187" y="67" on="0"/>
        <pt x="230" y="37" on="0"/>
        <pt x="355" y="37" on="0"/>
        <pt x="433" y="115" on="0"/>
        <pt x="433" y="180" on="1"/>
        <pt x="433" y="281" on="0"/>
        <pt x="316" y="302" on="1"/>
        <pt x="216" y="300" on="1"/>
        <pt x="187" y="104" on="0"/>
      </contour>
      <contour>
        <pt x="437" y="491" on="1"/>
        <pt x="437" y="602" on="0"/>
        <pt x="281" y="602" on="1"/>
        <pt x="271" y="602" on="0"/>
        <pt x="263" y="593" on="0"/>
        <pt x="260" y="579" on="1"/>
        <pt x="230" y="395" on="0"/>
        <pt x="223" y="349" on="1"/>
        <pt x="315" y="341" on="0"/>
        <pt x="332" y="342" on="0"/>
        <pt x="347" y="347" on="0"/>
        <pt x="385" y="369" on="0"/>
        <pt x="413" y="399" on="0"/>
        <pt x="437" y="456" on="0"/>
      </contour>
    </TTGlyph>
    <TTGlyph name="C" xMin="45" yMin="-12" xMax="593" yMax="648">
      <contour>
        <pt x="499" y="28" on="1"/>
        <pt x="422" y="-12" on="0"/>
        <pt x="189" y="-12" on="0"/>
        <pt x="45" y="132" on="0"/>
        <pt x="45" y="253" on="1"/>
        <pt x="45" y="421" on="0"/>
        <pt x="259" y="648" on="0"/>
        <pt x="417" y="648" on="1"/>
        <pt x="483" y="648" on="0"/>
        <pt x="590" y="625" on="1"/>
        <pt x="593" y="619" on="1"/>
        <pt x="565" y="545" on="0"/>
        <pt x="548" y="455" on="1"/>
        <pt x="505" y="451" on="1"/>
        <pt x="514" y="490" on="0"/>
        <pt x="514" y="510" on="1"/>
        <pt x="514" y="594" on="0"/>
        <pt x="383" y="594" on="1"/>
        <pt x="272" y="594" on="0"/>
        <pt x="132" y="421" on="0"/>
        <pt x="132" y="282" on="1"/>
        <pt x="132" y="168" on="0"/>
        <pt x="234" y="33" on="0"/>
        <pt x="322" y="33" on="1"/>
        <pt x="452" y="33" on="0"/>
        <pt x="508" y="193" on="1"/>
        <pt x="551" y="197" on="1"/>
        <pt x="520" y="107" on="0"/>
        <pt x="505" y="37" on="1"/>
      </contour>
    </TTGlyph>
    <TTGlyph name="Cacute" xMin="45" yMin="-12" xMax="593" yMax="841">
      <contour>
        <pt x="499" y="28" on="1"/>
        <pt x="422" y="-12" on="0"/>
        <pt x="189" y="-12" on="0"/>
        <pt x="45" y="132" on="0"/>
        <pt x="45" y="253" on="1"/>
        <pt x="45" y="421" on="0"/>
        <pt x="259" y="648" on="0"/>
        <pt x="417" y="648" on="1"/>
        <pt x="483" y="648" on="0"/>
        <pt x="590" y="625" on="1"/>
        <pt x="593" y="619" on="1"/>
        <pt x="565" y="545" on="0"/>
        <pt x="548" y="455" on="1"/>
        <pt x="505" y="451" on="1"/>
        <pt x="514" y="490" on="0"/>
        <pt x="514" y="510" on="1"/>
        <pt x="514" y="594" on="0"/>
        <pt x="383" y="594" on="1"/>
        <pt x="272" y="594" on="0"/>
        <pt x="132" y="421" on="0"/>
        <pt x="132" y="282" on="1"/>
        <pt x="132" y="168" on="0"/>
        <pt x="234" y="33" on="0"/>
        <pt x="322" y="33" on="1"/>
        <pt x="452" y="33" on="0"/>
        <pt x="508" y="193" on="1"/>
        <pt x="551" y="197" on="1"/>
        <pt x="520" y="107" on="0"/>
        <pt x="505" y="37" on="1"/>
      </contour>
      <contour>
        <pt x="556" y="787" on="1"/>
        <pt x="552" y="777" on="1"/>
        <pt x="451" y="743" on="0"/>
        <pt x="346" y="703" on="1"/>
        <pt x="338" y="708" on="1"/>
        <pt x="332" y="732" on="1"/>
        <pt x="531" y="841" on="1"/>
        <pt x="540" y="835" on="1"/>
      </contour>
    </TTGlyph>
    <TTGlyph name="Ccaron" xMin="45" yMin="-12" xMax="593" yMax="838">
      <contour>
        <pt x="499" y="28" on="1"/>
        <pt x="422" y="-12" on="0"/>
        <pt x="189" y="-12" on="0"/>
        <pt x="45" y="132" on="0"/>
        <pt x="45" y="253" on="1"/>
        <pt x="45" y="421" on="0"/>
        <pt x="259" y="648" on="0"/>
        <pt x="417" y="648" on="1"/>
        <pt x="483" y="648" on="0"/>
        <pt x="590" y="625" on="1"/>
        <pt x="593" y="619" on="1"/>
        <pt x="565" y="545" on="0"/>
        <pt x="548" y="455" on="1"/>
        <pt x="505" y="451" on="1"/>
        <pt x="514" y="490" on="0"/>
        <pt x="514" y="510" on="1"/>
        <pt x="514" y="594" on="0"/>
        <pt x="383" y="594" on="1"/>
        <pt x="272" y="594" on="0"/>
        <pt x="132" y="421" on="0"/>
        <pt x="132" y="282" on="1"/>
        <pt x="132" y="168" on="0"/>
        <pt x="234" y="33" on="0"/>
        <pt x="322" y="33" on="1"/>
        <pt x="452" y="33" on="0"/>
        <pt x="508" y="193" on="1"/>
        <pt x="551" y="197" on="1"/>
        <pt x="520" y="107" on="0"/>
        <pt x="505" y="37" on="1"/>
      </contour>
      <contour>
        <pt x="553" y="837" on="1"/>
        <pt x="565" y="815" on="1"/>
        <pt x="417" y="704" on="1"/>
        <pt x="404" y="704" on="1"/>
        <pt x="284" y="815" on="1"/>
        <pt x="300" y="837" on="1"/>
        <pt x="310" y="838" on="1"/>
        <pt x="419" y="773" on="1"/>
        <pt x="544" y="838" on="1"/>
      </contour>
    </TTGlyph>
    <TTGlyph name="Ccedilla" xMin="45" yMin="-233" xMax="593" yMax="648">
      <contour>
        <pt x="45" y="253" on="1"/>
        <pt x="45" y="421" on="0"/>
        <pt x="259" y="648" on="0"/>
        <pt x="417" y="648" on="1"/>
        <pt x="483" y="648" on="0"/>
        <pt x="590" y="625" on="1"/>
        <pt x="593" y="619" on="1"/>
        <pt x="565" y="545" on="0"/>
        <pt x="548" y="455" on="1"/>
        <pt x="505" y="451" on="1"/>
        <pt x="514" y="490" on="0"/>
        <pt x="514" y="510" on="1"/>
        <pt x="514" y="594" on="0"/>
        <pt x="383" y="594" on="1"/>
        <pt x="272" y="594" on="0"/>
        <pt x="132" y="421" on="0"/>
        <pt x="132" y="282" on="1"/>
        <pt x="132" y="168" on="0"/>
        <pt x="234" y="33" on="0"/>
        <pt x="322" y="33" on="1"/>
        <pt x="452" y="33" on="0"/>
        <pt x="508" y="193" on="1"/>
        <pt x="551" y="197" on="1"/>
        <pt x="520" y="107" on="0"/>
        <pt x="505" y="37" on="1"/>
        <pt x="499" y="28" on="1"/>
        <pt x="430" y="-7" on="0"/>
        <pt x="325" y="-11" on="1"/>
        <pt x="308" y="-50" on="1"/>
        <pt x="329" y="-64" on="0"/>
        <pt x="363" y="-96" on="0"/>
        <pt x="368" y="-102" on="1"/>
        <pt x="380" y="-121" on="0"/>
        <pt x="380" y="-135" on="1"/>
        <pt x="380" y="-173" on="0"/>
        <pt x="296" y="-233" on="0"/>
        <pt x="252" y="-233" on="1"/>
        <pt x="229" y="-233" on="0"/>
        <pt x="190" y="-214" on="0"/>
        <pt x="190" y="-183" on="0"/>
        <pt x="222" y="-141" on="1"/>
        <pt x="230" y="-141" on="1"/>
        <pt x="230" y="-145" on="0"/>
        <pt x="230" y="-170" on="0"/>
        <pt x="253" y="-198" on="0"/>
        <pt x="297" y="-198" on="0"/>
        <pt x="327" y="-175" on="0"/>
        <pt x="327" y="-158" on="1"/>
        <pt x="327" y="-132" on="0"/>
        <pt x="254" y="-85" on="1"/>
        <pt x="284" y="-11" on="1"/>
        <pt x="175" y="-4" on="0"/>
        <pt x="45" y="138" on="0"/>
      </contour>
    </TTGlyph>
    <TTGlyph name="Ccircumflex" xMin="45" yMin="-12" xMax="593" yMax="877">
      <contour>
        <pt x="499" y="28" on="1"/>
        <pt x="422" y="-12" on="0"/>
        <pt x="189" y="-12" on="0"/>
        <pt x="45" y="132" on="0"/>
        <pt x="45" y="253" on="1"/>
        <pt x="45" y="421" on="0"/>
        <pt x="259" y="648" on="0"/>
        <pt x="417" y="648" on="1"/>
        <pt x="483" y="648" on="0"/>
        <pt x="590" y="625" on="1"/>
        <pt x="593" y="619" on="1"/>
        <pt x="565" y="545" on="0"/>
        <pt x="548" y="455" on="1"/>
        <pt x="505" y="451" on="1"/>
        <pt x="514" y="490" on="0"/>
        <pt x="514" y="510" on="1"/>
        <pt x="514" y="594" on="0"/>
        <pt x="383" y="594" on="1"/>
        <pt x="272" y="594" on="0"/>
        <pt x="132" y="421" on="0"/>
        <pt x="132" y="282" on="1"/>
        <pt x="132" y="168" on="0"/>
        <pt x="234" y="33" on="0"/>
        <pt x="322" y="33" on="1"/>
        <pt x="452" y="33" on="0"/>
        <pt x="508" y="193" on="1"/>
        <pt x="551" y="197" on="1"/>
        <pt x="520" y="107" on="0"/>
        <pt x="505" y="37" on="1"/>
      </contour>
      <contour>
        <pt x="265" y="702" on="1"/>
        <pt x="253" y="724" on="1"/>
        <pt x="405" y="877" on="1"/>
        <pt x="419" y="877" on="1"/>
        <pt x="534" y="724" on="1"/>
        <pt x="517" y="702" on="1"/>
        <pt x="508" y="701" on="1"/>
        <pt x="403" y="798" on="1"/>
        <pt x="274" y="701" on="1"/>
      </contour>
    </TTGlyph>
    <TTGlyph name="Cdotaccent" xMin="45" yMin="-12" xMax="593" yMax="829">
      <contour>
        <pt x="499" y="28" on="1"/>
        <pt x="422" y="-12" on="0"/>
        <pt x="189" y="-12" on="0"/>
        <pt x="45" y="132" on="0"/>
        <pt x="45" y="253" on="1"/>
        <pt x="45" y="421" on="0"/>
        <pt x="259" y="648" on="0"/>
        <pt x="417" y="648" on="1"/>
        <pt x="483" y="648" on="0"/>
        <pt x="590" y="625" on="1"/>
        <pt x="593" y="619" on="1"/>
        <pt x="565" y="545" on="0"/>
        <pt x="548" y="455" on="1"/>
        <pt x="505" y="451" on="1"/>
        <pt x="514" y="490" on="0"/>
        <pt x="514" y="510" on="1"/>
        <pt x="514" y="594" on="0"/>
        <pt x="383" y="594" on="1"/>
        <pt x="272" y="594" on="0"/>
        <pt x="132" y="421" on="0"/>
        <pt x="132" y="282" on="1"/>
        <pt x="132" y="168" on="0"/>
        <pt x="234" y="33" on="0"/>
        <pt x="322" y="33" on="1"/>
        <pt x="452" y="33" on="0"/>
        <pt x="508" y="193" on="1"/>
        <pt x="551" y="197" on="1"/>
        <pt x="520" y="107" on="0"/>
        <pt x="505" y="37" on="1"/>
      </contour>
      <contour>
        <pt x="473" y="758" on="0"/>
        <pt x="435" y="719" on="0"/>
        <pt x="387" y="719" on="0"/>
        <pt x="365" y="745" on="0"/>
        <pt x="365" y="790" on="0"/>
        <pt x="404" y="829" on="0"/>
        <pt x="451" y="829" on="0"/>
        <pt x="473" y="803" on="0"/>
      </contour>
    </TTGlyph>
    <TTGlyph name="D" xMin="28" yMin="-12" xMax="653" yMax="640">
      <contour>
        <pt x="286" y="-12" on="1"/>
        <pt x="188" y="0" on="0"/>
        <pt x="154" y="0" on="1"/>
        <pt x="98" y="0" on="0"/>
        <pt x="28" y="-12" on="1"/>
        <pt x="39" y="31" on="1"/>
        <pt x="85" y="40" on="0"/>
        <pt x="121" y="75" on="0"/>
        <pt x="126" y="117" on="1"/>
        <pt x="180" y="556" on="0"/>
        <pt x="180" y="579" on="0"/>
        <pt x="171" y="596" on="0"/>
        <pt x="150" y="596" on="1"/>
        <pt x="116" y="594" on="1"/>
        <pt x="115" y="598" on="1"/>
        <pt x="126" y="639" on="1"/>
        <pt x="189" y="636" on="0"/>
        <pt x="226" y="636" on="1"/>
        <pt x="362" y="640" on="1"/>
        <pt x="491" y="640" on="0"/>
        <pt x="653" y="493" on="0"/>
        <pt x="653" y="272" on="0"/>
        <pt x="554" y="93" on="0"/>
        <pt x="385" y="-12" on="0"/>
      </contour>
      <contour>
        <pt x="298" y="596" on="1"/>
        <pt x="278" y="596" on="0"/>
        <pt x="264" y="587" on="0"/>
        <pt x="262" y="574" on="1"/>
        <pt x="191" y="130" on="0"/>
        <pt x="191" y="107" on="1"/>
        <pt x="191" y="65" on="0"/>
        <pt x="240" y="35" on="0"/>
        <pt x="305" y="35" on="1"/>
        <pt x="423" y="35" on="0"/>
        <pt x="567" y="213" on="0"/>
        <pt x="567" y="356" on="1"/>
        <pt x="567" y="471" on="0"/>
        <pt x="429" y="596" on="0"/>
      </contour>
    </TTGlyph>
    <TTGlyph name="Dcaron" xMin="28" yMin="-12" xMax="653" yMax="838">
      <contour>
        <pt x="286" y="-12" on="1"/>
        <pt x="188" y="0" on="0"/>
        <pt x="154" y="0" on="1"/>
        <pt x="98" y="0" on="0"/>
        <pt x="28" y="-12" on="1"/>
        <pt x="39" y="31" on="1"/>
        <pt x="85" y="40" on="0"/>
        <pt x="121" y="75" on="0"/>
        <pt x="126" y="117" on="1"/>
        <pt x="180" y="556" on="0"/>
        <pt x="180" y="579" on="0"/>
        <pt x="171" y="596" on="0"/>
        <pt x="150" y="596" on="1"/>
        <pt x="116" y="594" on="1"/>
        <pt x="115" y="598" on="1"/>
        <pt x="126" y="639" on="1"/>
        <pt x="189" y="636" on="0"/>
        <pt x="226" y="636" on="1"/>
        <pt x="362" y="640" on="1"/>
        <pt x="491" y="640" on="0"/>
        <pt x="653" y="493" on="0"/>
        <pt x="653" y="272" on="0"/>
        <pt x="554" y="93" on="0"/>
        <pt x="385" y="-12" on="0"/>
      </contour>
      <contour>
        <pt x="298" y="596" on="1"/>
        <pt x="278" y="596" on="0"/>
        <pt x="264" y="587" on="0"/>
        <pt x="262" y="574" on="1"/>
        <pt x="191" y="130" on="0"/>
        <pt x="191" y="107" on="1"/>
        <pt x="191" y="65" on="0"/>
        <pt x="240" y="35" on="0"/>
        <pt x="305" y="35" on="1"/>
        <pt x="423" y="35" on="0"/>
        <pt x="567" y="213" on="0"/>
        <pt x="567" y="356" on="1"/>
        <pt x="567" y="471" on="0"/>
        <pt x="429" y="596" on="0"/>
      </contour>
      <contour>
        <pt x="525" y="837" on="1"/>
        <pt x="537" y="815" on="1"/>
        <pt x="389" y="704" on="1"/>
        <pt x="376" y="704" on="1"/>
        <pt x="256" y="815" on="1"/>
        <pt x="272" y="837" on="1"/>
        <pt x="282" y="838" on="1"/>
        <pt x="391" y="773" on="1"/>
        <pt x="516" y="838" on="1"/>
      </contour>
    </TTGlyph>
    <TTGlyph name="Dcroat" xMin="20" yMin="-12" xMax="663" yMax="640">
      <contour>
        <pt x="296" y="-12" on="1"/>
        <pt x="198" y="0" on="0"/>
        <pt x="164" y="0" on="1"/>
        <pt x="108" y="0" on="0"/>
        <pt x="38" y="-12" on="1"/>
        <pt x="49" y="31" on="1"/>
        <pt x="95" y="40" on="0"/>
        <pt x="131" y="75" on="0"/>
        <pt x="136" y="117" on="1"/>
        <pt x="159" y="304" on="1"/>
        <pt x="26" y="304" on="1"/>
        <pt x="20" y="311" on="1"/>
        <pt x="31" y="343" on="1"/>
        <pt x="164" y="343" on="1"/>
        <pt x="190" y="556" on="0"/>
        <pt x="190" y="579" on="0"/>
        <pt x="181" y="596" on="0"/>
        <pt x="160" y="596" on="1"/>
        <pt x="126" y="594" on="1"/>
        <pt x="125" y="598" on="1"/>
        <pt x="136" y="639" on="1"/>
        <pt x="199" y="636" on="0"/>
        <pt x="236" y="636" on="1"/>
        <pt x="372" y="640" on="1"/>
        <pt x="501" y="640" on="0"/>
        <pt x="663" y="493" on="0"/>
        <pt x="663" y="272" on="0"/>
        <pt x="564" y="93" on="0"/>
        <pt x="395" y="-12" on="0"/>
      </contour>
      <contour>
        <pt x="308" y="596" on="1"/>
        <pt x="288" y="596" on="0"/>
        <pt x="274" y="587" on="0"/>
        <pt x="272" y="574" on="1"/>
        <pt x="234" y="343" on="1"/>
        <pt x="396" y="343" on="1"/>
        <pt x="400" y="336" on="1"/>
        <pt x="390" y="304" on="1"/>
        <pt x="228" y="304" on="1"/>
        <pt x="201" y="131" on="0"/>
        <pt x="201" y="107" on="1"/>
        <pt x="201" y="65" on="0"/>
        <pt x="250" y="35" on="0"/>
        <pt x="315" y="35" on="1"/>
        <pt x="433" y="35" on="0"/>
        <pt x="577" y="213" on="0"/>
        <pt x="577" y="356" on="1"/>
        <pt x="577" y="471" on="0"/>
        <pt x="439" y="596" on="0"/>
      </contour>
    </TTGlyph>
    <TTGlyph name="Delta" xMin="-18" yMin="0" xMax="464" yMax="649">
      <contour>
        <pt x="-10" y="0" on="1"/>
        <pt x="-18" y="13" on="1"/>
        <pt x="281" y="632" on="1"/>
        <pt x="349" y="649" on="1"/>
        <pt x="357" y="649" on="1"/>
        <pt x="419" y="232" on="0"/>
        <pt x="464" y="7" on="1"/>
        <pt x="456" y="0" on="1"/>
      </contour>
      <contour>
        <pt x="297" y="540" on="1"/>
        <pt x="290" y="540" on="1"/>
        <pt x="64" y="57" on="1"/>
        <pt x="373" y="57" on="1"/>
      </contour>
    </TTGlyph>
    <TTGlyph name="E" xMin="29" yMin="-10" xMax="548" yMax="648">
      <contour>
        <pt x="225" y="352" on="1"/>
        <pt x="324" y="351" on="1"/>
        <pt x="442" y="362" on="1"/>
        <pt x="445" y="358" on="1"/>
        <pt x="425" y="302" on="1"/>
        <pt x="343" y="305" on="0"/>
        <pt x="253" y="305" on="0"/>
        <pt x="216" y="298" on="1"/>
        <pt x="210" y="257" on="0"/>
        <pt x="202" y="204" on="1"/>
        <pt x="185" y="100" on="0"/>
        <pt x="185" y="55" on="0"/>
        <pt x="213" y="41" on="0"/>
        <pt x="319" y="41" on="0"/>
        <pt x="381" y="47" on="0"/>
        <pt x="428" y="76" on="0"/>
        <pt x="447" y="119" on="0"/>
        <pt x="459" y="164" on="1"/>
        <pt x="500" y="169" on="1"/>
        <pt x="502" y="164" on="1"/>
        <pt x="474" y="82" on="0"/>
        <pt x="455" y="-2" on="1"/>
        <pt x="450" y="-7" on="1"/>
        <pt x="251" y="0" on="0"/>
        <pt x="190" y="0" on="1"/>
        <pt x="97" y="0" on="0"/>
        <pt x="29" y="-10" on="1"/>
        <pt x="40" y="33" on="1"/>
        <pt x="84" y="39" on="0"/>
        <pt x="120" y="74" on="0"/>
        <pt x="125" y="117" on="1"/>
        <pt x="180" y="556" on="0"/>
        <pt x="180" y="579" on="0"/>
        <pt x="171" y="596" on="0"/>
        <pt x="149" y="596" on="1"/>
        <pt x="116" y="594" on="1"/>
        <pt x="115" y="597" on="1"/>
        <pt x="126" y="639" on="1"/>
        <pt x="200" y="636" on="0"/>
        <pt x="461" y="636" on="0"/>
        <pt x="546" y="648" on="1"/>
        <pt x="548" y="643" on="1"/>
        <pt x="523" y="571" on="0"/>
        <pt x="506" y="479" on="1"/>
        <pt x="462" y="475" on="1"/>
        <pt x="471" y="514" on="0"/>
        <pt x="471" y="573" on="0"/>
        <pt x="420" y="590" on="0"/>
        <pt x="281" y="590" on="0"/>
        <pt x="260" y="579" on="0"/>
        <pt x="256" y="551" on="1"/>
      </contour>
    </TTGlyph>
    <TTGlyph name="Eacute" xMin="29" yMin="-10" xMax="548" yMax="841">
      <contour>
        <pt x="225" y="352" on="1"/>
        <pt x="324" y="351" on="1"/>
        <pt x="442" y="362" on="1"/>
        <pt x="445" y="358" on="1"/>
        <pt x="425" y="302" on="1"/>
        <pt x="343" y="305" on="0"/>
        <pt x="253" y="305" on="0"/>
        <pt x="216" y="298" on="1"/>
        <pt x="210" y="257" on="0"/>
        <pt x="202" y="204" on="1"/>
        <pt x="185" y="100" on="0"/>
        <pt x="185" y="55" on="0"/>
        <pt x="213" y="41" on="0"/>
        <pt x="319" y="41" on="0"/>
        <pt x="381" y="47" on="0"/>
        <pt x="428" y="76" on="0"/>
        <pt x="447" y="119" on="0"/>
        <pt x="459" y="164" on="1"/>
        <pt x="500" y="169" on="1"/>
        <pt x="502" y="164" on="1"/>
        <pt x="474" y="82" on="0"/>
        <pt x="455" y="-2" on="1"/>
        <pt x="450" y="-7" on="1"/>
        <pt x="251" y="0" on="0"/>
        <pt x="190" y="0" on="1"/>
        <pt x="97" y="0" on="0"/>
        <pt x="29" y="-10" on="1"/>
        <pt x="40" y="33" on="1"/>
        <pt x="84" y="39" on="0"/>
        <pt x="120" y="74" on="0"/>
        <pt x="125" y="117" on="1"/>
        <pt x="180" y="556" on="0"/>
        <pt x="180" y="579" on="0"/>
        <pt x="171" y="596" on="0"/>
        <pt x="149" y="596" on="1"/>
        <pt x="116" y="594" on="1"/>
        <pt x="115" y="597" on="1"/>
        <pt x="126" y="639" on="1"/>
        <pt x="200" y="636" on="0"/>
        <pt x="461" y="636" on="0"/>
        <pt x="546" y="648" on="1"/>
        <pt x="548" y="643" on="1"/>
        <pt x="523" y="571" on="0"/>
        <pt x="506" y="479" on="1"/>
        <pt x="462" y="475" on="1"/>
        <pt x="471" y="514" on="0"/>
        <pt x="471" y="573" on="0"/>
        <pt x="420" y="590" on="0"/>
        <pt x="281" y="590" on="0"/>
        <pt x="260" y="579" on="0"/>
        <pt x="256" y="551" on="1"/>
      </contour>
      <contour>
        <pt x="485" y="787" on="1"/>
        <pt x="481" y="777" on="1"/>
        <pt x="380" y="743" on="0"/>
        <pt x="275" y="703" on="1"/>
        <pt x="267" y="708" on="1"/>
        <pt x="261" y="732" on="1"/>
        <pt x="460" y="841" on="1"/>
        <pt x="469" y="835" on="1"/>
      </contour>
    </TTGlyph>
    <TTGlyph name="Ebreve" xMin="29" yMin="-10" xMax="548" yMax="847">
      <contour>
        <pt x="225" y="352" on="1"/>
        <pt x="324" y="351" on="1"/>
        <pt x="442" y="362" on="1"/>
        <pt x="445" y="358" on="1"/>
        <pt x="425" y="302" on="1"/>
        <pt x="343" y="305" on="0"/>
        <pt x="253" y="305" on="0"/>
        <pt x="216" y="298" on="1"/>
        <pt x="210" y="257" on="0"/>
        <pt x="202" y="204" on="1"/>
        <pt x="185" y="100" on="0"/>
        <pt x="185" y="55" on="0"/>
        <pt x="213" y="41" on="0"/>
        <pt x="319" y="41" on="0"/>
        <pt x="381" y="47" on="0"/>
        <pt x="428" y="76" on="0"/>
        <pt x="447" y="119" on="0"/>
        <pt x="459" y="164" on="1"/>
        <pt x="500" y="169" on="1"/>
        <pt x="502" y="164" on="1"/>
        <pt x="474" y="82" on="0"/>
        <pt x="455" y="-2" on="1"/>
        <pt x="450" y="-7" on="1"/>
        <pt x="251" y="0" on="0"/>
        <pt x="190" y="0" on="1"/>
        <pt x="97" y="0" on="0"/>
        <pt x="29" y="-10" on="1"/>
        <pt x="40" y="33" on="1"/>
        <pt x="84" y="39" on="0"/>
        <pt x="120" y="74" on="0"/>
        <pt x="125" y="117" on="1"/>
        <pt x="180" y="556" on="0"/>
        <pt x="180" y="579" on="0"/>
        <pt x="171" y="596" on="0"/>
        <pt x="149" y="596" on="1"/>
        <pt x="116" y="594" on="1"/>
        <pt x="115" y="597" on="1"/>
        <pt x="126" y="639" on="1"/>
        <pt x="200" y="636" on="0"/>
        <pt x="461" y="636" on="0"/>
        <pt x="546" y="648" on="1"/>
        <pt x="548" y="643" on="1"/>
        <pt x="523" y="571" on="0"/>
        <pt x="506" y="479" on="1"/>
        <pt x="462" y="475" on="1"/>
        <pt x="471" y="514" on="0"/>
        <pt x="471" y="573" on="0"/>
        <pt x="420" y="590" on="0"/>
        <pt x="281" y="590" on="0"/>
        <pt x="260" y="579" on="0"/>
        <pt x="256" y="551" on="1"/>
      </contour>
      <contour>
        <pt x="300" y="781" on="0"/>
        <pt x="436" y="781" on="0"/>
        <pt x="468" y="847" on="1"/>
        <pt x="477" y="847" on="1"/>
        <pt x="491" y="837" on="1"/>
        <pt x="474" y="789" on="0"/>
        <pt x="408" y="723" on="0"/>
        <pt x="314" y="723" on="0"/>
        <pt x="263" y="789" on="0"/>
        <pt x="258" y="837" on="1"/>
        <pt x="275" y="847" on="1"/>
        <pt x="283" y="847" on="1"/>
      </contour>
    </TTGlyph>
    <TTGlyph name="Ecaron" xMin="29" yMin="-10" xMax="548" yMax="838">
      <contour>
        <pt x="225" y="352" on="1"/>
        <pt x="324" y="351" on="1"/>
        <pt x="442" y="362" on="1"/>
        <pt x="445" y="358" on="1"/>
        <pt x="425" y="302" on="1"/>
        <pt x="343" y="305" on="0"/>
        <pt x="253" y="305" on="0"/>
        <pt x="216" y="298" on="1"/>
        <pt x="210" y="257" on="0"/>
        <pt x="202" y="204" on="1"/>
        <pt x="185" y="100" on="0"/>
        <pt x="185" y="55" on="0"/>
        <pt x="213" y="41" on="0"/>
        <pt x="319" y="41" on="0"/>
        <pt x="381" y="47" on="0"/>
        <pt x="428" y="76" on="0"/>
        <pt x="447" y="119" on="0"/>
        <pt x="459" y="164" on="1"/>
        <pt x="500" y="169" on="1"/>
        <pt x="502" y="164" on="1"/>
        <pt x="474" y="82" on="0"/>
        <pt x="455" y="-2" on="1"/>
        <pt x="450" y="-7" on="1"/>
        <pt x="251" y="0" on="0"/>
        <pt x="190" y="0" on="1"/>
        <pt x="97" y="0" on="0"/>
        <pt x="29" y="-10" on="1"/>
        <pt x="40" y="33" on="1"/>
        <pt x="84" y="39" on="0"/>
        <pt x="120" y="74" on="0"/>
        <pt x="125" y="117" on="1"/>
        <pt x="180" y="556" on="0"/>
        <pt x="180" y="579" on="0"/>
        <pt x="171" y="596" on="0"/>
        <pt x="149" y="596" on="1"/>
        <pt x="116" y="594" on="1"/>
        <pt x="115" y="597" on="1"/>
        <pt x="126" y="639" on="1"/>
        <pt x="200" y="636" on="0"/>
        <pt x="461" y="636" on="0"/>
        <pt x="546" y="648" on="1"/>
        <pt x="548" y="643" on="1"/>
        <pt x="523" y="571" on="0"/>
        <pt x="506" y="479" on="1"/>
        <pt x="462" y="475" on="1"/>
        <pt x="471" y="514" on="0"/>
        <pt x="471" y="573" on="0"/>
        <pt x="420" y="590" on="0"/>
        <pt x="281" y="590" on="0"/>
        <pt x="260" y="579" on="0"/>
        <pt x="256" y="551" on="1"/>
      </contour>
      <contour>
        <pt x="504" y="837" on="1"/>
        <pt x="516" y="815" on="1"/>
        <pt x="368" y="704" on="1"/>
        <pt x="355" y="704" on="1"/>
        <pt x="235" y="815" on="1"/>
        <pt x="251" y="837" on="1"/>
        <pt x="261" y="838" on="1"/>
        <pt x="370" y="773" on="1"/>
        <pt x="495" y="838" on="1"/>
      </contour>
    </TTGlyph>
    <TTGlyph name="Ecircumflex" xMin="29" yMin="-10" xMax="548" yMax="846">
      <contour>
        <pt x="225" y="352" on="1"/>
        <pt x="324" y="351" on="1"/>
        <pt x="442" y="362" on="1"/>
        <pt x="445" y="358" on="1"/>
        <pt x="425" y="302" on="1"/>
        <pt x="343" y="305" on="0"/>
        <pt x="253" y="305" on="0"/>
        <pt x="216" y="298" on="1"/>
        <pt x="210" y="257" on="0"/>
        <pt x="202" y="204" on="1"/>
        <pt x="185" y="100" on="0"/>
        <pt x="185" y="55" on="0"/>
        <pt x="213" y="41" on="0"/>
        <pt x="319" y="41" on="0"/>
        <pt x="381" y="47" on="0"/>
        <pt x="428" y="76" on="0"/>
        <pt x="447" y="119" on="0"/>
        <pt x="459" y="164" on="1"/>
        <pt x="500" y="169" on="1"/>
        <pt x="502" y="164" on="1"/>
        <pt x="474" y="82" on="0"/>
        <pt x="455" y="-2" on="1"/>
        <pt x="450" y="-7" on="1"/>
        <pt x="251" y="0" on="0"/>
        <pt x="190" y="0" on="1"/>
        <pt x="97" y="0" on="0"/>
        <pt x="29" y="-10" on="1"/>
        <pt x="40" y="33" on="1"/>
        <pt x="84" y="39" on="0"/>
        <pt x="120" y="74" on="0"/>
        <pt x="125" y="117" on="1"/>
        <pt x="180" y="556" on="0"/>
        <pt x="180" y="579" on="0"/>
        <pt x="171" y="596" on="0"/>
        <pt x="149" y="596" on="1"/>
        <pt x="116" y="594" on="1"/>
        <pt x="115" y="597" on="1"/>
        <pt x="126" y="639" on="1"/>
        <pt x="200" y="636" on="0"/>
        <pt x="461" y="636" on="0"/>
        <pt x="546" y="648" on="1"/>
        <pt x="548" y="643" on="1"/>
        <pt x="523" y="571" on="0"/>
        <pt x="506" y="479" on="1"/>
        <pt x="462" y="475" on="1"/>
        <pt x="471" y="514" on="0"/>
        <pt x="471" y="573" on="0"/>
        <pt x="420" y="590" on="0"/>
        <pt x="281" y="590" on="0"/>
        <pt x="260" y="579" on="0"/>
        <pt x="256" y="551" on="1"/>
      </contour>
      <contour>
        <pt x="236" y="713" on="1"/>
        <pt x="225" y="735" on="1"/>
        <pt x="372" y="846" on="1"/>
        <pt x="386" y="846" on="1"/>
        <pt x="506" y="735" on="1"/>
        <pt x="489" y="713" on="1"/>
        <pt x="480" y="712" on="1"/>
        <pt x="370" y="777" on="1"/>
        <pt x="245" y="712" on="1"/>
      </contour>
    </TTGlyph>
    <TTGlyph name="Edieresis" xMin="29" yMin="-10" xMax="548" yMax="818">
      <contour>
        <pt x="225" y="352" on="1"/>
        <pt x="324" y="351" on="1"/>
        <pt x="442" y="362" on="1"/>
        <pt x="445" y="358" on="1"/>
        <pt x="425" y="302" on="1"/>
        <pt x="343" y="305" on="0"/>
        <pt x="253" y="305" on="0"/>
        <pt x="216" y="298" on="1"/>
        <pt x="210" y="257" on="0"/>
        <pt x="202" y="204" on="1"/>
        <pt x="185" y="100" on="0"/>
        <pt x="185" y="55" on="0"/>
        <pt x="213" y="41" on="0"/>
        <pt x="319" y="41" on="0"/>
        <pt x="381" y="47" on="0"/>
        <pt x="428" y="76" on="0"/>
        <pt x="447" y="119" on="0"/>
        <pt x="459" y="164" on="1"/>
        <pt x="500" y="169" on="1"/>
        <pt x="502" y="164" on="1"/>
        <pt x="474" y="82" on="0"/>
        <pt x="455" y="-2" on="1"/>
        <pt x="450" y="-7" on="1"/>
        <pt x="251" y="0" on="0"/>
        <pt x="190" y="0" on="1"/>
        <pt x="97" y="0" on="0"/>
        <pt x="29" y="-10" on="1"/>
        <pt x="40" y="33" on="1"/>
        <pt x="84" y="39" on="0"/>
        <pt x="120" y="74" on="0"/>
        <pt x="125" y="117" on="1"/>
        <pt x="180" y="556" on="0"/>
        <pt x="180" y="579" on="0"/>
        <pt x="171" y="596" on="0"/>
        <pt x="149" y="596" on="1"/>
        <pt x="116" y="594" on="1"/>
        <pt x="115" y="597" on="1"/>
        <pt x="126" y="639" on="1"/>
        <pt x="200" y="636" on="0"/>
        <pt x="461" y="636" on="0"/>
        <pt x="546" y="648" on="1"/>
        <pt x="548" y="643" on="1"/>
        <pt x="523" y="571" on="0"/>
        <pt x="506" y="479" on="1"/>
        <pt x="462" y="475" on="1"/>
        <pt x="471" y="514" on="0"/>
        <pt x="471" y="573" on="0"/>
        <pt x="420" y="590" on="0"/>
        <pt x="281" y="590" on="0"/>
        <pt x="260" y="579" on="0"/>
        <pt x="256" y="551" on="1"/>
      </contour>
      <contour>
        <pt x="495" y="758" on="0"/>
        <pt x="462" y="725" on="0"/>
        <pt x="442" y="725" on="1"/>
        <pt x="404" y="725" on="0"/>
        <pt x="404" y="763" on="1"/>
        <pt x="404" y="785" on="0"/>
        <pt x="437" y="818" on="0"/>
        <pt x="476" y="818" on="0"/>
        <pt x="495" y="796" on="0"/>
      </contour>
      <contour>
        <pt x="335" y="758" on="0"/>
        <pt x="302" y="725" on="0"/>
        <pt x="282" y="725" on="1"/>
        <pt x="244" y="725" on="0"/>
        <pt x="244" y="763" on="1"/>
        <pt x="244" y="785" on="0"/>
        <pt x="276" y="818" on="0"/>
        <pt x="316" y="818" on="0"/>
        <pt x="335" y="796" on="0"/>
      </contour>
    </TTGlyph>
    <TTGlyph name="Edotaccent" xMin="29" yMin="-10" xMax="548" yMax="829">
      <contour>
        <pt x="225" y="352" on="1"/>
        <pt x="324" y="351" on="1"/>
        <pt x="442" y="362" on="1"/>
        <pt x="445" y="358" on="1"/>
        <pt x="425" y="302" on="1"/>
        <pt x="343" y="305" on="0"/>
        <pt x="253" y="305" on="0"/>
        <pt x="216" y="298" on="1"/>
        <pt x="210" y="257" on="0"/>
        <pt x="202" y="204" on="1"/>
        <pt x="185" y="100" on="0"/>
        <pt x="185" y="55" on="0"/>
        <pt x="213" y="41" on="0"/>
        <pt x="319" y="41" on="0"/>
        <pt x="381" y="47" on="0"/>
        <pt x="428" y="76" on="0"/>
        <pt x="447" y="119" on="0"/>
        <pt x="459" y="164" on="1"/>
        <pt x="500" y="169" on="1"/>
        <pt x="502" y="164" on="1"/>
        <pt x="474" y="82" on="0"/>
        <pt x="455" y="-2" on="1"/>
        <pt x="450" y="-7" on="1"/>
        <pt x="251" y="0" on="0"/>
        <pt x="190" y="0" on="1"/>
        <pt x="97" y="0" on="0"/>
        <pt x="29" y="-10" on="1"/>
        <pt x="40" y="33" on="1"/>
        <pt x="84" y="39" on="0"/>
        <pt x="120" y="74" on="0"/>
        <pt x="125" y="117" on="1"/>
        <pt x="180" y="556" on="0"/>
        <pt x="180" y="579" on="0"/>
        <pt x="171" y="596" on="0"/>
        <pt x="149" y="596" on="1"/>
        <pt x="116" y="594" on="1"/>
        <pt x="115" y="597" on="1"/>
        <pt x="126" y="639" on="1"/>
        <pt x="200" y="636" on="0"/>
        <pt x="461" y="636" on="0"/>
        <pt x="546" y="648" on="1"/>
        <pt x="548" y="643" on="1"/>
        <pt x="523" y="571" on="0"/>
        <pt x="506" y="479" on="1"/>
        <pt x="462" y="475" on="1"/>
        <pt x="471" y="514" on="0"/>
        <pt x="471" y="573" on="0"/>
        <pt x="420" y="590" on="0"/>
        <pt x="281" y="590" on="0"/>
        <pt x="260" y="579" on="0"/>
        <pt x="256" y="551" on="1"/>
      </contour>
      <contour>
        <pt x="424" y="758" on="0"/>
        <pt x="386" y="719" on="0"/>
        <pt x="338" y="719" on="0"/>
        <pt x="316" y="745" on="0"/>
        <pt x="316" y="790" on="0"/>
        <pt x="354" y="829" on="0"/>
        <pt x="402" y="829" on="0"/>
        <pt x="424" y="803" on="0"/>
      </contour>
    </TTGlyph>
    <TTGlyph name="Egrave" xMin="29" yMin="-10" xMax="548" yMax="841">
      <contour>
        <pt x="225" y="352" on="1"/>
        <pt x="324" y="351" on="1"/>
        <pt x="442" y="362" on="1"/>
        <pt x="445" y="358" on="1"/>
        <pt x="425" y="302" on="1"/>
        <pt x="343" y="305" on="0"/>
        <pt x="253" y="305" on="0"/>
        <pt x="216" y="298" on="1"/>
        <pt x="210" y="257" on="0"/>
        <pt x="202" y="204" on="1"/>
        <pt x="185" y="100" on="0"/>
        <pt x="185" y="55" on="0"/>
        <pt x="213" y="41" on="0"/>
        <pt x="319" y="41" on="0"/>
        <pt x="381" y="47" on="0"/>
        <pt x="428" y="76" on="0"/>
        <pt x="447" y="119" on="0"/>
        <pt x="459" y="164" on="1"/>
        <pt x="500" y="169" on="1"/>
        <pt x="502" y="164" on="1"/>
        <pt x="474" y="82" on="0"/>
        <pt x="455" y="-2" on="1"/>
        <pt x="450" y="-7" on="1"/>
        <pt x="251" y="0" on="0"/>
        <pt x="190" y="0" on="1"/>
        <pt x="97" y="0" on="0"/>
        <pt x="29" y="-10" on="1"/>
        <pt x="40" y="33" on="1"/>
        <pt x="84" y="39" on="0"/>
        <pt x="120" y="74" on="0"/>
        <pt x="125" y="117" on="1"/>
        <pt x="180" y="556" on="0"/>
        <pt x="180" y="579" on="0"/>
        <pt x="171" y="596" on="0"/>
        <pt x="149" y="596" on="1"/>
        <pt x="116" y="594" on="1"/>
        <pt x="115" y="597" on="1"/>
        <pt x="126" y="639" on="1"/>
        <pt x="200" y="636" on="0"/>
        <pt x="461" y="636" on="0"/>
        <pt x="546" y="648" on="1"/>
        <pt x="548" y="643" on="1"/>
        <pt x="523" y="571" on="0"/>
        <pt x="506" y="479" on="1"/>
        <pt x="462" y="475" on="1"/>
        <pt x="471" y="514" on="0"/>
        <pt x="471" y="573" on="0"/>
        <pt x="420" y="590" on="0"/>
        <pt x="281" y="590" on="0"/>
        <pt x="260" y="579" on="0"/>
        <pt x="256" y="551" on="1"/>
      </contour>
      <contour>
        <pt x="224" y="777" on="1"/>
        <pt x="220" y="787" on="1"/>
        <pt x="236" y="835" on="1"/>
        <pt x="245" y="841" on="1"/>
        <pt x="350" y="781" on="0"/>
        <pt x="444" y="732" on="1"/>
        <pt x="438" y="708" on="1"/>
        <pt x="430" y="703" on="1"/>
      </contour>
    </TTGlyph>
    <TTGlyph name="Emacron" xMin="29" yMin="-10" xMax="548" yMax="788">
      <contour>
        <pt x="225" y="352" on="1"/>
        <pt x="324" y="351" on="1"/>
        <pt x="442" y="362" on="1"/>
        <pt x="445" y="358" on="1"/>
        <pt x="425" y="302" on="1"/>
        <pt x="343" y="305" on="0"/>
        <pt x="253" y="305" on="0"/>
        <pt x="216" y="298" on="1"/>
        <pt x="210" y="257" on="0"/>
        <pt x="202" y="204" on="1"/>
        <pt x="185" y="100" on="0"/>
        <pt x="185" y="55" on="0"/>
        <pt x="213" y="41" on="0"/>
        <pt x="319" y="41" on="0"/>
        <pt x="381" y="47" on="0"/>
        <pt x="428" y="76" on="0"/>
        <pt x="447" y="119" on="0"/>
        <pt x="459" y="164" on="1"/>
        <pt x="500" y="169" on="1"/>
        <pt x="502" y="164" on="1"/>
        <pt x="474" y="82" on="0"/>
        <pt x="455" y="-2" on="1"/>
        <pt x="450" y="-7" on="1"/>
        <pt x="251" y="0" on="0"/>
        <pt x="190" y="0" on="1"/>
        <pt x="97" y="0" on="0"/>
        <pt x="29" y="-10" on="1"/>
        <pt x="40" y="33" on="1"/>
        <pt x="84" y="39" on="0"/>
        <pt x="120" y="74" on="0"/>
        <pt x="125" y="117" on="1"/>
        <pt x="180" y="556" on="0"/>
        <pt x="180" y="579" on="0"/>
        <pt x="171" y="596" on="0"/>
        <pt x="149" y="596" on="1"/>
        <pt x="116" y="594" on="1"/>
        <pt x="115" y="597" on="1"/>
        <pt x="126" y="639" on="1"/>
        <pt x="200" y="636" on="0"/>
        <pt x="461" y="636" on="0"/>
        <pt x="546" y="648" on="1"/>
        <pt x="548" y="643" on="1"/>
        <pt x="523" y="571" on="0"/>
        <pt x="506" y="479" on="1"/>
        <pt x="462" y="475" on="1"/>
        <pt x="471" y="514" on="0"/>
        <pt x="471" y="573" on="0"/>
        <pt x="420" y="590" on="0"/>
        <pt x="281" y="590" on="0"/>
        <pt x="260" y="579" on="0"/>
        <pt x="256" y="551" on="1"/>
      </contour>
      <contour>
        <pt x="508" y="788" on="1"/>
        <pt x="513" y="778" on="1"/>
        <pt x="500" y="731" on="1"/>
        <pt x="225" y="729" on="1"/>
        <pt x="220" y="738" on="1"/>
        <pt x="236" y="783" on="1"/>
        <pt x="327" y="782" on="0"/>
        <pt x="383" y="782" on="1"/>
      </contour>
    </TTGlyph>
    <TTGlyph name="Eng" xMin="32" yMin="-154" xMax="712" yMax="645">
      <contour>
        <pt x="573" y="559" on="1"/>
        <pt x="573" y="593" on="0"/>
        <pt x="546" y="593" on="1"/>
        <pt x="510" y="592" on="1"/>
        <pt x="508" y="596" on="1"/>
        <pt x="523" y="641" on="1"/>
        <pt x="584" y="637" on="0"/>
        <pt x="608" y="637" on="1"/>
        <pt x="652" y="637" on="0"/>
        <pt x="712" y="645" on="1"/>
        <pt x="702" y="599" on="1"/>
        <pt x="667" y="595" on="0"/>
        <pt x="634" y="565" on="0"/>
        <pt x="629" y="536" on="1"/>
        <pt x="565" y="86" on="1"/>
        <pt x="549" y="-11" on="0"/>
        <pt x="457" y="-123" on="0"/>
        <pt x="367" y="-154" on="1"/>
        <pt x="354" y="-121" on="1"/>
        <pt x="358" y="-113" on="1"/>
        <pt x="456" y="-73" on="0"/>
        <pt x="490" y="8" on="1"/>
        <pt x="372" y="247" on="0"/>
        <pt x="228" y="511" on="1"/>
        <pt x="223" y="511" on="1"/>
        <pt x="165" y="76" on="0"/>
        <pt x="165" y="58" on="0"/>
        <pt x="174" y="44" on="0"/>
        <pt x="191" y="44" on="1"/>
        <pt x="239" y="46" on="1"/>
        <pt x="241" y="42" on="1"/>
        <pt x="227" y="-4" on="1"/>
        <pt x="164" y="0" on="0"/>
        <pt x="132" y="0" on="1"/>
        <pt x="84" y="0" on="0"/>
        <pt x="32" y="-8" on="1"/>
        <pt x="43" y="38" on="1"/>
        <pt x="76" y="41" on="0"/>
        <pt x="106" y="76" on="0"/>
        <pt x="114" y="124" on="1"/>
        <pt x="177" y="544" on="0"/>
        <pt x="177" y="570" on="0"/>
        <pt x="150" y="593" on="0"/>
        <pt x="101" y="600" on="1"/>
        <pt x="98" y="605" on="1"/>
        <pt x="110" y="642" on="1"/>
        <pt x="168" y="637" on="0"/>
        <pt x="189" y="637" on="1"/>
        <pt x="260" y="641" on="1"/>
        <pt x="356" y="443" on="0"/>
        <pt x="518" y="145" on="1"/>
        <pt x="523" y="145" on="1"/>
        <pt x="573" y="554" on="0"/>
      </contour>
    </TTGlyph>
    <TTGlyph name="Eogonek" xMin="29" yMin="-241" xMax="548" yMax="648">
      <contour>
        <pt x="225" y="352" on="1"/>
        <pt x="324" y="351" on="1"/>
        <pt x="442" y="362" on="1"/>
        <pt x="445" y="358" on="1"/>
        <pt x="425" y="302" on="1"/>
        <pt x="343" y="305" on="0"/>
        <pt x="253" y="305" on="0"/>
        <pt x="216" y="298" on="1"/>
        <pt x="210" y="257" on="0"/>
        <pt x="202" y="204" on="1"/>
        <pt x="185" y="100" on="0"/>
        <pt x="185" y="55" on="0"/>
        <pt x="213" y="41" on="0"/>
        <pt x="319" y="41" on="0"/>
        <pt x="381" y="47" on="0"/>
        <pt x="428" y="76" on="0"/>
        <pt x="447" y="119" on="0"/>
        <pt x="459" y="164" on="1"/>
        <pt x="500" y="169" on="1"/>
        <pt x="502" y="164" on="1"/>
        <pt x="474" y="82" on="0"/>
        <pt x="455" y="-2" on="1"/>
        <pt x="450" y="-7" on="1"/>
        <pt x="431" y="-6" on="0"/>
        <pt x="403" y="-5" on="1"/>
        <pt x="356" y="-51" on="0"/>
        <pt x="321" y="-104" on="0"/>
        <pt x="321" y="-155" on="0"/>
        <pt x="348" y="-182" on="0"/>
        <pt x="367" y="-182" on="1"/>
        <pt x="401" y="-182" on="0"/>
        <pt x="447" y="-159" on="1"/>
        <pt x="457" y="-178" on="1"/>
        <pt x="404" y="-224" on="0"/>
        <pt x="353" y="-241" on="1"/>
        <pt x="309" y="-241" on="0"/>
        <pt x="257" y="-197" on="0"/>
        <pt x="257" y="-123" on="0"/>
        <pt x="309" y="-52" on="0"/>
        <pt x="361" y="-4" on="1"/>
        <pt x="231" y="0" on="0"/>
        <pt x="180" y="0" on="1"/>
        <pt x="97" y="0" on="0"/>
        <pt x="29" y="-10" on="1"/>
        <pt x="40" y="33" on="1"/>
        <pt x="84" y="39" on="0"/>
        <pt x="120" y="74" on="0"/>
        <pt x="125" y="117" on="1"/>
        <pt x="180" y="556" on="0"/>
        <pt x="180" y="579" on="0"/>
        <pt x="171" y="596" on="0"/>
        <pt x="149" y="596" on="1"/>
        <pt x="116" y="594" on="1"/>
        <pt x="115" y="597" on="1"/>
        <pt x="126" y="639" on="1"/>
        <pt x="200" y="636" on="0"/>
        <pt x="461" y="636" on="0"/>
        <pt x="546" y="648" on="1"/>
        <pt x="548" y="643" on="1"/>
        <pt x="523" y="571" on="0"/>
        <pt x="506" y="479" on="1"/>
        <pt x="462" y="475" on="1"/>
        <pt x="471" y="514" on="0"/>
        <pt x="471" y="573" on="0"/>
        <pt x="420" y="590" on="0"/>
        <pt x="281" y="590" on="0"/>
        <pt x="260" y="579" on="0"/>
        <pt x="256" y="551" on="1"/>
      </contour>
    </TTGlyph>
    <TTGlyph name="Eth" xMin="20" yMin="-12" xMax="663" yMax="640">
      <contour>
        <pt x="296" y="-12" on="1"/>
        <pt x="198" y="0" on="0"/>
        <pt x="164" y="0" on="1"/>
        <pt x="108" y="0" on="0"/>
        <pt x="38" y="-12" on="1"/>
        <pt x="49" y="31" on="1"/>
        <pt x="95" y="40" on="0"/>
        <pt x="131" y="75" on="0"/>
        <pt x="136" y="117" on="1"/>
        <pt x="159" y="304" on="1"/>
        <pt x="26" y="304" on="1"/>
        <pt x="20" y="311" on="1"/>
        <pt x="31" y="343" on="1"/>
        <pt x="164" y="343" on="1"/>
        <pt x="190" y="556" on="0"/>
        <pt x="190" y="579" on="0"/>
        <pt x="181" y="596" on="0"/>
        <pt x="160" y="596" on="1"/>
        <pt x="126" y="594" on="1"/>
        <pt x="125" y="598" on="1"/>
        <pt x="136" y="639" on="1"/>
        <pt x="199" y="636" on="0"/>
        <pt x="236" y="636" on="1"/>
        <pt x="372" y="640" on="1"/>
        <pt x="501" y="640" on="0"/>
        <pt x="663" y="493" on="0"/>
        <pt x="663" y="272" on="0"/>
        <pt x="564" y="93" on="0"/>
        <pt x="395" y="-12" on="0"/>
      </contour>
      <contour>
        <pt x="308" y="596" on="1"/>
        <pt x="288" y="596" on="0"/>
        <pt x="274" y="587" on="0"/>
        <pt x="272" y="574" on="1"/>
        <pt x="234" y="343" on="1"/>
        <pt x="396" y="343" on="1"/>
        <pt x="400" y="336" on="1"/>
        <pt x="390" y="304" on="1"/>
        <pt x="228" y="304" on="1"/>
        <pt x="201" y="131" on="0"/>
        <pt x="201" y="107" on="1"/>
        <pt x="201" y="65" on="0"/>
        <pt x="250" y="35" on="0"/>
        <pt x="315" y="35" on="1"/>
        <pt x="433" y="35" on="0"/>
        <pt x="577" y="213" on="0"/>
        <pt x="577" y="356" on="1"/>
        <pt x="577" y="471" on="0"/>
        <pt x="439" y="596" on="0"/>
      </contour>
    </TTGlyph>
    <TTGlyph name="Euro" xMin="4" yMin="-9" xMax="538" yMax="507">
      <contour>
        <pt x="316" y="37" on="1"/>
        <pt x="416" y="37" on="0"/>
        <pt x="458" y="157" on="1"/>
        <pt x="504" y="161" on="1"/>
        <pt x="480" y="87" on="0"/>
        <pt x="468" y="30" on="1"/>
        <pt x="462" y="22" on="1"/>
        <pt x="397" y="-9" on="0"/>
        <pt x="212" y="-9" on="0"/>
        <pt x="97" y="87" on="0"/>
        <pt x="87" y="170" on="1"/>
        <pt x="8" y="170" on="1"/>
        <pt x="4" y="177" on="1"/>
        <pt x="12" y="206" on="1"/>
        <pt x="86" y="206" on="1"/>
        <pt x="86" y="243" on="0"/>
        <pt x="96" y="285" on="1"/>
        <pt x="22" y="285" on="1"/>
        <pt x="18" y="292" on="1"/>
        <pt x="26" y="321" on="1"/>
        <pt x="108" y="321" on="1"/>
        <pt x="141" y="406" on="0"/>
        <pt x="290" y="507" on="0"/>
        <pt x="389" y="507" on="1"/>
        <pt x="451" y="507" on="0"/>
        <pt x="535" y="488" on="1"/>
        <pt x="538" y="482" on="1"/>
        <pt x="515" y="422" on="0"/>
        <pt x="501" y="348" on="1"/>
        <pt x="455" y="344" on="1"/>
        <pt x="462" y="377" on="0"/>
        <pt x="462" y="392" on="1"/>
        <pt x="462" y="455" on="0"/>
        <pt x="361" y="455" on="1"/>
        <pt x="298" y="455" on="0"/>
        <pt x="206" y="384" on="0"/>
        <pt x="186" y="321" on="1"/>
        <pt x="191" y="321" on="1"/>
        <pt x="366" y="325" on="1"/>
        <pt x="371" y="316" on="1"/>
        <pt x="364" y="286" on="1"/>
        <pt x="177" y="285" on="1"/>
        <pt x="171" y="255" on="0"/>
        <pt x="171" y="220" on="1"/>
        <pt x="171" y="206" on="1"/>
        <pt x="177" y="206" on="1"/>
        <pt x="352" y="210" on="1"/>
        <pt x="357" y="201" on="1"/>
        <pt x="350" y="171" on="1"/>
        <pt x="175" y="170" on="1"/>
        <pt x="186" y="107" on="0"/>
        <pt x="259" y="37" on="0"/>
      </contour>
    </TTGlyph>
    <TTGlyph name="F" xMin="29" yMin="-12" xMax="530" yMax="648">
      <contour>
        <pt x="213" y="280" on="1"/>
        <pt x="186" y="94" on="0"/>
        <pt x="186" y="66" on="0"/>
        <pt x="198" y="40" on="0"/>
        <pt x="222" y="40" on="1"/>
        <pt x="291" y="43" on="1"/>
        <pt x="292" y="39" on="1"/>
        <pt x="279" y="-4" on="1"/>
        <pt x="188" y="0" on="0"/>
        <pt x="152" y="0" on="1"/>
        <pt x="95" y="0" on="0"/>
        <pt x="29" y="-12" on="1"/>
        <pt x="39" y="31" on="1"/>
        <pt x="85" y="40" on="0"/>
        <pt x="120" y="75" on="0"/>
        <pt x="125" y="117" on="1"/>
        <pt x="180" y="556" on="0"/>
        <pt x="180" y="579" on="0"/>
        <pt x="171" y="596" on="0"/>
        <pt x="149" y="596" on="1"/>
        <pt x="116" y="594" on="1"/>
        <pt x="115" y="597" on="1"/>
        <pt x="126" y="639" on="1"/>
        <pt x="200" y="636" on="0"/>
        <pt x="445" y="636" on="0"/>
        <pt x="528" y="648" on="1"/>
        <pt x="530" y="643" on="1"/>
        <pt x="504" y="568" on="0"/>
        <pt x="487" y="476" on="1"/>
        <pt x="444" y="472" on="1"/>
        <pt x="453" y="514" on="0"/>
        <pt x="453" y="574" on="0"/>
        <pt x="407" y="590" on="0"/>
        <pt x="281" y="590" on="0"/>
        <pt x="260" y="579" on="0"/>
        <pt x="256" y="551" on="1"/>
        <pt x="223" y="335" on="1"/>
        <pt x="322" y="334" on="1"/>
        <pt x="424" y="345" on="1"/>
        <pt x="426" y="341" on="1"/>
        <pt x="407" y="284" on="1"/>
        <pt x="333" y="287" on="0"/>
        <pt x="253" y="287" on="0"/>
      </contour>
    </TTGlyph>
    <TTGlyph name="G" xMin="45" yMin="-12" xMax="593" yMax="648">
      <contour>
        <pt x="374" y="303" on="1"/>
        <pt x="467" y="299" on="1"/>
        <pt x="492" y="299" on="1"/>
        <pt x="575" y="304" on="1"/>
        <pt x="576" y="284" on="1"/>
        <pt x="546" y="264" on="0"/>
        <pt x="522" y="111" on="0"/>
        <pt x="522" y="73" on="1"/>
        <pt x="523" y="43" on="1"/>
        <pt x="517" y="35" on="1"/>
        <pt x="479" y="16" on="0"/>
        <pt x="361" y="-12" on="0"/>
        <pt x="307" y="-12" on="1"/>
        <pt x="189" y="-12" on="0"/>
        <pt x="45" y="132" on="0"/>
        <pt x="45" y="253" on="1"/>
        <pt x="45" y="421" on="0"/>
        <pt x="259" y="648" on="0"/>
        <pt x="417" y="648" on="1"/>
        <pt x="483" y="648" on="0"/>
        <pt x="590" y="625" on="1"/>
        <pt x="593" y="619" on="1"/>
        <pt x="565" y="545" on="0"/>
        <pt x="548" y="455" on="1"/>
        <pt x="505" y="451" on="1"/>
        <pt x="514" y="490" on="0"/>
        <pt x="514" y="510" on="1"/>
        <pt x="514" y="594" on="0"/>
        <pt x="383" y="594" on="1"/>
        <pt x="272" y="594" on="0"/>
        <pt x="132" y="421" on="0"/>
        <pt x="132" y="282" on="1"/>
        <pt x="132" y="168" on="0"/>
        <pt x="234" y="33" on="0"/>
        <pt x="322" y="33" on="1"/>
        <pt x="357" y="33" on="0"/>
        <pt x="425" y="52" on="0"/>
        <pt x="441" y="62" on="1"/>
        <pt x="457" y="72" on="1"/>
        <pt x="473" y="208" on="0"/>
        <pt x="473" y="235" on="0"/>
        <pt x="458" y="252" on="0"/>
        <pt x="425" y="252" on="1"/>
        <pt x="358" y="252" on="1"/>
        <pt x="357" y="256" on="1"/>
        <pt x="371" y="303" on="1"/>
      </contour>
    </TTGlyph>
    <TTGlyph name="Gbreve" xMin="45" yMin="-12" xMax="593" yMax="838">
      <contour>
        <pt x="374" y="303" on="1"/>
        <pt x="467" y="299" on="1"/>
        <pt x="492" y="299" on="1"/>
        <pt x="575" y="304" on="1"/>
        <pt x="576" y="284" on="1"/>
        <pt x="546" y="264" on="0"/>
        <pt x="522" y="111" on="0"/>
        <pt x="522" y="73" on="1"/>
        <pt x="523" y="43" on="1"/>
        <pt x="517" y="35" on="1"/>
        <pt x="479" y="16" on="0"/>
        <pt x="361" y="-12" on="0"/>
        <pt x="307" y="-12" on="1"/>
        <pt x="189" y="-12" on="0"/>
        <pt x="45" y="132" on="0"/>
        <pt x="45" y="253" on="1"/>
        <pt x="45" y="421" on="0"/>
        <pt x="259" y="648" on="0"/>
        <pt x="417" y="648" on="1"/>
        <pt x="483" y="648" on="0"/>
        <pt x="590" y="625" on="1"/>
        <pt x="593" y="619" on="1"/>
        <pt x="565" y="545" on="0"/>
        <pt x="548" y="455" on="1"/>
        <pt x="505" y="451" on="1"/>
        <pt x="514" y="490" on="0"/>
        <pt x="514" y="510" on="1"/>
        <pt x="514" y="594" on="0"/>
        <pt x="383" y="594" on="1"/>
        <pt x="272" y="594" on="0"/>
        <pt x="132" y="421" on="0"/>
        <pt x="132" y="282" on="1"/>
        <pt x="132" y="168" on="0"/>
        <pt x="234" y="33" on="0"/>
        <pt x="322" y="33" on="1"/>
        <pt x="357" y="33" on="0"/>
        <pt x="425" y="52" on="0"/>
        <pt x="441" y="62" on="1"/>
        <pt x="457" y="72" on="1"/>
        <pt x="473" y="208" on="0"/>
        <pt x="473" y="235" on="0"/>
        <pt x="458" y="252" on="0"/>
        <pt x="425" y="252" on="1"/>
        <pt x="358" y="252" on="1"/>
        <pt x="357" y="256" on="1"/>
        <pt x="371" y="303" on="1"/>
      </contour>
      <contour>
        <pt x="318" y="838" on="1"/>
        <pt x="336" y="788" on="0"/>
        <pt x="473" y="788" on="0"/>
        <pt x="503" y="838" on="1"/>
        <pt x="511" y="838" on="1"/>
        <pt x="526" y="828" on="1"/>
        <pt x="509" y="786" on="0"/>
        <pt x="444" y="730" on="0"/>
        <pt x="350" y="730" on="0"/>
        <pt x="299" y="786" on="0"/>
        <pt x="292" y="828" on="1"/>
        <pt x="310" y="838" on="1"/>
      </contour>
    </TTGlyph>
    <TTGlyph name="Gcircumflex" xMin="45" yMin="-12" xMax="593" yMax="877">
      <contour>
        <pt x="374" y="303" on="1"/>
        <pt x="467" y="299" on="1"/>
        <pt x="492" y="299" on="1"/>
        <pt x="575" y="304" on="1"/>
        <pt x="576" y="284" on="1"/>
        <pt x="546" y="264" on="0"/>
        <pt x="522" y="111" on="0"/>
        <pt x="522" y="73" on="1"/>
        <pt x="523" y="43" on="1"/>
        <pt x="517" y="35" on="1"/>
        <pt x="479" y="16" on="0"/>
        <pt x="361" y="-12" on="0"/>
        <pt x="307" y="-12" on="1"/>
        <pt x="189" y="-12" on="0"/>
        <pt x="45" y="132" on="0"/>
        <pt x="45" y="253" on="1"/>
        <pt x="45" y="421" on="0"/>
        <pt x="259" y="648" on="0"/>
        <pt x="417" y="648" on="1"/>
        <pt x="483" y="648" on="0"/>
        <pt x="590" y="625" on="1"/>
        <pt x="593" y="619" on="1"/>
        <pt x="565" y="545" on="0"/>
        <pt x="548" y="455" on="1"/>
        <pt x="505" y="451" on="1"/>
        <pt x="514" y="490" on="0"/>
        <pt x="514" y="510" on="1"/>
        <pt x="514" y="594" on="0"/>
        <pt x="383" y="594" on="1"/>
        <pt x="272" y="594" on="0"/>
        <pt x="132" y="421" on="0"/>
        <pt x="132" y="282" on="1"/>
        <pt x="132" y="168" on="0"/>
        <pt x="234" y="33" on="0"/>
        <pt x="322" y="33" on="1"/>
        <pt x="357" y="33" on="0"/>
        <pt x="425" y="52" on="0"/>
        <pt x="441" y="62" on="1"/>
        <pt x="457" y="72" on="1"/>
        <pt x="473" y="208" on="0"/>
        <pt x="473" y="235" on="0"/>
        <pt x="458" y="252" on="0"/>
        <pt x="425" y="252" on="1"/>
        <pt x="358" y="252" on="1"/>
        <pt x="357" y="256" on="1"/>
        <pt x="371" y="303" on="1"/>
      </contour>
      <contour>
        <pt x="252" y="702" on="1"/>
        <pt x="240" y="724" on="1"/>
        <pt x="392" y="877" on="1"/>
        <pt x="406" y="877" on="1"/>
        <pt x="521" y="724" on="1"/>
        <pt x="504" y="702" on="1"/>
        <pt x="495" y="701" on="1"/>
        <pt x="390" y="798" on="1"/>
        <pt x="261" y="701" on="1"/>
      </contour>
    </TTGlyph>
    <TTGlyph name="Gcommaaccent" xMin="45" yMin="-293" xMax="593" yMax="648">
      <contour>
        <pt x="374" y="303" on="1"/>
        <pt x="467" y="299" on="1"/>
        <pt x="492" y="299" on="1"/>
        <pt x="575" y="304" on="1"/>
        <pt x="576" y="284" on="1"/>
        <pt x="546" y="264" on="0"/>
        <pt x="522" y="111" on="0"/>
        <pt x="522" y="73" on="1"/>
        <pt x="523" y="43" on="1"/>
        <pt x="517" y="35" on="1"/>
        <pt x="479" y="16" on="0"/>
        <pt x="361" y="-12" on="0"/>
        <pt x="307" y="-12" on="1"/>
        <pt x="189" y="-12" on="0"/>
        <pt x="45" y="132" on="0"/>
        <pt x="45" y="253" on="1"/>
        <pt x="45" y="421" on="0"/>
        <pt x="259" y="648" on="0"/>
        <pt x="417" y="648" on="1"/>
        <pt x="483" y="648" on="0"/>
        <pt x="590" y="625" on="1"/>
        <pt x="593" y="619" on="1"/>
        <pt x="565" y="545" on="0"/>
        <pt x="548" y="455" on="1"/>
        <pt x="505" y="451" on="1"/>
        <pt x="514" y="490" on="0"/>
        <pt x="514" y="510" on="1"/>
        <pt x="514" y="594" on="0"/>
        <pt x="383" y="594" on="1"/>
        <pt x="272" y="594" on="0"/>
        <pt x="132" y="421" on="0"/>
        <pt x="132" y="282" on="1"/>
        <pt x="132" y="168" on="0"/>
        <pt x="234" y="33" on="0"/>
        <pt x="322" y="33" on="1"/>
        <pt x="357" y="33" on="0"/>
        <pt x="425" y="52" on="0"/>
        <pt x="441" y="62" on="1"/>
        <pt x="457" y="72" on="1"/>
        <pt x="473" y="208" on="0"/>
        <pt x="473" y="235" on="0"/>
        <pt x="458" y="252" on="0"/>
        <pt x="425" y="252" on="1"/>
        <pt x="358" y="252" on="1"/>
        <pt x="357" y="256" on="1"/>
        <pt x="371" y="303" on="1"/>
      </contour>
      <contour>
        <pt x="233" y="-93" on="1"/>
        <pt x="267" y="-67" on="0"/>
        <pt x="314" y="-67" on="0"/>
        <pt x="345" y="-106" on="0"/>
        <pt x="345" y="-138" on="1"/>
        <pt x="345" y="-187" on="0"/>
        <pt x="269" y="-266" on="0"/>
        <pt x="217" y="-293" on="1"/>
        <pt x="199" y="-278" on="1"/>
        <pt x="199" y="-268" on="1"/>
        <pt x="230" y="-249" on="0"/>
        <pt x="271" y="-194" on="0"/>
        <pt x="271" y="-169" on="1"/>
        <pt x="271" y="-131" on="0"/>
        <pt x="231" y="-107" on="1"/>
      </contour>
    </TTGlyph>
    <TTGlyph name="Gdotaccent" xMin="45" yMin="-12" xMax="593" yMax="829">
      <contour>
        <pt x="374" y="303" on="1"/>
        <pt x="467" y="299" on="1"/>
        <pt x="492" y="299" on="1"/>
        <pt x="575" y="304" on="1"/>
        <pt x="576" y="284" on="1"/>
        <pt x="546" y="264" on="0"/>
        <pt x="522" y="111" on="0"/>
        <pt x="522" y="73" on="1"/>
        <pt x="523" y="43" on="1"/>
        <pt x="517" y="35" on="1"/>
        <pt x="479" y="16" on="0"/>
        <pt x="361" y="-12" on="0"/>
        <pt x="307" y="-12" on="1"/>
        <pt x="189" y="-12" on="0"/>
        <pt x="45" y="132" on="0"/>
        <pt x="45" y="253" on="1"/>
        <pt x="45" y="421" on="0"/>
        <pt x="259" y="648" on="0"/>
        <pt x="417" y="648" on="1"/>
        <pt x="483" y="648" on="0"/>
        <pt x="590" y="625" on="1"/>
        <pt x="593" y="619" on="1"/>
        <pt x="565" y="545" on="0"/>
        <pt x="548" y="455" on="1"/>
        <pt x="505" y="451" on="1"/>
        <pt x="514" y="490" on="0"/>
        <pt x="514" y="510" on="1"/>
        <pt x="514" y="594" on="0"/>
        <pt x="383" y="594" on="1"/>
        <pt x="272" y="594" on="0"/>
        <pt x="132" y="421" on="0"/>
        <pt x="132" y="282" on="1"/>
        <pt x="132" y="168" on="0"/>
        <pt x="234" y="33" on="0"/>
        <pt x="322" y="33" on="1"/>
        <pt x="357" y="33" on="0"/>
        <pt x="425" y="52" on="0"/>
        <pt x="441" y="62" on="1"/>
        <pt x="457" y="72" on="1"/>
        <pt x="473" y="208" on="0"/>
        <pt x="473" y="235" on="0"/>
        <pt x="458" y="252" on="0"/>
        <pt x="425" y="252" on="1"/>
        <pt x="358" y="252" on="1"/>
        <pt x="357" y="256" on="1"/>
        <pt x="371" y="303" on="1"/>
      </contour>
      <contour>
        <pt x="460" y="758" on="0"/>
        <pt x="422" y="719" on="0"/>
        <pt x="374" y="719" on="0"/>
        <pt x="352" y="745" on="0"/>
        <pt x="352" y="790" on="0"/>
        <pt x="390" y="829" on="0"/>
        <pt x="438" y="829" on="0"/>
        <pt x="460" y="803" on="0"/>
      </contour>
    </TTGlyph>
    <TTGlyph name="H" xMin="28" yMin="-12" xMax="711" yMax="646">
      <contour>
        <pt x="224" y="347" on="1"/>
        <pt x="387" y="346" on="1"/>
        <pt x="449" y="346" on="0"/>
        <pt x="532" y="356" on="1"/>
        <pt x="558" y="559" on="0"/>
        <pt x="558" y="579" on="0"/>
        <pt x="548" y="596" on="0"/>
        <pt x="527" y="596" on="1"/>
        <pt x="494" y="594" on="1"/>
        <pt x="492" y="597" on="1"/>
        <pt x="505" y="640" on="1"/>
        <pt x="565" y="636" on="0"/>
        <pt x="590" y="636" on="1"/>
        <pt x="635" y="636" on="0"/>
        <pt x="711" y="646" on="1"/>
        <pt x="703" y="603" on="1"/>
        <pt x="666" y="598" on="0"/>
        <pt x="638" y="575" on="0"/>
        <pt x="633" y="546" on="1"/>
        <pt x="565" y="131" on="0"/>
        <pt x="565" y="60" on="0"/>
        <pt x="581" y="41" on="0"/>
        <pt x="601" y="41" on="1"/>
        <pt x="645" y="44" on="1"/>
        <pt x="646" y="43" on="0"/>
        <pt x="632" y="-3" on="1"/>
        <pt x="555" y="0" on="0"/>
        <pt x="513" y="0" on="1"/>
        <pt x="482" y="0" on="1"/>
        <pt x="449" y="0" on="0"/>
        <pt x="407" y="-2" on="1"/>
        <pt x="420" y="41" on="1"/>
        <pt x="465" y="42" on="0"/>
        <pt x="499" y="83" on="0"/>
        <pt x="507" y="149" on="1"/>
        <pt x="525" y="303" on="1"/>
        <pt x="422" y="304" on="0"/>
        <pt x="377" y="304" on="1"/>
        <pt x="215" y="293" on="1"/>
        <pt x="188" y="100" on="0"/>
        <pt x="188" y="69" on="0"/>
        <pt x="189" y="60" on="1"/>
        <pt x="191" y="42" on="0"/>
        <pt x="223" y="42" on="1"/>
        <pt x="267" y="45" on="1"/>
        <pt x="268" y="41" on="1"/>
        <pt x="254" y="-3" on="1"/>
        <pt x="254" y="0" on="0"/>
        <pt x="133" y="0" on="0"/>
        <pt x="29" y="-8" on="0"/>
        <pt x="28" y="-12" on="1"/>
        <pt x="39" y="31" on="1"/>
        <pt x="92" y="42" on="0"/>
        <pt x="124" y="86" on="0"/>
        <pt x="130" y="151" on="1"/>
        <pt x="180" y="556" on="0"/>
        <pt x="180" y="579" on="0"/>
        <pt x="171" y="596" on="0"/>
        <pt x="149" y="596" on="1"/>
        <pt x="117" y="594" on="1"/>
        <pt x="115" y="597" on="1"/>
        <pt x="127" y="640" on="1"/>
        <pt x="196" y="636" on="0"/>
        <pt x="224" y="636" on="1"/>
        <pt x="269" y="636" on="0"/>
        <pt x="333" y="646" on="1"/>
        <pt x="325" y="603" on="1"/>
        <pt x="282" y="596" on="0"/>
        <pt x="258" y="566" on="0"/>
        <pt x="250" y="511" on="1"/>
      </contour>
    </TTGlyph>
    <TTGlyph name="Hbar" xMin="28" yMin="-12" xMax="725" yMax="646">
      <contour>
        <pt x="267" y="45" on="1"/>
        <pt x="268" y="41" on="1"/>
        <pt x="254" y="-3" on="1"/>
        <pt x="254" y="0" on="0"/>
        <pt x="133" y="0" on="0"/>
        <pt x="29" y="-8" on="0"/>
        <pt x="28" y="-12" on="1"/>
        <pt x="39" y="31" on="1"/>
        <pt x="92" y="42" on="0"/>
        <pt x="124" y="86" on="0"/>
        <pt x="130" y="151" on="1"/>
        <pt x="166" y="448" on="1"/>
        <pt x="69" y="448" on="1"/>
        <pt x="60" y="457" on="1"/>
        <pt x="67" y="496" on="1"/>
        <pt x="113" y="495" on="0"/>
        <pt x="172" y="495" on="1"/>
        <pt x="180" y="555" on="0"/>
        <pt x="180" y="579" on="0"/>
        <pt x="171" y="596" on="0"/>
        <pt x="149" y="596" on="1"/>
        <pt x="117" y="594" on="1"/>
        <pt x="115" y="597" on="1"/>
        <pt x="127" y="640" on="1"/>
        <pt x="196" y="636" on="0"/>
        <pt x="224" y="636" on="1"/>
        <pt x="269" y="636" on="0"/>
        <pt x="333" y="646" on="1"/>
        <pt x="325" y="603" on="1"/>
        <pt x="282" y="596" on="0"/>
        <pt x="258" y="566" on="0"/>
        <pt x="250" y="511" on="1"/>
        <pt x="247" y="495" on="1"/>
        <pt x="414" y="495" on="1"/>
        <pt x="504" y="495" on="0"/>
        <pt x="550" y="496" on="1"/>
        <pt x="558" y="559" on="0"/>
        <pt x="558" y="579" on="0"/>
        <pt x="548" y="596" on="0"/>
        <pt x="527" y="596" on="1"/>
        <pt x="494" y="594" on="1"/>
        <pt x="492" y="597" on="1"/>
        <pt x="505" y="640" on="1"/>
        <pt x="565" y="636" on="0"/>
        <pt x="590" y="636" on="1"/>
        <pt x="635" y="636" on="0"/>
        <pt x="711" y="646" on="1"/>
        <pt x="703" y="603" on="1"/>
        <pt x="666" y="598" on="0"/>
        <pt x="638" y="575" on="0"/>
        <pt x="627" y="514" on="0"/>
        <pt x="625" y="497" on="1"/>
        <pt x="712" y="500" on="1"/>
        <pt x="725" y="487" on="1"/>
        <pt x="721" y="450" on="1"/>
        <pt x="617" y="449" on="1"/>
        <pt x="565" y="127" on="0"/>
        <pt x="565" y="60" on="0"/>
        <pt x="581" y="41" on="0"/>
        <pt x="601" y="41" on="1"/>
        <pt x="645" y="44" on="1"/>
        <pt x="646" y="43" on="0"/>
        <pt x="632" y="-3" on="1"/>
        <pt x="555" y="0" on="0"/>
        <pt x="513" y="0" on="1"/>
        <pt x="482" y="0" on="1"/>
        <pt x="449" y="0" on="0"/>
        <pt x="407" y="-2" on="1"/>
        <pt x="420" y="41" on="1"/>
        <pt x="465" y="42" on="0"/>
        <pt x="499" y="83" on="0"/>
        <pt x="507" y="149" on="1"/>
        <pt x="525" y="303" on="1"/>
        <pt x="422" y="304" on="0"/>
        <pt x="377" y="304" on="1"/>
        <pt x="215" y="293" on="1"/>
        <pt x="188" y="100" on="0"/>
        <pt x="188" y="69" on="0"/>
        <pt x="189" y="60" on="1"/>
        <pt x="191" y="42" on="0"/>
        <pt x="223" y="42" on="1"/>
      </contour>
      <contour>
        <pt x="224" y="347" on="1"/>
        <pt x="387" y="346" on="1"/>
        <pt x="449" y="346" on="0"/>
        <pt x="532" y="356" on="1"/>
        <pt x="544" y="449" on="1"/>
        <pt x="240" y="449" on="1"/>
      </contour>
    </TTGlyph>
    <TTGlyph name="Hcircumflex" xMin="28" yMin="-12" xMax="711" yMax="903">
      <contour>
        <pt x="224" y="347" on="1"/>
        <pt x="387" y="346" on="1"/>
        <pt x="449" y="346" on="0"/>
        <pt x="532" y="356" on="1"/>
        <pt x="558" y="559" on="0"/>
        <pt x="558" y="579" on="0"/>
        <pt x="548" y="596" on="0"/>
        <pt x="527" y="596" on="1"/>
        <pt x="494" y="594" on="1"/>
        <pt x="492" y="597" on="1"/>
        <pt x="505" y="640" on="1"/>
        <pt x="565" y="636" on="0"/>
        <pt x="590" y="636" on="1"/>
        <pt x="635" y="636" on="0"/>
        <pt x="711" y="646" on="1"/>
        <pt x="703" y="603" on="1"/>
        <pt x="666" y="598" on="0"/>
        <pt x="638" y="575" on="0"/>
        <pt x="633" y="546" on="1"/>
        <pt x="565" y="131" on="0"/>
        <pt x="565" y="60" on="0"/>
        <pt x="581" y="41" on="0"/>
        <pt x="601" y="41" on="1"/>
        <pt x="645" y="44" on="1"/>
        <pt x="646" y="43" on="0"/>
        <pt x="632" y="-3" on="1"/>
        <pt x="555" y="0" on="0"/>
        <pt x="513" y="0" on="1"/>
        <pt x="482" y="0" on="1"/>
        <pt x="449" y="0" on="0"/>
        <pt x="407" y="-2" on="1"/>
        <pt x="420" y="41" on="1"/>
        <pt x="465" y="42" on="0"/>
        <pt x="499" y="83" on="0"/>
        <pt x="507" y="149" on="1"/>
        <pt x="525" y="303" on="1"/>
        <pt x="422" y="304" on="0"/>
        <pt x="377" y="304" on="1"/>
        <pt x="215" y="293" on="1"/>
        <pt x="188" y="100" on="0"/>
        <pt x="188" y="69" on="0"/>
        <pt x="189" y="60" on="1"/>
        <pt x="191" y="42" on="0"/>
        <pt x="223" y="42" on="1"/>
        <pt x="267" y="45" on="1"/>
        <pt x="268" y="41" on="1"/>
        <pt x="254" y="-3" on="1"/>
        <pt x="254" y="0" on="0"/>
        <pt x="133" y="0" on="0"/>
        <pt x="29" y="-8" on="0"/>
        <pt x="28" y="-12" on="1"/>
        <pt x="39" y="31" on="1"/>
        <pt x="92" y="42" on="0"/>
        <pt x="124" y="86" on="0"/>
        <pt x="130" y="151" on="1"/>
        <pt x="180" y="556" on="0"/>
        <pt x="180" y="579" on="0"/>
        <pt x="171" y="596" on="0"/>
        <pt x="149" y="596" on="1"/>
        <pt x="117" y="594" on="1"/>
        <pt x="115" y="597" on="1"/>
        <pt x="127" y="640" on="1"/>
        <pt x="196" y="636" on="0"/>
        <pt x="224" y="636" on="1"/>
        <pt x="269" y="636" on="0"/>
        <pt x="333" y="646" on="1"/>
        <pt x="325" y="603" on="1"/>
        <pt x="282" y="596" on="0"/>
        <pt x="258" y="566" on="0"/>
        <pt x="250" y="511" on="1"/>
      </contour>
      <contour>
        <pt x="301" y="728" on="1"/>
        <pt x="289" y="750" on="1"/>
        <pt x="441" y="903" on="1"/>
        <pt x="455" y="903" on="1"/>
        <pt x="570" y="750" on="1"/>
        <pt x="553" y="728" on="1"/>
        <pt x="544" y="727" on="1"/>
        <pt x="439" y="824" on="1"/>
        <pt x="310" y="727" on="1"/>
      </contour>
    </TTGlyph>
    <TTGlyph name="I" xMin="26" yMin="-12" xMax="342" yMax="646">
      <contour>
        <pt x="123" y="640" on="1"/>
        <pt x="214" y="636" on="1"/>
        <pt x="232" y="636" on="1"/>
        <pt x="272" y="636" on="0"/>
        <pt x="342" y="646" on="1"/>
        <pt x="332" y="603" on="1"/>
        <pt x="291" y="598" on="0"/>
        <pt x="260" y="574" on="0"/>
        <pt x="256" y="546" on="1"/>
        <pt x="186" y="140" on="0"/>
        <pt x="186" y="85" on="1"/>
        <pt x="186" y="61" on="0"/>
        <pt x="203" y="42" on="0"/>
        <pt x="223" y="42" on="1"/>
        <pt x="274" y="45" on="1"/>
        <pt x="276" y="41" on="1"/>
        <pt x="262" y="-3" on="1"/>
        <pt x="183" y="0" on="0"/>
        <pt x="150" y="0" on="1"/>
        <pt x="94" y="0" on="0"/>
        <pt x="26" y="-12" on="1"/>
        <pt x="38" y="31" on="1"/>
        <pt x="84" y="40" on="0"/>
        <pt x="121" y="76" on="0"/>
        <pt x="126" y="118" on="1"/>
        <pt x="180" y="555" on="0"/>
        <pt x="180" y="578" on="0"/>
        <pt x="170" y="596" on="0"/>
        <pt x="149" y="596" on="1"/>
        <pt x="108" y="594" on="1"/>
        <pt x="107" y="596" on="0"/>
        <pt x="107" y="597" on="1"/>
        <pt x="119" y="640" on="1"/>
      </contour>
    </TTGlyph>
    <TTGlyph name="IJ" xMin="26" yMin="-143" xMax="663" yMax="646">
      <contour>
        <pt x="123" y="640" on="1"/>
        <pt x="214" y="636" on="1"/>
        <pt x="232" y="636" on="1"/>
        <pt x="272" y="636" on="0"/>
        <pt x="342" y="646" on="1"/>
        <pt x="332" y="603" on="1"/>
        <pt x="291" y="598" on="0"/>
        <pt x="260" y="574" on="0"/>
        <pt x="256" y="546" on="1"/>
        <pt x="186" y="140" on="0"/>
        <pt x="186" y="85" on="1"/>
        <pt x="186" y="61" on="0"/>
        <pt x="203" y="42" on="0"/>
        <pt x="223" y="42" on="1"/>
        <pt x="274" y="45" on="1"/>
        <pt x="276" y="41" on="1"/>
        <pt x="262" y="-3" on="1"/>
        <pt x="183" y="0" on="0"/>
        <pt x="150" y="0" on="1"/>
        <pt x="94" y="0" on="0"/>
        <pt x="26" y="-12" on="1"/>
        <pt x="38" y="31" on="1"/>
        <pt x="84" y="40" on="0"/>
        <pt x="121" y="76" on="0"/>
        <pt x="126" y="118" on="1"/>
        <pt x="180" y="555" on="0"/>
        <pt x="180" y="578" on="0"/>
        <pt x="170" y="596" on="0"/>
        <pt x="149" y="596" on="1"/>
        <pt x="108" y="594" on="1"/>
        <pt x="107" y="596" on="0"/>
        <pt x="107" y="597" on="1"/>
        <pt x="119" y="640" on="1"/>
      </contour>
      <contour>
        <pt x="461" y="114" on="1"/>
        <pt x="517" y="555" on="0"/>
        <pt x="517" y="578" on="0"/>
        <pt x="507" y="595" on="0"/>
        <pt x="486" y="595" on="1"/>
        <pt x="439" y="591" on="1"/>
        <pt x="439" y="594" on="1"/>
        <pt x="450" y="636" on="1"/>
        <pt x="553" y="636" on="1"/>
        <pt x="663" y="645" on="1"/>
        <pt x="655" y="603" on="1"/>
        <pt x="620" y="598" on="0"/>
        <pt x="597" y="577" on="0"/>
        <pt x="592" y="546" on="1"/>
        <pt x="561" y="362" on="0"/>
        <pt x="527" y="118" on="1"/>
        <pt x="514" y="16" on="0"/>
        <pt x="427" y="-108" on="0"/>
        <pt x="343" y="-143" on="1"/>
        <pt x="331" y="-111" on="1"/>
        <pt x="334" y="-103" on="1"/>
        <pt x="397" y="-67" on="0"/>
        <pt x="450" y="25" on="0"/>
      </contour>
    </TTGlyph>
    <TTGlyph name="Iacute" xMin="26" yMin="-12" xMax="391" yMax="841">
      <contour>
        <pt x="123" y="640" on="1"/>
        <pt x="214" y="636" on="1"/>
        <pt x="232" y="636" on="1"/>
        <pt x="272" y="636" on="0"/>
        <pt x="342" y="646" on="1"/>
        <pt x="332" y="603" on="1"/>
        <pt x="291" y="598" on="0"/>
        <pt x="260" y="574" on="0"/>
        <pt x="256" y="546" on="1"/>
        <pt x="186" y="140" on="0"/>
        <pt x="186" y="85" on="1"/>
        <pt x="186" y="61" on="0"/>
        <pt x="203" y="42" on="0"/>
        <pt x="223" y="42" on="1"/>
        <pt x="274" y="45" on="1"/>
        <pt x="276" y="41" on="1"/>
        <pt x="262" y="-3" on="1"/>
        <pt x="183" y="0" on="0"/>
        <pt x="150" y="0" on="1"/>
        <pt x="94" y="0" on="0"/>
        <pt x="26" y="-12" on="1"/>
        <pt x="38" y="31" on="1"/>
        <pt x="84" y="40" on="0"/>
        <pt x="121" y="76" on="0"/>
        <pt x="126" y="118" on="1"/>
        <pt x="180" y="555" on="0"/>
        <pt x="180" y="578" on="0"/>
        <pt x="170" y="596" on="0"/>
        <pt x="149" y="596" on="1"/>
        <pt x="108" y="594" on="1"/>
        <pt x="107" y="596" on="0"/>
        <pt x="107" y="597" on="1"/>
        <pt x="119" y="640" on="1"/>
      </contour>
      <contour>
        <pt x="391" y="787" on="1"/>
        <pt x="387" y="777" on="1"/>
        <pt x="286" y="743" on="0"/>
        <pt x="181" y="703" on="1"/>
        <pt x="173" y="708" on="1"/>
        <pt x="167" y="732" on="1"/>
        <pt x="366" y="841" on="1"/>
        <pt x="375" y="835" on="1"/>
      </contour>
    </TTGlyph>
    <TTGlyph name="Ibreve" xMin="26" yMin="-12" xMax="359" yMax="828">
      <contour>
        <pt x="123" y="640" on="1"/>
        <pt x="214" y="636" on="1"/>
        <pt x="232" y="636" on="1"/>
        <pt x="272" y="636" on="0"/>
        <pt x="342" y="646" on="1"/>
        <pt x="332" y="603" on="1"/>
        <pt x="291" y="598" on="0"/>
        <pt x="260" y="574" on="0"/>
        <pt x="256" y="546" on="1"/>
        <pt x="186" y="140" on="0"/>
        <pt x="186" y="85" on="1"/>
        <pt x="186" y="61" on="0"/>
        <pt x="203" y="42" on="0"/>
        <pt x="223" y="42" on="1"/>
        <pt x="274" y="45" on="1"/>
        <pt x="276" y="41" on="1"/>
        <pt x="262" y="-3" on="1"/>
        <pt x="183" y="0" on="0"/>
        <pt x="150" y="0" on="1"/>
        <pt x="94" y="0" on="0"/>
        <pt x="26" y="-12" on="1"/>
        <pt x="38" y="31" on="1"/>
        <pt x="84" y="40" on="0"/>
        <pt x="121" y="76" on="0"/>
        <pt x="126" y="118" on="1"/>
        <pt x="180" y="555" on="0"/>
        <pt x="180" y="578" on="0"/>
        <pt x="170" y="596" on="0"/>
        <pt x="149" y="596" on="1"/>
        <pt x="108" y="594" on="1"/>
        <pt x="107" y="596" on="0"/>
        <pt x="107" y="597" on="1"/>
        <pt x="119" y="640" on="1"/>
      </contour>
      <contour>
        <pt x="151" y="828" on="1"/>
        <pt x="169" y="778" on="0"/>
        <pt x="306" y="778" on="0"/>
        <pt x="336" y="828" on="1"/>
        <pt x="344" y="828" on="1"/>
        <pt x="359" y="818" on="1"/>
        <pt x="342" y="776" on="0"/>
        <pt x="276" y="720" on="0"/>
        <pt x="184" y="720" on="0"/>
        <pt x="132" y="776" on="0"/>
        <pt x="125" y="818" on="1"/>
        <pt x="143" y="828" on="1"/>
      </contour>
    </TTGlyph>
    <TTGlyph name="Icircumflex" xMin="26" yMin="-12" xMax="380" yMax="846">
      <contour>
        <pt x="123" y="640" on="1"/>
        <pt x="214" y="636" on="1"/>
        <pt x="232" y="636" on="1"/>
        <pt x="272" y="636" on="0"/>
        <pt x="342" y="646" on="1"/>
        <pt x="332" y="603" on="1"/>
        <pt x="291" y="598" on="0"/>
        <pt x="260" y="574" on="0"/>
        <pt x="256" y="546" on="1"/>
        <pt x="186" y="140" on="0"/>
        <pt x="186" y="85" on="1"/>
        <pt x="186" y="61" on="0"/>
        <pt x="203" y="42" on="0"/>
        <pt x="223" y="42" on="1"/>
        <pt x="274" y="45" on="1"/>
        <pt x="276" y="41" on="1"/>
        <pt x="262" y="-3" on="1"/>
        <pt x="183" y="0" on="0"/>
        <pt x="150" y="0" on="1"/>
        <pt x="94" y="0" on="0"/>
        <pt x="26" y="-12" on="1"/>
        <pt x="38" y="31" on="1"/>
        <pt x="84" y="40" on="0"/>
        <pt x="121" y="76" on="0"/>
        <pt x="126" y="118" on="1"/>
        <pt x="180" y="555" on="0"/>
        <pt x="180" y="578" on="0"/>
        <pt x="170" y="596" on="0"/>
        <pt x="149" y="596" on="1"/>
        <pt x="108" y="594" on="1"/>
        <pt x="107" y="596" on="0"/>
        <pt x="107" y="597" on="1"/>
        <pt x="119" y="640" on="1"/>
      </contour>
      <contour>
        <pt x="110" y="713" on="1"/>
        <pt x="99" y="735" on="1"/>
        <pt x="246" y="846" on="1"/>
        <pt x="260" y="846" on="1"/>
        <pt x="380" y="735" on="1"/>
        <pt x="363" y="713" on="1"/>
        <pt x="354" y="712" on="1"/>
        <pt x="244" y="777" on="1"/>
        <pt x="119" y="712" on="1"/>
      </contour>
    </TTGlyph>
    <TTGlyph name="Idieresis" xMin="26" yMin="-12" xMax="369" yMax="818">
      <contour>
        <pt x="123" y="640" on="1"/>
        <pt x="214" y="636" on="1"/>
        <pt x="232" y="636" on="1"/>
        <pt x="272" y="636" on="0"/>
        <pt x="342" y="646" on="1"/>
        <pt x="332" y="603" on="1"/>
        <pt x="291" y="598" on="0"/>
        <pt x="260" y="574" on="0"/>
        <pt x="256" y="546" on="1"/>
        <pt x="186" y="140" on="0"/>
        <pt x="186" y="85" on="1"/>
        <pt x="186" y="61" on="0"/>
        <pt x="203" y="42" on="0"/>
        <pt x="223" y="42" on="1"/>
        <pt x="274" y="45" on="1"/>
        <pt x="276" y="41" on="1"/>
        <pt x="262" y="-3" on="1"/>
        <pt x="183" y="0" on="0"/>
        <pt x="150" y="0" on="1"/>
        <pt x="94" y="0" on="0"/>
        <pt x="26" y="-12" on="1"/>
        <pt x="38" y="31" on="1"/>
        <pt x="84" y="40" on="0"/>
        <pt x="121" y="76" on="0"/>
        <pt x="126" y="118" on="1"/>
        <pt x="180" y="555" on="0"/>
        <pt x="180" y="578" on="0"/>
        <pt x="170" y="596" on="0"/>
        <pt x="149" y="596" on="1"/>
        <pt x="108" y="594" on="1"/>
        <pt x="107" y="596" on="0"/>
        <pt x="107" y="597" on="1"/>
        <pt x="119" y="640" on="1"/>
      </contour>
      <contour>
        <pt x="369" y="758" on="0"/>
        <pt x="336" y="725" on="0"/>
        <pt x="316" y="725" on="1"/>
        <pt x="278" y="725" on="0"/>
        <pt x="278" y="763" on="1"/>
        <pt x="278" y="785" on="0"/>
        <pt x="311" y="818" on="0"/>
        <pt x="350" y="818" on="0"/>
        <pt x="369" y="796" on="0"/>
      </contour>
      <contour>
        <pt x="209" y="758" on="0"/>
        <pt x="176" y="725" on="0"/>
        <pt x="156" y="725" on="1"/>
        <pt x="118" y="725" on="0"/>
        <pt x="118" y="763" on="1"/>
        <pt x="118" y="785" on="0"/>
        <pt x="150" y="818" on="0"/>
        <pt x="190" y="818" on="0"/>
        <pt x="209" y="796" on="0"/>
      </contour>
    </TTGlyph>
    <TTGlyph name="Idotaccent" xMin="26" yMin="-12" xMax="342" yMax="829">
      <contour>
        <pt x="123" y="640" on="1"/>
        <pt x="214" y="636" on="1"/>
        <pt x="232" y="636" on="1"/>
        <pt x="272" y="636" on="0"/>
        <pt x="342" y="646" on="1"/>
        <pt x="332" y="603" on="1"/>
        <pt x="291" y="598" on="0"/>
        <pt x="260" y="574" on="0"/>
        <pt x="256" y="546" on="1"/>
        <pt x="186" y="140" on="0"/>
        <pt x="186" y="85" on="1"/>
        <pt x="186" y="61" on="0"/>
        <pt x="203" y="42" on="0"/>
        <pt x="223" y="42" on="1"/>
        <pt x="274" y="45" on="1"/>
        <pt x="276" y="41" on="1"/>
        <pt x="262" y="-3" on="1"/>
        <pt x="183" y="0" on="0"/>
        <pt x="150" y="0" on="1"/>
        <pt x="94" y="0" on="0"/>
        <pt x="26" y="-12" on="1"/>
        <pt x="38" y="31" on="1"/>
        <pt x="84" y="40" on="0"/>
        <pt x="121" y="76" on="0"/>
        <pt x="126" y="118" on="1"/>
        <pt x="180" y="555" on="0"/>
        <pt x="180" y="578" on="0"/>
        <pt x="170" y="596" on="0"/>
        <pt x="149" y="596" on="1"/>
        <pt x="108" y="594" on="1"/>
        <pt x="107" y="596" on="0"/>
        <pt x="107" y="597" on="1"/>
        <pt x="119" y="640" on="1"/>
      </contour>
      <contour>
        <pt x="298" y="758" on="0"/>
        <pt x="260" y="719" on="0"/>
        <pt x="212" y="719" on="0"/>
        <pt x="190" y="745" on="0"/>
        <pt x="190" y="790" on="0"/>
        <pt x="228" y="829" on="0"/>
        <pt x="276" y="829" on="0"/>
        <pt x="298" y="803" on="0"/>
      </contour>
    </TTGlyph>
    <TTGlyph name="Igrave" xMin="26" yMin="-12" xMax="342" yMax="841">
      <contour>
        <pt x="123" y="640" on="1"/>
        <pt x="214" y="636" on="1"/>
        <pt x="232" y="636" on="1"/>
        <pt x="272" y="636" on="0"/>
        <pt x="342" y="646" on="1"/>
        <pt x="332" y="603" on="1"/>
        <pt x="291" y="598" on="0"/>
        <pt x="260" y="574" on="0"/>
        <pt x="256" y="546" on="1"/>
        <pt x="186" y="140" on="0"/>
        <pt x="186" y="85" on="1"/>
        <pt x="186" y="61" on="0"/>
        <pt x="203" y="42" on="0"/>
        <pt x="223" y="42" on="1"/>
        <pt x="274" y="45" on="1"/>
        <pt x="276" y="41" on="1"/>
        <pt x="262" y="-3" on="1"/>
        <pt x="183" y="0" on="0"/>
        <pt x="150" y="0" on="1"/>
        <pt x="94" y="0" on="0"/>
        <pt x="26" y="-12" on="1"/>
        <pt x="38" y="31" on="1"/>
        <pt x="84" y="40" on="0"/>
        <pt x="121" y="76" on="0"/>
        <pt x="126" y="118" on="1"/>
        <pt x="180" y="555" on="0"/>
        <pt x="180" y="578" on="0"/>
        <pt x="170" y="596" on="0"/>
        <pt x="149" y="596" on="1"/>
        <pt x="108" y="594" on="1"/>
        <pt x="107" y="596" on="0"/>
        <pt x="107" y="597" on="1"/>
        <pt x="119" y="640" on="1"/>
      </contour>
      <contour>
        <pt x="98" y="777" on="1"/>
        <pt x="94" y="787" on="1"/>
        <pt x="110" y="835" on="1"/>
        <pt x="119" y="841" on="1"/>
        <pt x="224" y="781" on="0"/>
        <pt x="318" y="732" on="1"/>
        <pt x="312" y="708" on="1"/>
        <pt x="304" y="703" on="1"/>
      </contour>
    </TTGlyph>
    <TTGlyph name="Imacron" xMin="26" yMin="-12" xMax="387" yMax="788">
      <contour>
        <pt x="123" y="640" on="1"/>
        <pt x="214" y="636" on="1"/>
        <pt x="232" y="636" on="1"/>
        <pt x="272" y="636" on="0"/>
        <pt x="342" y="646" on="1"/>
        <pt x="332" y="603" on="1"/>
        <pt x="291" y="598" on="0"/>
        <pt x="260" y="574" on="0"/>
        <pt x="256" y="546" on="1"/>
        <pt x="186" y="140" on="0"/>
        <pt x="186" y="85" on="1"/>
        <pt x="186" y="61" on="0"/>
        <pt x="203" y="42" on="0"/>
        <pt x="223" y="42" on="1"/>
        <pt x="274" y="45" on="1"/>
        <pt x="276" y="41" on="1"/>
        <pt x="262" y="-3" on="1"/>
        <pt x="183" y="0" on="0"/>
        <pt x="150" y="0" on="1"/>
        <pt x="94" y="0" on="0"/>
        <pt x="26" y="-12" on="1"/>
        <pt x="38" y="31" on="1"/>
        <pt x="84" y="40" on="0"/>
        <pt x="121" y="76" on="0"/>
        <pt x="126" y="118" on="1"/>
        <pt x="180" y="555" on="0"/>
        <pt x="180" y="578" on="0"/>
        <pt x="170" y="596" on="0"/>
        <pt x="149" y="596" on="1"/>
        <pt x="108" y="594" on="1"/>
        <pt x="107" y="596" on="0"/>
        <pt x="107" y="597" on="1"/>
        <pt x="119" y="640" on="1"/>
      </contour>
      <contour>
        <pt x="382" y="788" on="1"/>
        <pt x="387" y="778" on="1"/>
        <pt x="374" y="731" on="1"/>
        <pt x="99" y="729" on="1"/>
        <pt x="94" y="738" on="1"/>
        <pt x="110" y="783" on="1"/>
        <pt x="201" y="782" on="0"/>
        <pt x="257" y="782" on="1"/>
      </contour>
    </TTGlyph>
    <TTGlyph name="Iogonek" xMin="26" yMin="-242" xMax="342" yMax="646">
      <contour>
        <pt x="123" y="640" on="1"/>
        <pt x="214" y="636" on="1"/>
        <pt x="232" y="636" on="1"/>
        <pt x="272" y="636" on="0"/>
        <pt x="342" y="646" on="1"/>
        <pt x="332" y="603" on="1"/>
        <pt x="291" y="598" on="0"/>
        <pt x="260" y="574" on="0"/>
        <pt x="256" y="546" on="1"/>
        <pt x="186" y="140" on="0"/>
        <pt x="186" y="85" on="1"/>
        <pt x="186" y="61" on="0"/>
        <pt x="203" y="42" on="0"/>
        <pt x="223" y="42" on="1"/>
        <pt x="274" y="45" on="1"/>
        <pt x="276" y="41" on="1"/>
        <pt x="262" y="-3" on="1"/>
        <pt x="242" y="-2" on="0"/>
        <pt x="219" y="-1" on="1"/>
        <pt x="169" y="-49" on="0"/>
        <pt x="132" y="-105" on="0"/>
        <pt x="132" y="-156" on="0"/>
        <pt x="159" y="-183" on="0"/>
        <pt x="178" y="-183" on="1"/>
        <pt x="216" y="-183" on="0"/>
        <pt x="258" y="-160" on="1"/>
        <pt x="268" y="-179" on="1"/>
        <pt x="215" y="-225" on="0"/>
        <pt x="164" y="-242" on="1"/>
        <pt x="120" y="-242" on="0"/>
        <pt x="68" y="-198" on="0"/>
        <pt x="68" y="-123" on="0"/>
        <pt x="123" y="-50" on="0"/>
        <pt x="177" y="0" on="1"/>
        <pt x="137" y="0" on="1"/>
        <pt x="94" y="0" on="0"/>
        <pt x="26" y="-12" on="1"/>
        <pt x="38" y="31" on="1"/>
        <pt x="84" y="40" on="0"/>
        <pt x="121" y="76" on="0"/>
        <pt x="126" y="118" on="1"/>
        <pt x="180" y="555" on="0"/>
        <pt x="180" y="578" on="0"/>
        <pt x="170" y="596" on="0"/>
        <pt x="149" y="596" on="1"/>
        <pt x="108" y="594" on="1"/>
        <pt x="107" y="596" on="0"/>
        <pt x="107" y="597" on="1"/>
        <pt x="119" y="640" on="1"/>
      </contour>
    </TTGlyph>
    <TTGlyph name="Itilde" xMin="26" yMin="-12" xMax="407" yMax="867">
      <contour>
        <pt x="123" y="640" on="1"/>
        <pt x="214" y="636" on="1"/>
        <pt x="232" y="636" on="1"/>
        <pt x="272" y="636" on="0"/>
        <pt x="342" y="646" on="1"/>
        <pt x="332" y="603" on="1"/>
        <pt x="291" y="598" on="0"/>
        <pt x="260" y="574" on="0"/>
        <pt x="256" y="546" on="1"/>
        <pt x="186" y="140" on="0"/>
        <pt x="186" y="85" on="1"/>
        <pt x="186" y="61" on="0"/>
        <pt x="203" y="42" on="0"/>
        <pt x="223" y="42" on="1"/>
        <pt x="274" y="45" on="1"/>
        <pt x="276" y="41" on="1"/>
        <pt x="262" y="-3" on="1"/>
        <pt x="183" y="0" on="0"/>
        <pt x="150" y="0" on="1"/>
        <pt x="94" y="0" on="0"/>
        <pt x="26" y="-12" on="1"/>
        <pt x="38" y="31" on="1"/>
        <pt x="84" y="40" on="0"/>
        <pt x="121" y="76" on="0"/>
        <pt x="126" y="118" on="1"/>
        <pt x="180" y="555" on="0"/>
        <pt x="180" y="578" on="0"/>
        <pt x="170" y="596" on="0"/>
        <pt x="149" y="596" on="1"/>
        <pt x="108" y="594" on="1"/>
        <pt x="107" y="596" on="0"/>
        <pt x="107" y="597" on="1"/>
        <pt x="119" y="640" on="1"/>
      </contour>
      <contour>
        <pt x="194" y="845" on="0"/>
        <pt x="301" y="812" on="0"/>
        <pt x="312" y="812" on="1"/>
        <pt x="332" y="812" on="0"/>
        <pt x="369" y="854" on="1"/>
        <pt x="381" y="867" on="1"/>
        <pt x="387" y="867" on="1"/>
        <pt x="407" y="846" on="1"/>
        <pt x="406" y="841" on="1"/>
        <pt x="322" y="752" on="1"/>
        <pt x="306" y="748" on="1"/>
        <pt x="289" y="748" on="0"/>
        <pt x="183" y="781" on="0"/>
        <pt x="160" y="781" on="0"/>
        <pt x="126" y="754" on="0"/>
        <pt x="103" y="726" on="1"/>
        <pt x="96" y="726" on="1"/>
        <pt x="77" y="747" on="1"/>
        <pt x="78" y="752" on="1"/>
        <pt x="162" y="841" on="1"/>
        <pt x="177" y="845" on="1"/>
      </contour>
    </TTGlyph>
    <TTGlyph name="J" xMin="-16" yMin="-143" xMax="316" yMax="645">
      <contour>
        <pt x="114" y="114" on="1"/>
        <pt x="170" y="555" on="0"/>
        <pt x="170" y="578" on="0"/>
        <pt x="160" y="595" on="0"/>
        <pt x="139" y="595" on="1"/>
        <pt x="92" y="591" on="1"/>
        <pt x="92" y="594" on="1"/>
        <pt x="103" y="636" on="1"/>
        <pt x="206" y="636" on="1"/>
        <pt x="316" y="645" on="1"/>
        <pt x="308" y="603" on="1"/>
        <pt x="273" y="598" on="0"/>
        <pt x="250" y="577" on="0"/>
        <pt x="245" y="546" on="1"/>
        <pt x="214" y="362" on="0"/>
        <pt x="180" y="118" on="1"/>
        <pt x="167" y="16" on="0"/>
        <pt x="80" y="-108" on="0"/>
        <pt x="-4" y="-143" on="1"/>
        <pt x="-16" y="-111" on="1"/>
        <pt x="-13" y="-103" on="1"/>
        <pt x="50" y="-67" on="0"/>
        <pt x="103" y="25" on="0"/>
      </contour>
    </TTGlyph>
    <TTGlyph name="Jcircumflex" xMin="-16" yMin="-143" xMax="372" yMax="877">
      <contour>
        <pt x="114" y="114" on="1"/>
        <pt x="170" y="555" on="0"/>
        <pt x="170" y="578" on="0"/>
        <pt x="160" y="595" on="0"/>
        <pt x="139" y="595" on="1"/>
        <pt x="92" y="591" on="1"/>
        <pt x="92" y="594" on="1"/>
        <pt x="103" y="636" on="1"/>
        <pt x="206" y="636" on="1"/>
        <pt x="316" y="645" on="1"/>
        <pt x="308" y="603" on="1"/>
        <pt x="273" y="598" on="0"/>
        <pt x="250" y="577" on="0"/>
        <pt x="245" y="546" on="1"/>
        <pt x="214" y="362" on="0"/>
        <pt x="180" y="118" on="1"/>
        <pt x="167" y="16" on="0"/>
        <pt x="80" y="-108" on="0"/>
        <pt x="-4" y="-143" on="1"/>
        <pt x="-16" y="-111" on="1"/>
        <pt x="-13" y="-103" on="1"/>
        <pt x="50" y="-67" on="0"/>
        <pt x="103" y="25" on="0"/>
      </contour>
      <contour>
        <pt x="103" y="702" on="1"/>
        <pt x="91" y="724" on="1"/>
        <pt x="243" y="877" on="1"/>
        <pt x="257" y="877" on="1"/>
        <pt x="372" y="724" on="1"/>
        <pt x="355" y="702" on="1"/>
        <pt x="346" y="701" on="1"/>
        <pt x="241" y="798" on="1"/>
        <pt x="112" y="701" on="1"/>
      </contour>
    </TTGlyph>
    <TTGlyph name="K" xMin="28" yMin="-14" xMax="624" yMax="646">
      <contour>
        <pt x="126" y="118" on="1"/>
        <pt x="180" y="556" on="0"/>
        <pt x="180" y="579" on="0"/>
        <pt x="171" y="596" on="0"/>
        <pt x="149" y="596" on="1"/>
        <pt x="117" y="594" on="1"/>
        <pt x="115" y="597" on="1"/>
        <pt x="127" y="640" on="1"/>
        <pt x="195" y="636" on="0"/>
        <pt x="222" y="636" on="1"/>
        <pt x="269" y="636" on="0"/>
        <pt x="333" y="646" on="1"/>
        <pt x="325" y="603" on="1"/>
        <pt x="288" y="598" on="0"/>
        <pt x="258" y="572" on="0"/>
        <pt x="253" y="543" on="1"/>
        <pt x="188" y="109" on="1"/>
        <pt x="185" y="92" on="0"/>
        <pt x="185" y="64" on="0"/>
        <pt x="197" y="42" on="0"/>
        <pt x="223" y="42" on="1"/>
        <pt x="267" y="45" on="1"/>
        <pt x="269" y="41" on="1"/>
        <pt x="254" y="-3" on="1"/>
        <pt x="180" y="0" on="0"/>
        <pt x="137" y="0" on="1"/>
        <pt x="28" y="-1" on="1"/>
        <pt x="43" y="42" on="1"/>
        <pt x="89" y="47" on="0"/>
        <pt x="121" y="75" on="0"/>
      </contour>
      <contour>
        <pt x="478" y="571" on="1"/>
        <pt x="478" y="595" on="0"/>
        <pt x="421" y="599" on="1"/>
        <pt x="419" y="603" on="1"/>
        <pt x="431" y="644" on="1"/>
        <pt x="499" y="636" on="0"/>
        <pt x="535" y="636" on="1"/>
        <pt x="622" y="640" on="1"/>
        <pt x="624" y="634" on="1"/>
        <pt x="614" y="595" on="1"/>
        <pt x="588" y="590" on="0"/>
        <pt x="542" y="559" on="0"/>
        <pt x="493" y="513" on="1"/>
        <pt x="315" y="339" on="1"/>
        <pt x="451" y="118" on="1"/>
        <pt x="481" y="71" on="0"/>
        <pt x="531" y="33" on="0"/>
        <pt x="564" y="33" on="1"/>
        <pt x="567" y="30" on="1"/>
        <pt x="558" y="-2" on="1"/>
        <pt x="489" y="-14" on="0"/>
        <pt x="479" y="-14" on="1"/>
        <pt x="432" y="-14" on="0"/>
        <pt x="382" y="72" on="1"/>
        <pt x="242" y="315" on="1"/>
        <pt x="244" y="328" on="1"/>
        <pt x="442" y="517" on="1"/>
        <pt x="478" y="552" on="0"/>
      </contour>
    </TTGlyph>
    <TTGlyph name="Kcommaaccent" xMin="28" yMin="-293" xMax="624" yMax="646">
      <contour>
        <pt x="126" y="118" on="1"/>
        <pt x="180" y="556" on="0"/>
        <pt x="180" y="579" on="0"/>
        <pt x="171" y="596" on="0"/>
        <pt x="149" y="596" on="1"/>
        <pt x="117" y="594" on="1"/>
        <pt x="115" y="597" on="1"/>
        <pt x="127" y="640" on="1"/>
        <pt x="195" y="636" on="0"/>
        <pt x="222" y="636" on="1"/>
        <pt x="269" y="636" on="0"/>
        <pt x="333" y="646" on="1"/>
        <pt x="325" y="603" on="1"/>
        <pt x="288" y="598" on="0"/>
        <pt x="258" y="572" on="0"/>
        <pt x="253" y="543" on="1"/>
        <pt x="188" y="109" on="1"/>
        <pt x="185" y="92" on="0"/>
        <pt x="185" y="64" on="0"/>
        <pt x="197" y="42" on="0"/>
        <pt x="223" y="42" on="1"/>
        <pt x="267" y="45" on="1"/>
        <pt x="269" y="41" on="1"/>
        <pt x="254" y="-3" on="1"/>
        <pt x="180" y="0" on="0"/>
        <pt x="137" y="0" on="1"/>
        <pt x="28" y="-1" on="1"/>
        <pt x="43" y="42" on="1"/>
        <pt x="89" y="47" on="0"/>
        <pt x="121" y="75" on="0"/>
      </contour>
      <contour>
        <pt x="478" y="571" on="1"/>
        <pt x="478" y="595" on="0"/>
        <pt x="421" y="599" on="1"/>
        <pt x="419" y="603" on="1"/>
        <pt x="431" y="644" on="1"/>
        <pt x="499" y="636" on="0"/>
        <pt x="535" y="636" on="1"/>
        <pt x="622" y="640" on="1"/>
        <pt x="624" y="634" on="1"/>
        <pt x="614" y="595" on="1"/>
        <pt x="588" y="590" on="0"/>
        <pt x="542" y="559" on="0"/>
        <pt x="493" y="513" on="1"/>
        <pt x="315" y="339" on="1"/>
        <pt x="451" y="118" on="1"/>
        <pt x="481" y="71" on="0"/>
        <pt x="531" y="33" on="0"/>
        <pt x="564" y="33" on="1"/>
        <pt x="567" y="30" on="1"/>
        <pt x="558" y="-2" on="1"/>
        <pt x="489" y="-14" on="0"/>
        <pt x="479" y="-14" on="1"/>
        <pt x="432" y="-14" on="0"/>
        <pt x="382" y="72" on="1"/>
        <pt x="242" y="315" on="1"/>
        <pt x="244" y="328" on="1"/>
        <pt x="442" y="517" on="1"/>
        <pt x="478" y="552" on="0"/>
      </contour>
      <contour>
        <pt x="222" y="-93" on="1"/>
        <pt x="256" y="-67" on="0"/>
        <pt x="303" y="-67" on="0"/>
        <pt x="334" y="-106" on="0"/>
        <pt x="334" y="-138" on="1"/>
        <pt x="334" y="-187" on="0"/>
        <pt x="258" y="-266" on="0"/>
        <pt x="206" y="-293" on="1"/>
        <pt x="188" y="-278" on="1"/>
        <pt x="188" y="-268" on="1"/>
        <pt x="219" y="-249" on="0"/>
        <pt x="260" y="-194" on="0"/>
        <pt x="260" y="-169" on="1"/>
        <pt x="260" y="-131" on="0"/>
        <pt x="220" y="-107" on="1"/>
      </contour>
    </TTGlyph>
    <TTGlyph name="L" xMin="38" yMin="-10" xMax="478" yMax="646">
      <contour>
        <pt x="477" y="186" on="1"/>
        <pt x="478" y="182" on="1"/>
        <pt x="450" y="93" on="0"/>
        <pt x="427" y="-4" on="1"/>
        <pt x="422" y="-9" on="1"/>
        <pt x="256" y="0" on="0"/>
        <pt x="196" y="0" on="1"/>
        <pt x="102" y="0" on="0"/>
        <pt x="38" y="-10" on="1"/>
        <pt x="50" y="33" on="1"/>
        <pt x="88" y="39" on="0"/>
        <pt x="120" y="75" on="0"/>
        <pt x="125" y="117" on="1"/>
        <pt x="180" y="555" on="0"/>
        <pt x="180" y="578" on="0"/>
        <pt x="170" y="596" on="0"/>
        <pt x="149" y="596" on="1"/>
        <pt x="116" y="594" on="1"/>
        <pt x="115" y="596" on="0"/>
        <pt x="115" y="597" on="1"/>
        <pt x="127" y="640" on="1"/>
        <pt x="199" y="636" on="0"/>
        <pt x="225" y="636" on="1"/>
        <pt x="269" y="636" on="0"/>
        <pt x="333" y="646" on="1"/>
        <pt x="325" y="604" on="1"/>
        <pt x="283" y="597" on="0"/>
        <pt x="262" y="570" on="0"/>
        <pt x="234" y="422" on="0"/>
        <pt x="188" y="115" on="0"/>
        <pt x="188" y="60" on="0"/>
        <pt x="217" y="41" on="0"/>
        <pt x="264" y="41" on="1"/>
        <pt x="349" y="41" on="0"/>
        <pt x="409" y="90" on="0"/>
        <pt x="435" y="182" on="1"/>
      </contour>
    </TTGlyph>
    <TTGlyph name="Lacute" xMin="38" yMin="-10" xMax="478" yMax="841">
      <contour>
        <pt x="477" y="186" on="1"/>
        <pt x="478" y="182" on="1"/>
        <pt x="450" y="93" on="0"/>
        <pt x="427" y="-4" on="1"/>
        <pt x="422" y="-9" on="1"/>
        <pt x="256" y="0" on="0"/>
        <pt x="196" y="0" on="1"/>
        <pt x="102" y="0" on="0"/>
        <pt x="38" y="-10" on="1"/>
        <pt x="50" y="33" on="1"/>
        <pt x="88" y="39" on="0"/>
        <pt x="120" y="75" on="0"/>
        <pt x="125" y="117" on="1"/>
        <pt x="180" y="555" on="0"/>
        <pt x="180" y="578" on="0"/>
        <pt x="170" y="596" on="0"/>
        <pt x="149" y="596" on="1"/>
        <pt x="116" y="594" on="1"/>
        <pt x="115" y="596" on="0"/>
        <pt x="115" y="597" on="1"/>
        <pt x="127" y="640" on="1"/>
        <pt x="199" y="636" on="0"/>
        <pt x="225" y="636" on="1"/>
        <pt x="269" y="636" on="0"/>
        <pt x="333" y="646" on="1"/>
        <pt x="325" y="604" on="1"/>
        <pt x="283" y="597" on="0"/>
        <pt x="262" y="570" on="0"/>
        <pt x="234" y="422" on="0"/>
        <pt x="188" y="115" on="0"/>
        <pt x="188" y="60" on="0"/>
        <pt x="217" y="41" on="0"/>
        <pt x="264" y="41" on="1"/>
        <pt x="349" y="41" on="0"/>
        <pt x="409" y="90" on="0"/>
        <pt x="435" y="182" on="1"/>
      </contour>
      <contour>
        <pt x="407" y="787" on="1"/>
        <pt x="403" y="777" on="1"/>
        <pt x="302" y="743" on="0"/>
        <pt x="197" y="703" on="1"/>
        <pt x="189" y="708" on="1"/>
        <pt x="183" y="732" on="1"/>
        <pt x="382" y="841" on="1"/>
        <pt x="391" y="835" on="1"/>
      </contour>
    </TTGlyph>
    <TTGlyph name="Lcaron" xMin="38" yMin="-10" xMax="503" yMax="646">
      <contour>
        <pt x="432" y="402" on="1"/>
        <pt x="433" y="435" on="0"/>
        <pt x="433" y="461" on="1"/>
        <pt x="433" y="529" on="0"/>
        <pt x="426" y="620" on="1"/>
        <pt x="496" y="634" on="1"/>
        <pt x="503" y="626" on="1"/>
        <pt x="489" y="516" on="0"/>
        <pt x="468" y="414" on="1"/>
        <pt x="443" y="400" on="1"/>
      </contour>
      <contour>
        <pt x="477" y="186" on="1"/>
        <pt x="478" y="182" on="1"/>
        <pt x="450" y="93" on="0"/>
        <pt x="427" y="-4" on="1"/>
        <pt x="422" y="-9" on="1"/>
        <pt x="256" y="0" on="0"/>
        <pt x="196" y="0" on="1"/>
        <pt x="102" y="0" on="0"/>
        <pt x="38" y="-10" on="1"/>
        <pt x="50" y="33" on="1"/>
        <pt x="88" y="39" on="0"/>
        <pt x="120" y="75" on="0"/>
        <pt x="125" y="117" on="1"/>
        <pt x="180" y="555" on="0"/>
        <pt x="180" y="578" on="0"/>
        <pt x="170" y="596" on="0"/>
        <pt x="149" y="596" on="1"/>
        <pt x="116" y="594" on="1"/>
        <pt x="115" y="596" on="0"/>
        <pt x="115" y="597" on="1"/>
        <pt x="127" y="640" on="1"/>
        <pt x="199" y="636" on="0"/>
        <pt x="225" y="636" on="1"/>
        <pt x="269" y="636" on="0"/>
        <pt x="333" y="646" on="1"/>
        <pt x="325" y="604" on="1"/>
        <pt x="283" y="597" on="0"/>
        <pt x="262" y="570" on="0"/>
        <pt x="234" y="422" on="0"/>
        <pt x="188" y="115" on="0"/>
        <pt x="188" y="60" on="0"/>
        <pt x="217" y="41" on="0"/>
        <pt x="264" y="41" on="1"/>
        <pt x="349" y="41" on="0"/>
        <pt x="409" y="90" on="0"/>
        <pt x="435" y="182" on="1"/>
      </contour>
    </TTGlyph>
    <TTGlyph name="Lcommaaccent" xMin="38" yMin="-293" xMax="478" yMax="646">
      <contour>
        <pt x="477" y="186" on="1"/>
        <pt x="478" y="182" on="1"/>
        <pt x="450" y="93" on="0"/>
        <pt x="427" y="-4" on="1"/>
        <pt x="422" y="-9" on="1"/>
        <pt x="256" y="0" on="0"/>
        <pt x="196" y="0" on="1"/>
        <pt x="102" y="0" on="0"/>
        <pt x="38" y="-10" on="1"/>
        <pt x="50" y="33" on="1"/>
        <pt x="88" y="39" on="0"/>
        <pt x="120" y="75" on="0"/>
        <pt x="125" y="117" on="1"/>
        <pt x="180" y="555" on="0"/>
        <pt x="180" y="578" on="0"/>
        <pt x="170" y="596" on="0"/>
        <pt x="149" y="596" on="1"/>
        <pt x="116" y="594" on="1"/>
        <pt x="115" y="596" on="0"/>
        <pt x="115" y="597" on="1"/>
        <pt x="127" y="640" on="1"/>
        <pt x="199" y="636" on="0"/>
        <pt x="225" y="636" on="1"/>
        <pt x="269" y="636" on="0"/>
        <pt x="333" y="646" on="1"/>
        <pt x="325" y="604" on="1"/>
        <pt x="283" y="597" on="0"/>
        <pt x="262" y="570" on="0"/>
        <pt x="234" y="422" on="0"/>
        <pt x="188" y="115" on="0"/>
        <pt x="188" y="60" on="0"/>
        <pt x="217" y="41" on="0"/>
        <pt x="264" y="41" on="1"/>
        <pt x="349" y="41" on="0"/>
        <pt x="409" y="90" on="0"/>
        <pt x="435" y="182" on="1"/>
      </contour>
      <contour>
        <pt x="192" y="-93" on="1"/>
        <pt x="226" y="-67" on="0"/>
        <pt x="273" y="-67" on="0"/>
        <pt x="304" y="-106" on="0"/>
        <pt x="304" y="-138" on="1"/>
        <pt x="304" y="-187" on="0"/>
        <pt x="228" y="-266" on="0"/>
        <pt x="176" y="-293" on="1"/>
        <pt x="158" y="-278" on="1"/>
        <pt x="158" y="-268" on="1"/>
        <pt x="189" y="-249" on="0"/>
        <pt x="230" y="-194" on="0"/>
        <pt x="230" y="-169" on="1"/>
        <pt x="230" y="-131" on="0"/>
        <pt x="190" y="-107" on="1"/>
      </contour>
    </TTGlyph>
    <TTGlyph name="Ldot" xMin="38" yMin="-10" xMax="505" yMax="646">
      <contour>
        <pt x="477" y="186" on="1"/>
        <pt x="478" y="182" on="1"/>
        <pt x="450" y="93" on="0"/>
        <pt x="427" y="-4" on="1"/>
        <pt x="422" y="-9" on="1"/>
        <pt x="256" y="0" on="0"/>
        <pt x="196" y="0" on="1"/>
        <pt x="102" y="0" on="0"/>
        <pt x="38" y="-10" on="1"/>
        <pt x="50" y="33" on="1"/>
        <pt x="88" y="39" on="0"/>
        <pt x="120" y="75" on="0"/>
        <pt x="125" y="117" on="1"/>
        <pt x="180" y="555" on="0"/>
        <pt x="180" y="578" on="0"/>
        <pt x="170" y="596" on="0"/>
        <pt x="149" y="596" on="1"/>
        <pt x="116" y="594" on="1"/>
        <pt x="115" y="596" on="0"/>
        <pt x="115" y="597" on="1"/>
        <pt x="127" y="640" on="1"/>
        <pt x="199" y="636" on="0"/>
        <pt x="225" y="636" on="1"/>
        <pt x="269" y="636" on="0"/>
        <pt x="333" y="646" on="1"/>
        <pt x="325" y="604" on="1"/>
        <pt x="283" y="597" on="0"/>
        <pt x="262" y="570" on="0"/>
        <pt x="234" y="422" on="0"/>
        <pt x="188" y="115" on="0"/>
        <pt x="188" y="60" on="0"/>
        <pt x="217" y="41" on="0"/>
        <pt x="264" y="41" on="1"/>
        <pt x="349" y="41" on="0"/>
        <pt x="409" y="90" on="0"/>
        <pt x="435" y="182" on="1"/>
      </contour>
      <contour>
        <pt x="505" y="454" on="0"/>
        <pt x="465" y="413" on="0"/>
        <pt x="411" y="413" on="0"/>
        <pt x="387" y="442" on="0"/>
        <pt x="387" y="491" on="0"/>
        <pt x="426" y="532" on="0"/>
        <pt x="479" y="532" on="0"/>
        <pt x="505" y="504" on="0"/>
      </contour>
    </TTGlyph>
    <TTGlyph name="Lslash" xMin="34" yMin="-10" xMax="478" yMax="646">
      <contour>
        <pt x="477" y="186" on="1"/>
        <pt x="478" y="182" on="1"/>
        <pt x="450" y="93" on="0"/>
        <pt x="427" y="-4" on="1"/>
        <pt x="422" y="-9" on="1"/>
        <pt x="256" y="0" on="0"/>
        <pt x="196" y="0" on="1"/>
        <pt x="102" y="0" on="0"/>
        <pt x="38" y="-10" on="1"/>
        <pt x="50" y="33" on="1"/>
        <pt x="88" y="39" on="0"/>
        <pt x="120" y="75" on="0"/>
        <pt x="125" y="117" on="1"/>
        <pt x="149" y="308" on="1"/>
        <pt x="48" y="258" on="1"/>
        <pt x="39" y="261" on="1"/>
        <pt x="34" y="293" on="1"/>
        <pt x="154" y="353" on="1"/>
        <pt x="180" y="555" on="0"/>
        <pt x="180" y="578" on="0"/>
        <pt x="170" y="596" on="0"/>
        <pt x="149" y="596" on="1"/>
        <pt x="116" y="594" on="1"/>
        <pt x="115" y="596" on="0"/>
        <pt x="115" y="597" on="1"/>
        <pt x="127" y="640" on="1"/>
        <pt x="199" y="636" on="0"/>
        <pt x="225" y="636" on="1"/>
        <pt x="269" y="636" on="0"/>
        <pt x="333" y="646" on="1"/>
        <pt x="325" y="604" on="1"/>
        <pt x="283" y="597" on="0"/>
        <pt x="262" y="570" on="0"/>
        <pt x="250" y="508" on="1"/>
        <pt x="228" y="383" on="1"/>
        <pt x="371" y="454" on="1"/>
        <pt x="379" y="449" on="1"/>
        <pt x="384" y="418" on="1"/>
        <pt x="221" y="338" on="1"/>
        <pt x="188" y="123" on="0"/>
        <pt x="188" y="60" on="0"/>
        <pt x="217" y="41" on="0"/>
        <pt x="264" y="41" on="1"/>
        <pt x="349" y="41" on="0"/>
        <pt x="409" y="90" on="0"/>
        <pt x="435" y="182" on="1"/>
      </contour>
    </TTGlyph>
    <TTGlyph name="M" xMin="17" yMin="-19" xMax="790" yMax="642">
      <contour>
        <pt x="789" y="642" on="1"/>
        <pt x="790" y="638" on="1"/>
        <pt x="781" y="604" on="1"/>
        <pt x="738" y="599" on="0"/>
        <pt x="701" y="574" on="0"/>
        <pt x="696" y="521" on="0"/>
        <pt x="688" y="376" on="1"/>
        <pt x="678" y="194" on="0"/>
        <pt x="678" y="76" on="0"/>
        <pt x="691" y="41" on="0"/>
        <pt x="714" y="41" on="1"/>
        <pt x="741" y="43" on="1"/>
        <pt x="741" y="42" on="0"/>
        <pt x="742" y="40" on="1"/>
        <pt x="728" y="-3" on="1"/>
        <pt x="673" y="0" on="0"/>
        <pt x="646" y="0" on="1"/>
        <pt x="600" y="0" on="0"/>
        <pt x="540" y="-8" on="1"/>
        <pt x="549" y="35" on="1"/>
        <pt x="606" y="42" on="0"/>
        <pt x="612" y="85" on="1"/>
        <pt x="633" y="529" on="1"/>
        <pt x="628" y="529" on="1"/>
        <pt x="534" y="323" on="0"/>
        <pt x="374" y="-13" on="1"/>
        <pt x="353" y="-19" on="1"/>
        <pt x="277" y="319" on="0"/>
        <pt x="231" y="529" on="1"/>
        <pt x="227" y="529" on="1"/>
        <pt x="138" y="86" on="0"/>
        <pt x="138" y="41" on="0"/>
        <pt x="164" y="41" on="1"/>
        <pt x="204" y="42" on="1"/>
        <pt x="205" y="40" on="0"/>
        <pt x="205" y="39" on="1"/>
        <pt x="191" y="-4" on="1"/>
        <pt x="131" y="0" on="0"/>
        <pt x="106" y="0" on="1"/>
        <pt x="65" y="0" on="0"/>
        <pt x="17" y="-8" on="1"/>
        <pt x="28" y="35" on="1"/>
        <pt x="58" y="40" on="0"/>
        <pt x="89" y="73" on="0"/>
        <pt x="102" y="133" on="0"/>
        <pt x="127" y="250" on="1"/>
        <pt x="189" y="538" on="0"/>
        <pt x="189" y="555" on="1"/>
        <pt x="189" y="599" on="0"/>
        <pt x="111" y="605" on="1"/>
        <pt x="109" y="609" on="1"/>
        <pt x="120" y="641" on="1"/>
        <pt x="193" y="636" on="0"/>
        <pt x="223" y="636" on="1"/>
        <pt x="286" y="640" on="1"/>
        <pt x="334" y="374" on="0"/>
        <pt x="396" y="134" on="1"/>
        <pt x="400" y="134" on="1"/>
        <pt x="499" y="344" on="0"/>
        <pt x="624" y="639" on="1"/>
        <pt x="626" y="640" on="0"/>
        <pt x="635" y="639" on="1"/>
        <pt x="662" y="636" on="0"/>
        <pt x="684" y="636" on="1"/>
      </contour>
    </TTGlyph>
    <TTGlyph name="N" xMin="34" yMin="-42" xMax="709" yMax="645">
      <contour>
        <pt x="102" y="602" on="1"/>
        <pt x="101" y="607" on="1"/>
        <pt x="112" y="641" on="1"/>
        <pt x="167" y="636" on="0"/>
        <pt x="193" y="636" on="1"/>
        <pt x="255" y="640" on="1"/>
        <pt x="380" y="388" on="0"/>
        <pt x="520" y="134" on="1"/>
        <pt x="524" y="134" on="1"/>
        <pt x="576" y="556" on="0"/>
        <pt x="576" y="561" on="1"/>
        <pt x="576" y="595" on="0"/>
        <pt x="549" y="595" on="1"/>
        <pt x="538" y="595" on="1"/>
        <pt x="520" y="594" on="1"/>
        <pt x="517" y="594" on="0"/>
        <pt x="513" y="594" on="1"/>
        <pt x="511" y="598" on="1"/>
        <pt x="525" y="640" on="1"/>
        <pt x="582" y="636" on="0"/>
        <pt x="607" y="636" on="1"/>
        <pt x="655" y="636" on="0"/>
        <pt x="709" y="645" on="1"/>
        <pt x="699" y="601" on="1"/>
        <pt x="633" y="592" on="0"/>
        <pt x="625" y="538" on="1"/>
        <pt x="543" y="-28" on="1"/>
        <pt x="518" y="-42" on="1"/>
        <pt x="373" y="252" on="0"/>
        <pt x="225" y="522" on="1"/>
        <pt x="221" y="522" on="1"/>
        <pt x="161" y="81" on="1"/>
        <pt x="158" y="59" on="0"/>
        <pt x="169" y="42" on="0"/>
        <pt x="186" y="42" on="1"/>
        <pt x="235" y="42" on="1"/>
        <pt x="237" y="39" on="1"/>
        <pt x="223" y="-4" on="1"/>
        <pt x="165" y="0" on="0"/>
        <pt x="123" y="0" on="1"/>
        <pt x="34" y="-8" on="1"/>
        <pt x="45" y="35" on="1"/>
        <pt x="104" y="42" on="0"/>
        <pt x="112" y="98" on="1"/>
        <pt x="180" y="546" on="0"/>
        <pt x="180" y="560" on="1"/>
        <pt x="180" y="594" on="0"/>
      </contour>
    </TTGlyph>
    <TTGlyph name="Nacute" xMin="34" yMin="-42" xMax="709" yMax="841">
      <contour>
        <pt x="102" y="602" on="1"/>
        <pt x="101" y="607" on="1"/>
        <pt x="112" y="641" on="1"/>
        <pt x="167" y="636" on="0"/>
        <pt x="193" y="636" on="1"/>
        <pt x="255" y="640" on="1"/>
        <pt x="380" y="388" on="0"/>
        <pt x="520" y="134" on="1"/>
        <pt x="524" y="134" on="1"/>
        <pt x="576" y="556" on="0"/>
        <pt x="576" y="561" on="1"/>
        <pt x="576" y="595" on="0"/>
        <pt x="549" y="595" on="1"/>
        <pt x="538" y="595" on="1"/>
        <pt x="520" y="594" on="1"/>
        <pt x="517" y="594" on="0"/>
        <pt x="513" y="594" on="1"/>
        <pt x="511" y="598" on="1"/>
        <pt x="525" y="640" on="1"/>
        <pt x="582" y="636" on="0"/>
        <pt x="607" y="636" on="1"/>
        <pt x="655" y="636" on="0"/>
        <pt x="709" y="645" on="1"/>
        <pt x="699" y="601" on="1"/>
        <pt x="633" y="592" on="0"/>
        <pt x="625" y="538" on="1"/>
        <pt x="543" y="-28" on="1"/>
        <pt x="518" y="-42" on="1"/>
        <pt x="373" y="252" on="0"/>
        <pt x="225" y="522" on="1"/>
        <pt x="221" y="522" on="1"/>
        <pt x="161" y="81" on="1"/>
        <pt x="158" y="59" on="0"/>
        <pt x="169" y="42" on="0"/>
        <pt x="186" y="42" on="1"/>
        <pt x="235" y="42" on="1"/>
        <pt x="237" y="39" on="1"/>
        <pt x="223" y="-4" on="1"/>
        <pt x="165" y="0" on="0"/>
        <pt x="123" y="0" on="1"/>
        <pt x="34" y="-8" on="1"/>
        <pt x="45" y="35" on="1"/>
        <pt x="104" y="42" on="0"/>
        <pt x="112" y="98" on="1"/>
        <pt x="180" y="546" on="0"/>
        <pt x="180" y="560" on="1"/>
        <pt x="180" y="594" on="0"/>
      </contour>
      <contour>
        <pt x="578" y="787" on="1"/>
        <pt x="574" y="777" on="1"/>
        <pt x="473" y="743" on="0"/>
        <pt x="368" y="703" on="1"/>
        <pt x="360" y="708" on="1"/>
        <pt x="354" y="732" on="1"/>
        <pt x="553" y="841" on="1"/>
        <pt x="562" y="835" on="1"/>
      </contour>
    </TTGlyph>
    <TTGlyph name="Ncaron" xMin="34" yMin="-42" xMax="709" yMax="838">
      <contour>
        <pt x="102" y="602" on="1"/>
        <pt x="101" y="607" on="1"/>
        <pt x="112" y="641" on="1"/>
        <pt x="167" y="636" on="0"/>
        <pt x="193" y="636" on="1"/>
        <pt x="255" y="640" on="1"/>
        <pt x="380" y="388" on="0"/>
        <pt x="520" y="134" on="1"/>
        <pt x="524" y="134" on="1"/>
        <pt x="576" y="556" on="0"/>
        <pt x="576" y="561" on="1"/>
        <pt x="576" y="595" on="0"/>
        <pt x="549" y="595" on="1"/>
        <pt x="538" y="595" on="1"/>
        <pt x="520" y="594" on="1"/>
        <pt x="517" y="594" on="0"/>
        <pt x="513" y="594" on="1"/>
        <pt x="511" y="598" on="1"/>
        <pt x="525" y="640" on="1"/>
        <pt x="582" y="636" on="0"/>
        <pt x="607" y="636" on="1"/>
        <pt x="655" y="636" on="0"/>
        <pt x="709" y="645" on="1"/>
        <pt x="699" y="601" on="1"/>
        <pt x="633" y="592" on="0"/>
        <pt x="625" y="538" on="1"/>
        <pt x="543" y="-28" on="1"/>
        <pt x="518" y="-42" on="1"/>
        <pt x="373" y="252" on="0"/>
        <pt x="225" y="522" on="1"/>
        <pt x="221" y="522" on="1"/>
        <pt x="161" y="81" on="1"/>
        <pt x="158" y="59" on="0"/>
        <pt x="169" y="42" on="0"/>
        <pt x="186" y="42" on="1"/>
        <pt x="235" y="42" on="1"/>
        <pt x="237" y="39" on="1"/>
        <pt x="223" y="-4" on="1"/>
        <pt x="165" y="0" on="0"/>
        <pt x="123" y="0" on="1"/>
        <pt x="34" y="-8" on="1"/>
        <pt x="45" y="35" on="1"/>
        <pt x="104" y="42" on="0"/>
        <pt x="112" y="98" on="1"/>
        <pt x="180" y="546" on="0"/>
        <pt x="180" y="560" on="1"/>
        <pt x="180" y="594" on="0"/>
      </contour>
      <contour>
        <pt x="555" y="837" on="1"/>
        <pt x="567" y="815" on="1"/>
        <pt x="419" y="704" on="1"/>
        <pt x="406" y="704" on="1"/>
        <pt x="286" y="815" on="1"/>
        <pt x="302" y="837" on="1"/>
        <pt x="312" y="838" on="1"/>
        <pt x="421" y="773" on="1"/>
        <pt x="546" y="838" on="1"/>
      </contour>
    </TTGlyph>
    <TTGlyph name="Ncommaaccent" xMin="34" yMin="-293" xMax="709" yMax="645">
      <contour>
        <pt x="102" y="602" on="1"/>
        <pt x="101" y="607" on="1"/>
        <pt x="112" y="641" on="1"/>
        <pt x="167" y="636" on="0"/>
        <pt x="193" y="636" on="1"/>
        <pt x="255" y="640" on="1"/>
        <pt x="380" y="388" on="0"/>
        <pt x="520" y="134" on="1"/>
        <pt x="524" y="134" on="1"/>
        <pt x="576" y="556" on="0"/>
        <pt x="576" y="561" on="1"/>
        <pt x="576" y="595" on="0"/>
        <pt x="549" y="595" on="1"/>
        <pt x="538" y="595" on="1"/>
        <pt x="520" y="594" on="1"/>
        <pt x="517" y="594" on="0"/>
        <pt x="513" y="594" on="1"/>
        <pt x="511" y="598" on="1"/>
        <pt x="525" y="640" on="1"/>
        <pt x="582" y="636" on="0"/>
        <pt x="607" y="636" on="1"/>
        <pt x="655" y="636" on="0"/>
        <pt x="709" y="645" on="1"/>
        <pt x="699" y="601" on="1"/>
        <pt x="633" y="592" on="0"/>
        <pt x="625" y="538" on="1"/>
        <pt x="543" y="-28" on="1"/>
        <pt x="518" y="-42" on="1"/>
        <pt x="373" y="252" on="0"/>
        <pt x="225" y="522" on="1"/>
        <pt x="221" y="522" on="1"/>
        <pt x="161" y="81" on="1"/>
        <pt x="158" y="59" on="0"/>
        <pt x="169" y="42" on="0"/>
        <pt x="186" y="42" on="1"/>
        <pt x="235" y="42" on="1"/>
        <pt x="237" y="39" on="1"/>
        <pt x="223" y="-4" on="1"/>
        <pt x="165" y="0" on="0"/>
        <pt x="123" y="0" on="1"/>
        <pt x="34" y="-8" on="1"/>
        <pt x="45" y="35" on="1"/>
        <pt x="104" y="42" on="0"/>
        <pt x="112" y="98" on="1"/>
        <pt x="180" y="546" on="0"/>
        <pt x="180" y="560" on="1"/>
        <pt x="180" y="594" on="0"/>
      </contour>
      <contour>
        <pt x="258" y="-93" on="1"/>
        <pt x="292" y="-67" on="0"/>
        <pt x="339" y="-67" on="0"/>
        <pt x="370" y="-106" on="0"/>
        <pt x="370" y="-138" on="1"/>
        <pt x="370" y="-187" on="0"/>
        <pt x="294" y="-266" on="0"/>
        <pt x="242" y="-293" on="1"/>
        <pt x="224" y="-278" on="1"/>
        <pt x="224" y="-268" on="1"/>
        <pt x="255" y="-249" on="0"/>
        <pt x="296" y="-194" on="0"/>
        <pt x="296" y="-169" on="1"/>
        <pt x="296" y="-131" on="0"/>
        <pt x="256" y="-107" on="1"/>
      </contour>
    </TTGlyph>
    <TTGlyph name="Ntilde" xMin="34" yMin="-42" xMax="709" yMax="820">
      <contour>
        <pt x="102" y="602" on="1"/>
        <pt x="101" y="607" on="1"/>
        <pt x="112" y="641" on="1"/>
        <pt x="167" y="636" on="0"/>
        <pt x="193" y="636" on="1"/>
        <pt x="255" y="640" on="1"/>
        <pt x="380" y="388" on="0"/>
        <pt x="520" y="134" on="1"/>
        <pt x="524" y="134" on="1"/>
        <pt x="576" y="556" on="0"/>
        <pt x="576" y="561" on="1"/>
        <pt x="576" y="595" on="0"/>
        <pt x="549" y="595" on="1"/>
        <pt x="538" y="595" on="1"/>
        <pt x="520" y="594" on="1"/>
        <pt x="517" y="594" on="0"/>
        <pt x="513" y="594" on="1"/>
        <pt x="511" y="598" on="1"/>
        <pt x="525" y="640" on="1"/>
        <pt x="582" y="636" on="0"/>
        <pt x="607" y="636" on="1"/>
        <pt x="655" y="636" on="0"/>
        <pt x="709" y="645" on="1"/>
        <pt x="699" y="601" on="1"/>
        <pt x="633" y="592" on="0"/>
        <pt x="625" y="538" on="1"/>
        <pt x="543" y="-28" on="1"/>
        <pt x="518" y="-42" on="1"/>
        <pt x="373" y="252" on="0"/>
        <pt x="225" y="522" on="1"/>
        <pt x="221" y="522" on="1"/>
        <pt x="161" y="81" on="1"/>
        <pt x="158" y="59" on="0"/>
        <pt x="169" y="42" on="0"/>
        <pt x="186" y="42" on="1"/>
        <pt x="235" y="42" on="1"/>
        <pt x="237" y="39" on="1"/>
        <pt x="223" y="-4" on="1"/>
        <pt x="165" y="0" on="0"/>
        <pt x="123" y="0" on="1"/>
        <pt x="34" y="-8" on="1"/>
        <pt x="45" y="35" on="1"/>
        <pt x="104" y="42" on="0"/>
        <pt x="112" y="98" on="1"/>
        <pt x="180" y="546" on="0"/>
        <pt x="180" y="560" on="1"/>
        <pt x="180" y="594" on="0"/>
      </contour>
      <contour>
        <pt x="373" y="808" on="0"/>
        <pt x="480" y="775" on="0"/>
        <pt x="492" y="775" on="1"/>
        <pt x="512" y="775" on="0"/>
        <pt x="559" y="820" on="1"/>
        <pt x="565" y="820" on="1"/>
        <pt x="584" y="799" on="1"/>
        <pt x="584" y="794" on="1"/>
        <pt x="501" y="715" on="1"/>
        <pt x="485" y="711" on="1"/>
        <pt x="468" y="711" on="0"/>
        <pt x="362" y="744" on="0"/>
        <pt x="350" y="744" on="1"/>
        <pt x="328" y="744" on="0"/>
        <pt x="294" y="710" on="1"/>
        <pt x="283" y="699" on="1"/>
        <pt x="277" y="699" on="1"/>
        <pt x="257" y="720" on="1"/>
        <pt x="258" y="725" on="1"/>
        <pt x="341" y="804" on="1"/>
        <pt x="356" y="808" on="1"/>
      </contour>
    </TTGlyph>
    <TTGlyph name="O" xMin="45" yMin="-12" xMax="644" yMax="648">
      <contour>
        <pt x="311" y="35" on="1"/>
        <pt x="417" y="35" on="0"/>
        <pt x="557" y="210" on="0"/>
        <pt x="557" y="456" on="0"/>
        <pt x="454" y="593" on="0"/>
        <pt x="368" y="593" on="1"/>
        <pt x="265" y="593" on="0"/>
        <pt x="127" y="416" on="0"/>
        <pt x="127" y="172" on="0"/>
        <pt x="228" y="35" on="0"/>
      </contour>
      <contour>
        <pt x="286" y="-12" on="1"/>
        <pt x="179" y="-12" on="0"/>
        <pt x="45" y="136" on="0"/>
        <pt x="45" y="254" on="1"/>
        <pt x="45" y="416" on="0"/>
        <pt x="252" y="648" on="0"/>
        <pt x="397" y="648" on="1"/>
        <pt x="506" y="648" on="0"/>
        <pt x="644" y="499" on="0"/>
        <pt x="644" y="382" on="1"/>
        <pt x="644" y="219" on="0"/>
        <pt x="433" y="-12" on="0"/>
      </contour>
    </TTGlyph>
    <TTGlyph name="OE" xMin="45" yMin="-12" xMax="906" yMax="649">
      <contour>
        <pt x="546" y="105" on="1"/>
        <pt x="544" y="92" on="0"/>
        <pt x="544" y="61" on="0"/>
        <pt x="562" y="45" on="0"/>
        <pt x="674" y="45" on="0"/>
        <pt x="734" y="51" on="0"/>
        <pt x="780" y="79" on="0"/>
        <pt x="800" y="123" on="0"/>
        <pt x="812" y="167" on="1"/>
        <pt x="857" y="172" on="1"/>
        <pt x="859" y="167" on="1"/>
        <pt x="832" y="84" on="0"/>
        <pt x="813" y="-1" on="1"/>
        <pt x="807" y="-7" on="1"/>
        <pt x="608" y="1" on="0"/>
        <pt x="462" y="1" on="0"/>
        <pt x="310" y="-12" on="0"/>
        <pt x="280" y="-12" on="1"/>
        <pt x="176" y="-12" on="0"/>
        <pt x="45" y="136" on="0"/>
        <pt x="45" y="253" on="1"/>
        <pt x="45" y="418" on="0"/>
        <pt x="247" y="649" on="0"/>
        <pt x="390" y="649" on="1"/>
        <pt x="421" y="649" on="0"/>
        <pt x="568" y="635" on="0"/>
        <pt x="609" y="635" on="1"/>
        <pt x="805" y="635" on="0"/>
        <pt x="903" y="649" on="1"/>
        <pt x="906" y="643" on="1"/>
        <pt x="880" y="569" on="0"/>
        <pt x="863" y="477" on="1"/>
        <pt x="814" y="473" on="1"/>
        <pt x="823" y="511" on="0"/>
        <pt x="823" y="570" on="0"/>
        <pt x="772" y="587" on="0"/>
        <pt x="638" y="587" on="0"/>
        <pt x="618" y="576" on="0"/>
        <pt x="613" y="548" on="1"/>
        <pt x="581" y="354" on="1"/>
        <pt x="680" y="353" on="1"/>
        <pt x="799" y="364" on="1"/>
        <pt x="802" y="359" on="1"/>
        <pt x="781" y="300" on="1"/>
        <pt x="699" y="303" on="0"/>
        <pt x="648" y="303" on="1"/>
        <pt x="572" y="296" on="1"/>
      </contour>
      <contour>
        <pt x="135" y="172" on="0"/>
        <pt x="227" y="40" on="0"/>
        <pt x="397" y="40" on="0"/>
        <pt x="481" y="116" on="0"/>
        <pt x="494" y="208" on="1"/>
        <pt x="529" y="483" on="0"/>
        <pt x="529" y="497" on="1"/>
        <pt x="529" y="547" on="0"/>
        <pt x="473" y="591" on="0"/>
        <pt x="270" y="591" on="0"/>
        <pt x="135" y="416" on="0"/>
        <pt x="135" y="280" on="1"/>
      </contour>
    </TTGlyph>
    <TTGlyph name="Oacute" xMin="45" yMin="-12" xMax="644" yMax="841">
      <contour>
        <pt x="311" y="35" on="1"/>
        <pt x="417" y="35" on="0"/>
        <pt x="557" y="210" on="0"/>
        <pt x="557" y="456" on="0"/>
        <pt x="454" y="593" on="0"/>
        <pt x="368" y="593" on="1"/>
        <pt x="265" y="593" on="0"/>
        <pt x="127" y="416" on="0"/>
        <pt x="127" y="172" on="0"/>
        <pt x="228" y="35" on="0"/>
      </contour>
      <contour>
        <pt x="286" y="-12" on="1"/>
        <pt x="179" y="-12" on="0"/>
        <pt x="45" y="136" on="0"/>
        <pt x="45" y="254" on="1"/>
        <pt x="45" y="416" on="0"/>
        <pt x="252" y="648" on="0"/>
        <pt x="397" y="648" on="1"/>
        <pt x="506" y="648" on="0"/>
        <pt x="644" y="499" on="0"/>
        <pt x="644" y="382" on="1"/>
        <pt x="644" y="219" on="0"/>
        <pt x="433" y="-12" on="0"/>
      </contour>
      <contour>
        <pt x="529" y="787" on="1"/>
        <pt x="525" y="777" on="1"/>
        <pt x="424" y="743" on="0"/>
        <pt x="319" y="703" on="1"/>
        <pt x="311" y="708" on="1"/>
        <pt x="305" y="732" on="1"/>
        <pt x="504" y="841" on="1"/>
        <pt x="513" y="835" on="1"/>
      </contour>
    </TTGlyph>
    <TTGlyph name="Obreve" xMin="45" yMin="-12" xMax="644" yMax="857">
      <contour>
        <pt x="311" y="35" on="1"/>
        <pt x="417" y="35" on="0"/>
        <pt x="557" y="210" on="0"/>
        <pt x="557" y="456" on="0"/>
        <pt x="454" y="593" on="0"/>
        <pt x="368" y="593" on="1"/>
        <pt x="265" y="593" on="0"/>
        <pt x="127" y="416" on="0"/>
        <pt x="127" y="172" on="0"/>
        <pt x="228" y="35" on="0"/>
      </contour>
      <contour>
        <pt x="286" y="-12" on="1"/>
        <pt x="179" y="-12" on="0"/>
        <pt x="45" y="136" on="0"/>
        <pt x="45" y="254" on="1"/>
        <pt x="45" y="416" on="0"/>
        <pt x="252" y="648" on="0"/>
        <pt x="397" y="648" on="1"/>
        <pt x="506" y="648" on="0"/>
        <pt x="644" y="499" on="0"/>
        <pt x="644" y="382" on="1"/>
        <pt x="644" y="219" on="0"/>
        <pt x="433" y="-12" on="0"/>
      </contour>
      <contour>
        <pt x="318" y="791" on="0"/>
        <pt x="454" y="791" on="0"/>
        <pt x="486" y="857" on="1"/>
        <pt x="495" y="857" on="1"/>
        <pt x="509" y="847" on="1"/>
        <pt x="492" y="799" on="0"/>
        <pt x="426" y="733" on="0"/>
        <pt x="332" y="733" on="0"/>
        <pt x="281" y="799" on="0"/>
        <pt x="276" y="847" on="1"/>
        <pt x="293" y="857" on="1"/>
        <pt x="301" y="857" on="1"/>
      </contour>
    </TTGlyph>
    <TTGlyph name="Ocircumflex" xMin="45" yMin="-12" xMax="644" yMax="846">
      <contour>
        <pt x="311" y="35" on="1"/>
        <pt x="417" y="35" on="0"/>
        <pt x="557" y="210" on="0"/>
        <pt x="557" y="456" on="0"/>
        <pt x="454" y="593" on="0"/>
        <pt x="368" y="593" on="1"/>
        <pt x="265" y="593" on="0"/>
        <pt x="127" y="416" on="0"/>
        <pt x="127" y="172" on="0"/>
        <pt x="228" y="35" on="0"/>
      </contour>
      <contour>
        <pt x="286" y="-12" on="1"/>
        <pt x="179" y="-12" on="0"/>
        <pt x="45" y="136" on="0"/>
        <pt x="45" y="254" on="1"/>
        <pt x="45" y="416" on="0"/>
        <pt x="252" y="648" on="0"/>
        <pt x="397" y="648" on="1"/>
        <pt x="506" y="648" on="0"/>
        <pt x="644" y="499" on="0"/>
        <pt x="644" y="382" on="1"/>
        <pt x="644" y="219" on="0"/>
        <pt x="433" y="-12" on="0"/>
      </contour>
      <contour>
        <pt x="258" y="713" on="1"/>
        <pt x="247" y="735" on="1"/>
        <pt x="394" y="846" on="1"/>
        <pt x="408" y="846" on="1"/>
        <pt x="528" y="735" on="1"/>
        <pt x="511" y="713" on="1"/>
        <pt x="502" y="712" on="1"/>
        <pt x="392" y="777" on="1"/>
        <pt x="267" y="712" on="1"/>
      </contour>
    </TTGlyph>
    <TTGlyph name="Odieresis" xMin="45" yMin="-12" xMax="644" yMax="818">
      <contour>
        <pt x="311" y="35" on="1"/>
        <pt x="417" y="35" on="0"/>
        <pt x="557" y="210" on="0"/>
        <pt x="557" y="456" on="0"/>
        <pt x="454" y="593" on="0"/>
        <pt x="368" y="593" on="1"/>
        <pt x="265" y="593" on="0"/>
        <pt x="127" y="416" on="0"/>
        <pt x="127" y="172" on="0"/>
        <pt x="228" y="35" on="0"/>
      </contour>
      <contour>
        <pt x="286" y="-12" on="1"/>
        <pt x="179" y="-12" on="0"/>
        <pt x="45" y="136" on="0"/>
        <pt x="45" y="254" on="1"/>
        <pt x="45" y="416" on="0"/>
        <pt x="252" y="648" on="0"/>
        <pt x="397" y="648" on="1"/>
        <pt x="506" y="648" on="0"/>
        <pt x="644" y="499" on="0"/>
        <pt x="644" y="382" on="1"/>
        <pt x="644" y="219" on="0"/>
        <pt x="433" y="-12" on="0"/>
      </contour>
      <contour>
        <pt x="517" y="758" on="0"/>
        <pt x="484" y="725" on="0"/>
        <pt x="464" y="725" on="1"/>
        <pt x="426" y="725" on="0"/>
        <pt x="426" y="763" on="1"/>
        <pt x="426" y="785" on="0"/>
        <pt x="459" y="818" on="0"/>
        <pt x="498" y="818" on="0"/>
        <pt x="517" y="796" on="0"/>
      </contour>
      <contour>
        <pt x="357" y="758" on="0"/>
        <pt x="324" y="725" on="0"/>
        <pt x="304" y="725" on="1"/>
        <pt x="266" y="725" on="0"/>
        <pt x="266" y="763" on="1"/>
        <pt x="266" y="785" on="0"/>
        <pt x="298" y="818" on="0"/>
        <pt x="338" y="818" on="0"/>
        <pt x="357" y="796" on="0"/>
      </contour>
    </TTGlyph>
    <TTGlyph name="Ograve" xMin="45" yMin="-12" xMax="644" yMax="841">
      <contour>
        <pt x="311" y="35" on="1"/>
        <pt x="417" y="35" on="0"/>
        <pt x="557" y="210" on="0"/>
        <pt x="557" y="456" on="0"/>
        <pt x="454" y="593" on="0"/>
        <pt x="368" y="593" on="1"/>
        <pt x="265" y="593" on="0"/>
        <pt x="127" y="416" on="0"/>
        <pt x="127" y="172" on="0"/>
        <pt x="228" y="35" on="0"/>
      </contour>
      <contour>
        <pt x="286" y="-12" on="1"/>
        <pt x="179" y="-12" on="0"/>
        <pt x="45" y="136" on="0"/>
        <pt x="45" y="254" on="1"/>
        <pt x="45" y="416" on="0"/>
        <pt x="252" y="648" on="0"/>
        <pt x="397" y="648" on="1"/>
        <pt x="506" y="648" on="0"/>
        <pt x="644" y="499" on="0"/>
        <pt x="644" y="382" on="1"/>
        <pt x="644" y="219" on="0"/>
        <pt x="433" y="-12" on="0"/>
      </contour>
      <contour>
        <pt x="256" y="777" on="1"/>
        <pt x="252" y="787" on="1"/>
        <pt x="268" y="835" on="1"/>
        <pt x="277" y="841" on="1"/>
        <pt x="382" y="781" on="0"/>
        <pt x="476" y="732" on="1"/>
        <pt x="470" y="708" on="1"/>
        <pt x="462" y="703" on="1"/>
      </contour>
    </TTGlyph>
    <TTGlyph name="Ohungarumlaut" xMin="45" yMin="-12" xMax="644" yMax="837">
      <contour>
        <pt x="311" y="35" on="1"/>
        <pt x="417" y="35" on="0"/>
        <pt x="557" y="210" on="0"/>
        <pt x="557" y="456" on="0"/>
        <pt x="454" y="593" on="0"/>
        <pt x="368" y="593" on="1"/>
        <pt x="265" y="593" on="0"/>
        <pt x="127" y="416" on="0"/>
        <pt x="127" y="172" on="0"/>
        <pt x="228" y="35" on="0"/>
      </contour>
      <contour>
        <pt x="286" y="-12" on="1"/>
        <pt x="179" y="-12" on="0"/>
        <pt x="45" y="136" on="0"/>
        <pt x="45" y="254" on="1"/>
        <pt x="45" y="416" on="0"/>
        <pt x="252" y="648" on="0"/>
        <pt x="397" y="648" on="1"/>
        <pt x="506" y="648" on="0"/>
        <pt x="644" y="499" on="0"/>
        <pt x="644" y="382" on="1"/>
        <pt x="644" y="219" on="0"/>
        <pt x="433" y="-12" on="0"/>
      </contour>
      <contour>
        <pt x="445" y="790" on="1"/>
        <pt x="442" y="781" on="1"/>
        <pt x="362" y="741" on="0"/>
        <pt x="278" y="694" on="1"/>
        <pt x="270" y="699" on="1"/>
        <pt x="261" y="720" on="1"/>
        <pt x="414" y="837" on="1"/>
        <pt x="423" y="833" on="1"/>
      </contour>
      <contour>
        <pt x="585" y="781" on="1"/>
        <pt x="582" y="772" on="1"/>
        <pt x="502" y="732" on="0"/>
        <pt x="418" y="685" on="1"/>
        <pt x="411" y="689" on="1"/>
        <pt x="401" y="710" on="1"/>
        <pt x="554" y="828" on="1"/>
        <pt x="563" y="823" on="1"/>
      </contour>
    </TTGlyph>
    <TTGlyph name="Omacron" xMin="45" yMin="-12" xMax="644" yMax="788">
      <contour>
        <pt x="311" y="35" on="1"/>
        <pt x="417" y="35" on="0"/>
        <pt x="557" y="210" on="0"/>
        <pt x="557" y="456" on="0"/>
        <pt x="454" y="593" on="0"/>
        <pt x="368" y="593" on="1"/>
        <pt x="265" y="593" on="0"/>
        <pt x="127" y="416" on="0"/>
        <pt x="127" y="172" on="0"/>
        <pt x="228" y="35" on="0"/>
      </contour>
      <contour>
        <pt x="286" y="-12" on="1"/>
        <pt x="179" y="-12" on="0"/>
        <pt x="45" y="136" on="0"/>
        <pt x="45" y="254" on="1"/>
        <pt x="45" y="416" on="0"/>
        <pt x="252" y="648" on="0"/>
        <pt x="397" y="648" on="1"/>
        <pt x="506" y="648" on="0"/>
        <pt x="644" y="499" on="0"/>
        <pt x="644" y="382" on="1"/>
        <pt x="644" y="219" on="0"/>
        <pt x="433" y="-12" on="0"/>
      </contour>
      <contour>
        <pt x="540" y="788" on="1"/>
        <pt x="545" y="778" on="1"/>
        <pt x="532" y="731" on="1"/>
        <pt x="257" y="729" on="1"/>
        <pt x="252" y="738" on="1"/>
        <pt x="268" y="783" on="1"/>
        <pt x="359" y="782" on="0"/>
        <pt x="415" y="782" on="1"/>
      </contour>
    </TTGlyph>
    <TTGlyph name="Omega" xMin="31" yMin="-6" xMax="768" yMax="649">
      <contour>
        <pt x="31" y="10" on="1"/>
        <pt x="35" y="49" on="0"/>
        <pt x="35" y="129" on="0"/>
        <pt x="33" y="169" on="1"/>
        <pt x="72" y="174" on="1"/>
        <pt x="73" y="106" on="0"/>
        <pt x="108" y="56" on="0"/>
        <pt x="155" y="56" on="1"/>
        <pt x="242" y="56" on="1"/>
        <pt x="186" y="107" on="0"/>
        <pt x="124" y="248" on="0"/>
        <pt x="124" y="321" on="1"/>
        <pt x="124" y="457" on="0"/>
        <pt x="321" y="649" on="0"/>
        <pt x="459" y="649" on="1"/>
        <pt x="573" y="649" on="0"/>
        <pt x="718" y="512" on="0"/>
        <pt x="718" y="304" on="0"/>
        <pt x="607" y="117" on="0"/>
        <pt x="515" y="56" on="1"/>
        <pt x="616" y="56" on="1"/>
        <pt x="662" y="56" on="0"/>
        <pt x="708" y="103" on="0"/>
        <pt x="727" y="169" on="1"/>
        <pt x="768" y="174" on="1"/>
        <pt x="738" y="82" on="0"/>
        <pt x="728" y="10" on="1"/>
        <pt x="711" y="-6" on="1"/>
        <pt x="467" y="8" on="1"/>
        <pt x="426" y="2" on="1"/>
        <pt x="422" y="23" on="1"/>
        <pt x="535" y="116" on="0"/>
        <pt x="626" y="277" on="0"/>
        <pt x="626" y="473" on="0"/>
        <pt x="531" y="589" on="0"/>
        <pt x="451" y="589" on="1"/>
        <pt x="346" y="589" on="0"/>
        <pt x="210" y="440" on="0"/>
        <pt x="210" y="319" on="1"/>
        <pt x="210" y="234" on="0"/>
        <pt x="274" y="76" on="0"/>
        <pt x="332" y="24" on="1"/>
        <pt x="322" y="1" on="1"/>
        <pt x="282" y="8" on="1"/>
        <pt x="45" y="-6" on="1"/>
      </contour>
    </TTGlyph>
    <TTGlyph name="Oslash" xMin="45" yMin="-98" xMax="644" yMax="708">
      <contour>
        <pt x="45" y="254" on="1"/>
        <pt x="45" y="416" on="0"/>
        <pt x="252" y="648" on="0"/>
        <pt x="397" y="648" on="1"/>
        <pt x="442" y="648" on="0"/>
        <pt x="482" y="634" on="1"/>
        <pt x="521" y="708" on="1"/>
        <pt x="550" y="701" on="1"/>
        <pt x="553" y="689" on="1"/>
        <pt x="515" y="619" on="1"/>
        <pt x="575" y="587" on="0"/>
        <pt x="644" y="462" on="0"/>
        <pt x="644" y="382" on="1"/>
        <pt x="644" y="219" on="0"/>
        <pt x="433" y="-12" on="0"/>
        <pt x="286" y="-12" on="1"/>
        <pt x="239" y="-12" on="0"/>
        <pt x="192" y="6" on="1"/>
        <pt x="137" y="-98" on="1"/>
        <pt x="110" y="-92" on="1"/>
        <pt x="108" y="-82" on="1"/>
        <pt x="161" y="21" on="1"/>
        <pt x="106" y="54" on="0"/>
        <pt x="45" y="176" on="0"/>
      </contour>
      <contour>
        <pt x="311" y="35" on="1"/>
        <pt x="417" y="35" on="0"/>
        <pt x="557" y="210" on="0"/>
        <pt x="557" y="484" on="0"/>
        <pt x="479" y="552" on="1"/>
        <pt x="221" y="61" on="1"/>
        <pt x="261" y="35" on="0"/>
      </contour>
      <contour>
        <pt x="265" y="593" on="0"/>
        <pt x="127" y="416" on="0"/>
        <pt x="127" y="153" on="0"/>
        <pt x="194" y="84" on="1"/>
        <pt x="450" y="572" on="1"/>
        <pt x="411" y="593" on="0"/>
        <pt x="368" y="593" on="1"/>
      </contour>
    </TTGlyph>
    <TTGlyph name="Oslashacute" xMin="45" yMin="-98" xMax="644" yMax="841">
      <contour>
        <pt x="45" y="254" on="1"/>
        <pt x="45" y="416" on="0"/>
        <pt x="252" y="648" on="0"/>
        <pt x="397" y="648" on="1"/>
        <pt x="442" y="648" on="0"/>
        <pt x="482" y="634" on="1"/>
        <pt x="521" y="708" on="1"/>
        <pt x="550" y="701" on="1"/>
        <pt x="553" y="689" on="1"/>
        <pt x="515" y="619" on="1"/>
        <pt x="575" y="587" on="0"/>
        <pt x="644" y="462" on="0"/>
        <pt x="644" y="382" on="1"/>
        <pt x="644" y="219" on="0"/>
        <pt x="433" y="-12" on="0"/>
        <pt x="286" y="-12" on="1"/>
        <pt x="239" y="-12" on="0"/>
        <pt x="192" y="6" on="1"/>
        <pt x="137" y="-98" on="1"/>
        <pt x="110" y="-92" on="1"/>
        <pt x="108" y="-82" on="1"/>
        <pt x="161" y="21" on="1"/>
        <pt x="106" y="54" on="0"/>
        <pt x="45" y="176" on="0"/>
      </contour>
      <contour>
        <pt x="311" y="35" on="1"/>
        <pt x="417" y="35" on="0"/>
        <pt x="557" y="210" on="0"/>
        <pt x="557" y="484" on="0"/>
        <pt x="479" y="552" on="1"/>
        <pt x="221" y="61" on="1"/>
        <pt x="261" y="35" on="0"/>
      </contour>
      <contour>
        <pt x="265" y="593" on="0"/>
        <pt x="127" y="416" on="0"/>
        <pt x="127" y="153" on="0"/>
        <pt x="194" y="84" on="1"/>
        <pt x="450" y="572" on="1"/>
        <pt x="411" y="593" on="0"/>
        <pt x="368" y="593" on="1"/>
      </contour>
      <contour>
        <pt x="526" y="787" on="1"/>
        <pt x="522" y="777" on="1"/>
        <pt x="421" y="743" on="0"/>
        <pt x="316" y="703" on="1"/>
        <pt x="308" y="708" on="1"/>
        <pt x="302" y="732" on="1"/>
        <pt x="501" y="841" on="1"/>
        <pt x="510" y="835" on="1"/>
      </contour>
    </TTGlyph>
    <TTGlyph name="Otilde" xMin="45" yMin="-12" xMax="644" yMax="820">
      <contour>
        <pt x="311" y="35" on="1"/>
        <pt x="417" y="35" on="0"/>
        <pt x="557" y="210" on="0"/>
        <pt x="557" y="456" on="0"/>
        <pt x="454" y="593" on="0"/>
        <pt x="368" y="593" on="1"/>
        <pt x="265" y="593" on="0"/>
        <pt x="127" y="416" on="0"/>
        <pt x="127" y="172" on="0"/>
        <pt x="228" y="35" on="0"/>
      </contour>
      <contour>
        <pt x="286" y="-12" on="1"/>
        <pt x="179" y="-12" on="0"/>
        <pt x="45" y="136" on="0"/>
        <pt x="45" y="254" on="1"/>
        <pt x="45" y="416" on="0"/>
        <pt x="252" y="648" on="0"/>
        <pt x="397" y="648" on="1"/>
        <pt x="506" y="648" on="0"/>
        <pt x="644" y="499" on="0"/>
        <pt x="644" y="382" on="1"/>
        <pt x="644" y="219" on="0"/>
        <pt x="433" y="-12" on="0"/>
      </contour>
      <contour>
        <pt x="354" y="808" on="0"/>
        <pt x="461" y="775" on="0"/>
        <pt x="472" y="775" on="1"/>
        <pt x="493" y="775" on="0"/>
        <pt x="540" y="820" on="1"/>
        <pt x="546" y="820" on="1"/>
        <pt x="565" y="799" on="1"/>
        <pt x="565" y="794" on="1"/>
        <pt x="482" y="715" on="1"/>
        <pt x="466" y="711" on="1"/>
        <pt x="449" y="711" on="0"/>
        <pt x="343" y="744" on="0"/>
        <pt x="332" y="744" on="1"/>
        <pt x="309" y="744" on="0"/>
        <pt x="276" y="710" on="1"/>
        <pt x="264" y="699" on="1"/>
        <pt x="258" y="699" on="1"/>
        <pt x="238" y="720" on="1"/>
        <pt x="239" y="725" on="1"/>
        <pt x="322" y="804" on="1"/>
        <pt x="337" y="808" on="1"/>
      </contour>
    </TTGlyph>
    <TTGlyph name="P" xMin="34" yMin="-8" xMax="535" yMax="640">
      <contour>
        <pt x="275" y="45" on="1"/>
        <pt x="276" y="41" on="1"/>
        <pt x="262" y="-3" on="1"/>
        <pt x="262" y="0" on="0"/>
        <pt x="137" y="0" on="0"/>
        <pt x="36" y="-6" on="0"/>
        <pt x="34" y="-8" on="1"/>
        <pt x="46" y="35" on="1"/>
        <pt x="90" y="43" on="0"/>
        <pt x="121" y="75" on="0"/>
        <pt x="126" y="117" on="1"/>
        <pt x="180" y="555" on="0"/>
        <pt x="180" y="578" on="0"/>
        <pt x="170" y="596" on="0"/>
        <pt x="149" y="596" on="1"/>
        <pt x="117" y="594" on="1"/>
        <pt x="115" y="598" on="1"/>
        <pt x="127" y="640" on="1"/>
        <pt x="130" y="640" on="1"/>
        <pt x="134" y="640" on="0"/>
        <pt x="147" y="639" on="0"/>
        <pt x="165" y="638" on="0"/>
        <pt x="185" y="637" on="0"/>
        <pt x="205" y="636" on="0"/>
        <pt x="215" y="636" on="1"/>
        <pt x="232" y="636" on="1"/>
        <pt x="342" y="640" on="1"/>
        <pt x="433" y="640" on="0"/>
        <pt x="535" y="562" on="0"/>
        <pt x="535" y="489" on="1"/>
        <pt x="535" y="395" on="0"/>
        <pt x="391" y="246" on="0"/>
        <pt x="299" y="246" on="1"/>
        <pt x="207" y="246" on="1"/>
        <pt x="183" y="83" on="0"/>
        <pt x="183" y="72" on="1"/>
        <pt x="183" y="41" on="0"/>
        <pt x="222" y="41" on="1"/>
      </contour>
      <contour>
        <pt x="385" y="297" on="0"/>
        <pt x="457" y="391" on="0"/>
        <pt x="457" y="534" on="0"/>
        <pt x="376" y="596" on="0"/>
        <pt x="290" y="596" on="1"/>
        <pt x="271" y="596" on="0"/>
        <pt x="265" y="592" on="0"/>
        <pt x="240" y="467" on="0"/>
        <pt x="217" y="301" on="1"/>
        <pt x="317" y="286" on="1"/>
      </contour>
    </TTGlyph>
    <TTGlyph name="Q" xMin="45" yMin="-214" xMax="736" yMax="648">
      <contour>
        <pt x="465" y="-80" on="0"/>
        <pt x="593" y="-141" on="0"/>
        <pt x="691" y="-141" on="0"/>
        <pt x="729" y="-131" on="1"/>
        <pt x="733" y="-133" on="1"/>
        <pt x="736" y="-148" on="1"/>
        <pt x="658" y="-214" on="0"/>
        <pt x="640" y="-214" on="1"/>
        <pt x="570" y="-214" on="0"/>
        <pt x="440" y="-140" on="0"/>
        <pt x="287" y="-12" on="1"/>
        <pt x="286" y="-12" on="1"/>
        <pt x="179" y="-12" on="0"/>
        <pt x="45" y="136" on="0"/>
        <pt x="45" y="254" on="1"/>
        <pt x="45" y="416" on="0"/>
        <pt x="252" y="648" on="0"/>
        <pt x="397" y="648" on="1"/>
        <pt x="506" y="648" on="0"/>
        <pt x="644" y="499" on="0"/>
        <pt x="644" y="245" on="0"/>
        <pt x="489" y="32" on="0"/>
        <pt x="371" y="0" on="1"/>
        <pt x="371" y="-6" on="1"/>
      </contour>
      <contour>
        <pt x="311" y="35" on="1"/>
        <pt x="417" y="35" on="0"/>
        <pt x="557" y="210" on="0"/>
        <pt x="557" y="456" on="0"/>
        <pt x="454" y="593" on="0"/>
        <pt x="368" y="593" on="1"/>
        <pt x="265" y="593" on="0"/>
        <pt x="127" y="416" on="0"/>
        <pt x="127" y="172" on="0"/>
        <pt x="228" y="35" on="0"/>
      </contour>
    </TTGlyph>
    <TTGlyph name="R" xMin="28" yMin="-16" xMax="563" yMax="640">
      <contour>
        <pt x="212" y="276" on="1"/>
        <pt x="187" y="98" on="0"/>
        <pt x="187" y="61" on="0"/>
        <pt x="192" y="53" on="1"/>
        <pt x="203" y="39" on="0"/>
        <pt x="249" y="39" on="1"/>
        <pt x="250" y="36" on="1"/>
        <pt x="237" y="-4" on="1"/>
        <pt x="182" y="-2" on="0"/>
        <pt x="137" y="-1" on="1"/>
        <pt x="28" y="-4" on="1"/>
        <pt x="42" y="39" on="1"/>
        <pt x="88" y="44" on="0"/>
        <pt x="121" y="74" on="0"/>
        <pt x="126" y="117" on="1"/>
        <pt x="180" y="554" on="0"/>
        <pt x="180" y="578" on="0"/>
        <pt x="170" y="596" on="0"/>
        <pt x="149" y="596" on="1"/>
        <pt x="117" y="594" on="1"/>
        <pt x="115" y="598" on="1"/>
        <pt x="127" y="640" on="1"/>
        <pt x="196" y="636" on="0"/>
        <pt x="232" y="636" on="1"/>
        <pt x="339" y="640" on="1"/>
        <pt x="421" y="640" on="0"/>
        <pt x="522" y="565" on="0"/>
        <pt x="522" y="436" on="0"/>
        <pt x="442" y="327" on="0"/>
        <pt x="365" y="293" on="1"/>
        <pt x="450" y="115" on="1"/>
        <pt x="474" y="67" on="0"/>
        <pt x="521" y="30" on="0"/>
        <pt x="560" y="30" on="1"/>
        <pt x="563" y="27" on="1"/>
        <pt x="554" y="-5" on="1"/>
        <pt x="473" y="-16" on="1"/>
        <pt x="449" y="-16" on="0"/>
        <pt x="401" y="36" on="0"/>
        <pt x="383" y="79" on="1"/>
        <pt x="303" y="276" on="1"/>
      </contour>
      <contour>
        <pt x="281" y="602" on="1"/>
        <pt x="272" y="602" on="0"/>
        <pt x="268" y="598" on="1"/>
        <pt x="253" y="580" on="0"/>
        <pt x="221" y="328" on="1"/>
        <pt x="319" y="318" on="1"/>
        <pt x="0" y="0" on="0"/>
        <pt x="349" y="330" on="1"/>
        <pt x="440" y="383" on="0"/>
        <pt x="443" y="486" on="1"/>
        <pt x="443" y="602" on="0"/>
      </contour>
    </TTGlyph>
    <TTGlyph name="Racute" xMin="28" yMin="-16" xMax="563" yMax="841">
      <contour>
        <pt x="212" y="276" on="1"/>
        <pt x="187" y="98" on="0"/>
        <pt x="187" y="61" on="0"/>
        <pt x="192" y="53" on="1"/>
        <pt x="203" y="39" on="0"/>
        <pt x="249" y="39" on="1"/>
        <pt x="250" y="36" on="1"/>
        <pt x="237" y="-4" on="1"/>
        <pt x="182" y="-2" on="0"/>
        <pt x="137" y="-1" on="1"/>
        <pt x="28" y="-4" on="1"/>
        <pt x="42" y="39" on="1"/>
        <pt x="88" y="44" on="0"/>
        <pt x="121" y="74" on="0"/>
        <pt x="126" y="117" on="1"/>
        <pt x="180" y="554" on="0"/>
        <pt x="180" y="578" on="0"/>
        <pt x="170" y="596" on="0"/>
        <pt x="149" y="596" on="1"/>
        <pt x="117" y="594" on="1"/>
        <pt x="115" y="598" on="1"/>
        <pt x="127" y="640" on="1"/>
        <pt x="196" y="636" on="0"/>
        <pt x="232" y="636" on="1"/>
        <pt x="339" y="640" on="1"/>
        <pt x="421" y="640" on="0"/>
        <pt x="522" y="565" on="0"/>
        <pt x="522" y="436" on="0"/>
        <pt x="442" y="327" on="0"/>
        <pt x="365" y="293" on="1"/>
        <pt x="450" y="115" on="1"/>
        <pt x="474" y="67" on="0"/>
        <pt x="521" y="30" on="0"/>
        <pt x="560" y="30" on="1"/>
        <pt x="563" y="27" on="1"/>
        <pt x="554" y="-5" on="1"/>
        <pt x="473" y="-16" on="1"/>
        <pt x="449" y="-16" on="0"/>
        <pt x="401" y="36" on="0"/>
        <pt x="383" y="79" on="1"/>
        <pt x="303" y="276" on="1"/>
      </contour>
      <contour>
        <pt x="281" y="602" on="1"/>
        <pt x="272" y="602" on="0"/>
        <pt x="268" y="598" on="1"/>
        <pt x="253" y="580" on="0"/>
        <pt x="221" y="328" on="1"/>
        <pt x="319" y="318" on="1"/>
        <pt x="0" y="0" on="0"/>
        <pt x="349" y="330" on="1"/>
        <pt x="440" y="383" on="0"/>
        <pt x="443" y="486" on="1"/>
        <pt x="443" y="602" on="0"/>
      </contour>
      <contour>
        <pt x="512" y="787" on="1"/>
        <pt x="508" y="777" on="1"/>
        <pt x="407" y="743" on="0"/>
        <pt x="302" y="703" on="1"/>
        <pt x="294" y="708" on="1"/>
        <pt x="288" y="732" on="1"/>
        <pt x="487" y="841" on="1"/>
        <pt x="496" y="835" on="1"/>
      </contour>
    </TTGlyph>
    <TTGlyph name="Rcaron" xMin="28" yMin="-16" xMax="563" yMax="838">
      <contour>
        <pt x="212" y="276" on="1"/>
        <pt x="187" y="98" on="0"/>
        <pt x="187" y="61" on="0"/>
        <pt x="192" y="53" on="1"/>
        <pt x="203" y="39" on="0"/>
        <pt x="249" y="39" on="1"/>
        <pt x="250" y="36" on="1"/>
        <pt x="237" y="-4" on="1"/>
        <pt x="182" y="-2" on="0"/>
        <pt x="137" y="-1" on="1"/>
        <pt x="28" y="-4" on="1"/>
        <pt x="42" y="39" on="1"/>
        <pt x="88" y="44" on="0"/>
        <pt x="121" y="74" on="0"/>
        <pt x="126" y="117" on="1"/>
        <pt x="180" y="554" on="0"/>
        <pt x="180" y="578" on="0"/>
        <pt x="170" y="596" on="0"/>
        <pt x="149" y="596" on="1"/>
        <pt x="117" y="594" on="1"/>
        <pt x="115" y="598" on="1"/>
        <pt x="127" y="640" on="1"/>
        <pt x="196" y="636" on="0"/>
        <pt x="232" y="636" on="1"/>
        <pt x="339" y="640" on="1"/>
        <pt x="421" y="640" on="0"/>
        <pt x="522" y="565" on="0"/>
        <pt x="522" y="436" on="0"/>
        <pt x="442" y="327" on="0"/>
        <pt x="365" y="293" on="1"/>
        <pt x="450" y="115" on="1"/>
        <pt x="474" y="67" on="0"/>
        <pt x="521" y="30" on="0"/>
        <pt x="560" y="30" on="1"/>
        <pt x="563" y="27" on="1"/>
        <pt x="554" y="-5" on="1"/>
        <pt x="473" y="-16" on="1"/>
        <pt x="449" y="-16" on="0"/>
        <pt x="401" y="36" on="0"/>
        <pt x="383" y="79" on="1"/>
        <pt x="303" y="276" on="1"/>
      </contour>
      <contour>
        <pt x="281" y="602" on="1"/>
        <pt x="272" y="602" on="0"/>
        <pt x="268" y="598" on="1"/>
        <pt x="253" y="580" on="0"/>
        <pt x="221" y="328" on="1"/>
        <pt x="319" y="318" on="1"/>
        <pt x="0" y="0" on="0"/>
        <pt x="349" y="330" on="1"/>
        <pt x="440" y="383" on="0"/>
        <pt x="443" y="486" on="1"/>
        <pt x="443" y="602" on="0"/>
      </contour>
      <contour>
        <pt x="489" y="837" on="1"/>
        <pt x="501" y="815" on="1"/>
        <pt x="353" y="704" on="1"/>
        <pt x="340" y="704" on="1"/>
        <pt x="220" y="815" on="1"/>
        <pt x="236" y="837" on="1"/>
        <pt x="246" y="838" on="1"/>
        <pt x="355" y="773" on="1"/>
        <pt x="480" y="838" on="1"/>
      </contour>
    </TTGlyph>
    <TTGlyph name="Rcommaaccent" xMin="28" yMin="-293" xMax="563" yMax="640">
      <contour>
        <pt x="212" y="276" on="1"/>
        <pt x="187" y="98" on="0"/>
        <pt x="187" y="61" on="0"/>
        <pt x="192" y="53" on="1"/>
        <pt x="203" y="39" on="0"/>
        <pt x="249" y="39" on="1"/>
        <pt x="250" y="36" on="1"/>
        <pt x="237" y="-4" on="1"/>
        <pt x="182" y="-2" on="0"/>
        <pt x="137" y="-1" on="1"/>
        <pt x="28" y="-4" on="1"/>
        <pt x="42" y="39" on="1"/>
        <pt x="88" y="44" on="0"/>
        <pt x="121" y="74" on="0"/>
        <pt x="126" y="117" on="1"/>
        <pt x="180" y="554" on="0"/>
        <pt x="180" y="578" on="0"/>
        <pt x="170" y="596" on="0"/>
        <pt x="149" y="596" on="1"/>
        <pt x="117" y="594" on="1"/>
        <pt x="115" y="598" on="1"/>
        <pt x="127" y="640" on="1"/>
        <pt x="196" y="636" on="0"/>
        <pt x="232" y="636" on="1"/>
        <pt x="339" y="640" on="1"/>
        <pt x="421" y="640" on="0"/>
        <pt x="522" y="565" on="0"/>
        <pt x="522" y="436" on="0"/>
        <pt x="442" y="327" on="0"/>
        <pt x="365" y="293" on="1"/>
        <pt x="450" y="115" on="1"/>
        <pt x="474" y="67" on="0"/>
        <pt x="521" y="30" on="0"/>
        <pt x="560" y="30" on="1"/>
        <pt x="563" y="27" on="1"/>
        <pt x="554" y="-5" on="1"/>
        <pt x="473" y="-16" on="1"/>
        <pt x="449" y="-16" on="0"/>
        <pt x="401" y="36" on="0"/>
        <pt x="383" y="79" on="1"/>
        <pt x="303" y="276" on="1"/>
      </contour>
      <contour>
        <pt x="281" y="602" on="1"/>
        <pt x="272" y="602" on="0"/>
        <pt x="268" y="598" on="1"/>
        <pt x="253" y="580" on="0"/>
        <pt x="221" y="328" on="1"/>
        <pt x="319" y="318" on="1"/>
        <pt x="0" y="0" on="0"/>
        <pt x="349" y="330" on="1"/>
        <pt x="440" y="383" on="0"/>
        <pt x="443" y="486" on="1"/>
        <pt x="443" y="602" on="0"/>
      </contour>
      <contour>
        <pt x="212" y="-93" on="1"/>
        <pt x="246" y="-67" on="0"/>
        <pt x="293" y="-67" on="0"/>
        <pt x="324" y="-106" on="0"/>
        <pt x="324" y="-138" on="1"/>
        <pt x="324" y="-187" on="0"/>
        <pt x="248" y="-266" on="0"/>
        <pt x="196" y="-293" on="1"/>
        <pt x="178" y="-278" on="1"/>
        <pt x="178" y="-268" on="1"/>
        <pt x="209" y="-249" on="0"/>
        <pt x="250" y="-194" on="0"/>
        <pt x="250" y="-169" on="1"/>
        <pt x="250" y="-131" on="0"/>
        <pt x="210" y="-107" on="1"/>
      </contour>
    </TTGlyph>
    <TTGlyph name="S" xMin="32" yMin="-12" xMax="482" yMax="648">
      <contour>
        <pt x="192" y="-12" on="1"/>
        <pt x="152" y="-12" on="0"/>
        <pt x="74" y="4" on="0"/>
        <pt x="36" y="21" on="1"/>
        <pt x="32" y="31" on="1"/>
        <pt x="54" y="106" on="0"/>
        <pt x="66" y="205" on="1"/>
        <pt x="107" y="210" on="1"/>
        <pt x="102" y="164" on="0"/>
        <pt x="102" y="85" on="0"/>
        <pt x="113" y="65" on="1"/>
        <pt x="132" y="32" on="0"/>
        <pt x="277" y="32" on="0"/>
        <pt x="361" y="100" on="0"/>
        <pt x="361" y="154" on="1"/>
        <pt x="361" y="190" on="0"/>
        <pt x="307" y="245" on="0"/>
        <pt x="170" y="326" on="0"/>
        <pt x="145" y="350" on="1"/>
        <pt x="97" y="396" on="0"/>
        <pt x="96" y="450" on="1"/>
        <pt x="96" y="532" on="0"/>
        <pt x="230" y="648" on="0"/>
        <pt x="328" y="648" on="1"/>
        <pt x="404" y="648" on="0"/>
        <pt x="480" y="624" on="1"/>
        <pt x="482" y="619" on="1"/>
        <pt x="458" y="542" on="0"/>
        <pt x="441" y="450" on="1"/>
        <pt x="405" y="446" on="1"/>
        <pt x="400" y="451" on="1"/>
        <pt x="411" y="495" on="0"/>
        <pt x="411" y="566" on="0"/>
        <pt x="364" y="599" on="0"/>
        <pt x="249" y="599" on="0"/>
        <pt x="170" y="538" on="0"/>
        <pt x="170" y="442" on="0"/>
        <pt x="243" y="390" on="1"/>
        <pt x="260" y="379" on="0"/>
        <pt x="327" y="339" on="0"/>
        <pt x="370" y="311" on="0"/>
        <pt x="394" y="291" on="1"/>
        <pt x="442" y="251" on="0"/>
        <pt x="442" y="195" on="1"/>
        <pt x="442" y="106" on="0"/>
        <pt x="302" y="-12" on="0"/>
      </contour>
    </TTGlyph>
    <TTGlyph name="Sacute" xMin="32" yMin="-12" xMax="482" yMax="841">
      <contour>
        <pt x="192" y="-12" on="1"/>
        <pt x="152" y="-12" on="0"/>
        <pt x="74" y="4" on="0"/>
        <pt x="36" y="21" on="1"/>
        <pt x="32" y="31" on="1"/>
        <pt x="54" y="106" on="0"/>
        <pt x="66" y="205" on="1"/>
        <pt x="107" y="210" on="1"/>
        <pt x="102" y="164" on="0"/>
        <pt x="102" y="85" on="0"/>
        <pt x="113" y="65" on="1"/>
        <pt x="132" y="32" on="0"/>
        <pt x="277" y="32" on="0"/>
        <pt x="361" y="100" on="0"/>
        <pt x="361" y="154" on="1"/>
        <pt x="361" y="190" on="0"/>
        <pt x="307" y="245" on="0"/>
        <pt x="170" y="326" on="0"/>
        <pt x="145" y="350" on="1"/>
        <pt x="97" y="396" on="0"/>
        <pt x="96" y="450" on="1"/>
        <pt x="96" y="532" on="0"/>
        <pt x="230" y="648" on="0"/>
        <pt x="328" y="648" on="1"/>
        <pt x="404" y="648" on="0"/>
        <pt x="480" y="624" on="1"/>
        <pt x="482" y="619" on="1"/>
        <pt x="458" y="542" on="0"/>
        <pt x="441" y="450" on="1"/>
        <pt x="405" y="446" on="1"/>
        <pt x="400" y="451" on="1"/>
        <pt x="411" y="495" on="0"/>
        <pt x="411" y="566" on="0"/>
        <pt x="364" y="599" on="0"/>
        <pt x="249" y="599" on="0"/>
        <pt x="170" y="538" on="0"/>
        <pt x="170" y="442" on="0"/>
        <pt x="243" y="390" on="1"/>
        <pt x="260" y="379" on="0"/>
        <pt x="327" y="339" on="0"/>
        <pt x="370" y="311" on="0"/>
        <pt x="394" y="291" on="1"/>
        <pt x="442" y="251" on="0"/>
        <pt x="442" y="195" on="1"/>
        <pt x="442" y="106" on="0"/>
        <pt x="302" y="-12" on="0"/>
      </contour>
      <contour>
        <pt x="479" y="787" on="1"/>
        <pt x="475" y="777" on="1"/>
        <pt x="374" y="743" on="0"/>
        <pt x="269" y="703" on="1"/>
        <pt x="261" y="708" on="1"/>
        <pt x="255" y="732" on="1"/>
        <pt x="454" y="841" on="1"/>
        <pt x="463" y="835" on="1"/>
      </contour>
    </TTGlyph>
    <TTGlyph name="Scaron" xMin="32" yMin="-12" xMax="482" yMax="838">
      <contour>
        <pt x="192" y="-12" on="1"/>
        <pt x="152" y="-12" on="0"/>
        <pt x="74" y="4" on="0"/>
        <pt x="36" y="21" on="1"/>
        <pt x="32" y="31" on="1"/>
        <pt x="54" y="106" on="0"/>
        <pt x="66" y="205" on="1"/>
        <pt x="107" y="210" on="1"/>
        <pt x="102" y="164" on="0"/>
        <pt x="102" y="85" on="0"/>
        <pt x="113" y="65" on="1"/>
        <pt x="132" y="32" on="0"/>
        <pt x="277" y="32" on="0"/>
        <pt x="361" y="100" on="0"/>
        <pt x="361" y="154" on="1"/>
        <pt x="361" y="190" on="0"/>
        <pt x="307" y="245" on="0"/>
        <pt x="170" y="326" on="0"/>
        <pt x="145" y="350" on="1"/>
        <pt x="97" y="396" on="0"/>
        <pt x="96" y="450" on="1"/>
        <pt x="96" y="532" on="0"/>
        <pt x="230" y="648" on="0"/>
        <pt x="328" y="648" on="1"/>
        <pt x="404" y="648" on="0"/>
        <pt x="480" y="624" on="1"/>
        <pt x="482" y="619" on="1"/>
        <pt x="458" y="542" on="0"/>
        <pt x="441" y="450" on="1"/>
        <pt x="405" y="446" on="1"/>
        <pt x="400" y="451" on="1"/>
        <pt x="411" y="495" on="0"/>
        <pt x="411" y="566" on="0"/>
        <pt x="364" y="599" on="0"/>
        <pt x="249" y="599" on="0"/>
        <pt x="170" y="538" on="0"/>
        <pt x="170" y="442" on="0"/>
        <pt x="243" y="390" on="1"/>
        <pt x="260" y="379" on="0"/>
        <pt x="327" y="339" on="0"/>
        <pt x="370" y="311" on="0"/>
        <pt x="394" y="291" on="1"/>
        <pt x="442" y="251" on="0"/>
        <pt x="442" y="195" on="1"/>
        <pt x="442" y="106" on="0"/>
        <pt x="302" y="-12" on="0"/>
      </contour>
      <contour>
        <pt x="466" y="837" on="1"/>
        <pt x="478" y="815" on="1"/>
        <pt x="330" y="704" on="1"/>
        <pt x="317" y="704" on="1"/>
        <pt x="197" y="815" on="1"/>
        <pt x="213" y="837" on="1"/>
        <pt x="223" y="838" on="1"/>
        <pt x="332" y="773" on="1"/>
        <pt x="457" y="838" on="1"/>
      </contour>
    </TTGlyph>
    <TTGlyph name="Scedilla" xMin="32" yMin="-233" xMax="482" yMax="648">
      <contour>
        <pt x="107" y="210" on="1"/>
        <pt x="102" y="164" on="0"/>
        <pt x="102" y="85" on="0"/>
        <pt x="113" y="65" on="1"/>
        <pt x="132" y="32" on="0"/>
        <pt x="277" y="32" on="0"/>
        <pt x="361" y="100" on="0"/>
        <pt x="361" y="154" on="1"/>
        <pt x="361" y="190" on="0"/>
        <pt x="307" y="245" on="0"/>
        <pt x="170" y="326" on="0"/>
        <pt x="145" y="350" on="1"/>
        <pt x="97" y="396" on="0"/>
        <pt x="96" y="450" on="1"/>
        <pt x="96" y="532" on="0"/>
        <pt x="230" y="648" on="0"/>
        <pt x="328" y="648" on="1"/>
        <pt x="404" y="648" on="0"/>
        <pt x="480" y="624" on="1"/>
        <pt x="482" y="619" on="1"/>
        <pt x="458" y="542" on="0"/>
        <pt x="441" y="450" on="1"/>
        <pt x="405" y="446" on="1"/>
        <pt x="400" y="451" on="1"/>
        <pt x="411" y="495" on="0"/>
        <pt x="411" y="566" on="0"/>
        <pt x="364" y="599" on="0"/>
        <pt x="249" y="599" on="0"/>
        <pt x="170" y="538" on="0"/>
        <pt x="170" y="442" on="0"/>
        <pt x="243" y="390" on="1"/>
        <pt x="260" y="379" on="0"/>
        <pt x="327" y="339" on="0"/>
        <pt x="370" y="311" on="0"/>
        <pt x="394" y="291" on="1"/>
        <pt x="442" y="251" on="0"/>
        <pt x="442" y="195" on="1"/>
        <pt x="442" y="115" on="0"/>
        <pt x="326" y="1" on="0"/>
        <pt x="233" y="-9" on="1"/>
        <pt x="215" y="-50" on="1"/>
        <pt x="236" y="-64" on="0"/>
        <pt x="270" y="-96" on="0"/>
        <pt x="274" y="-102" on="1"/>
        <pt x="287" y="-121" on="0"/>
        <pt x="287" y="-135" on="1"/>
        <pt x="287" y="-173" on="0"/>
        <pt x="203" y="-233" on="0"/>
        <pt x="159" y="-233" on="1"/>
        <pt x="136" y="-233" on="0"/>
        <pt x="97" y="-214" on="0"/>
        <pt x="97" y="-183" on="0"/>
        <pt x="129" y="-141" on="1"/>
        <pt x="137" y="-141" on="1"/>
        <pt x="137" y="-145" on="0"/>
        <pt x="137" y="-170" on="0"/>
        <pt x="160" y="-198" on="0"/>
        <pt x="204" y="-198" on="0"/>
        <pt x="234" y="-175" on="0"/>
        <pt x="234" y="-158" on="1"/>
        <pt x="234" y="-132" on="0"/>
        <pt x="161" y="-85" on="1"/>
        <pt x="191" y="-12" on="1"/>
        <pt x="151" y="-12" on="0"/>
        <pt x="74" y="4" on="0"/>
        <pt x="36" y="21" on="1"/>
        <pt x="32" y="31" on="1"/>
        <pt x="54" y="106" on="0"/>
        <pt x="66" y="205" on="1"/>
      </contour>
    </TTGlyph>
    <TTGlyph name="Scircumflex" xMin="32" yMin="-12" xMax="482" yMax="877">
      <contour>
        <pt x="192" y="-12" on="1"/>
        <pt x="152" y="-12" on="0"/>
        <pt x="74" y="4" on="0"/>
        <pt x="36" y="21" on="1"/>
        <pt x="32" y="31" on="1"/>
        <pt x="54" y="106" on="0"/>
        <pt x="66" y="205" on="1"/>
        <pt x="107" y="210" on="1"/>
        <pt x="102" y="164" on="0"/>
        <pt x="102" y="85" on="0"/>
        <pt x="113" y="65" on="1"/>
        <pt x="132" y="32" on="0"/>
        <pt x="277" y="32" on="0"/>
        <pt x="361" y="100" on="0"/>
        <pt x="361" y="154" on="1"/>
        <pt x="361" y="190" on="0"/>
        <pt x="307" y="245" on="0"/>
        <pt x="170" y="326" on="0"/>
        <pt x="145" y="350" on="1"/>
        <pt x="97" y="396" on="0"/>
        <pt x="96" y="450" on="1"/>
        <pt x="96" y="532" on="0"/>
        <pt x="230" y="648" on="0"/>
        <pt x="328" y="648" on="1"/>
        <pt x="404" y="648" on="0"/>
        <pt x="480" y="624" on="1"/>
        <pt x="482" y="619" on="1"/>
        <pt x="458" y="542" on="0"/>
        <pt x="441" y="450" on="1"/>
        <pt x="405" y="446" on="1"/>
        <pt x="400" y="451" on="1"/>
        <pt x="411" y="495" on="0"/>
        <pt x="411" y="566" on="0"/>
        <pt x="364" y="599" on="0"/>
        <pt x="249" y="599" on="0"/>
        <pt x="170" y="538" on="0"/>
        <pt x="170" y="442" on="0"/>
        <pt x="243" y="390" on="1"/>
        <pt x="260" y="379" on="0"/>
        <pt x="327" y="339" on="0"/>
        <pt x="370" y="311" on="0"/>
        <pt x="394" y="291" on="1"/>
        <pt x="442" y="251" on="0"/>
        <pt x="442" y="195" on="1"/>
        <pt x="442" y="106" on="0"/>
        <pt x="302" y="-12" on="0"/>
      </contour>
      <contour>
        <pt x="197" y="702" on="1"/>
        <pt x="185" y="724" on="1"/>
        <pt x="337" y="877" on="1"/>
        <pt x="351" y="877" on="1"/>
        <pt x="466" y="724" on="1"/>
        <pt x="449" y="702" on="1"/>
        <pt x="440" y="701" on="1"/>
        <pt x="335" y="798" on="1"/>
        <pt x="206" y="701" on="1"/>
      </contour>
    </TTGlyph>
    <TTGlyph name="Scommaaccent" xMin="32" yMin="-293" xMax="482" yMax="648">
      <contour>
        <pt x="192" y="-12" on="1"/>
        <pt x="152" y="-12" on="0"/>
        <pt x="74" y="4" on="0"/>
        <pt x="36" y="21" on="1"/>
        <pt x="32" y="31" on="1"/>
        <pt x="54" y="106" on="0"/>
        <pt x="66" y="205" on="1"/>
        <pt x="107" y="210" on="1"/>
        <pt x="102" y="164" on="0"/>
        <pt x="102" y="85" on="0"/>
        <pt x="113" y="65" on="1"/>
        <pt x="132" y="32" on="0"/>
        <pt x="277" y="32" on="0"/>
        <pt x="361" y="100" on="0"/>
        <pt x="361" y="154" on="1"/>
        <pt x="361" y="190" on="0"/>
        <pt x="307" y="245" on="0"/>
        <pt x="170" y="326" on="0"/>
        <pt x="145" y="350" on="1"/>
        <pt x="97" y="396" on="0"/>
        <pt x="96" y="450" on="1"/>
        <pt x="96" y="532" on="0"/>
        <pt x="230" y="648" on="0"/>
        <pt x="328" y="648" on="1"/>
        <pt x="404" y="648" on="0"/>
        <pt x="480" y="624" on="1"/>
        <pt x="482" y="619" on="1"/>
        <pt x="458" y="542" on="0"/>
        <pt x="441" y="450" on="1"/>
        <pt x="405" y="446" on="1"/>
        <pt x="400" y="451" on="1"/>
        <pt x="411" y="495" on="0"/>
        <pt x="411" y="566" on="0"/>
        <pt x="364" y="599" on="0"/>
        <pt x="249" y="599" on="0"/>
        <pt x="170" y="538" on="0"/>
        <pt x="170" y="442" on="0"/>
        <pt x="243" y="390" on="1"/>
        <pt x="260" y="379" on="0"/>
        <pt x="327" y="339" on="0"/>
        <pt x="370" y="311" on="0"/>
        <pt x="394" y="291" on="1"/>
        <pt x="442" y="251" on="0"/>
        <pt x="442" y="195" on="1"/>
        <pt x="442" y="106" on="0"/>
        <pt x="302" y="-12" on="0"/>
      </contour>
      <contour>
        <pt x="145" y="-93" on="1"/>
        <pt x="179" y="-67" on="0"/>
        <pt x="226" y="-67" on="0"/>
        <pt x="257" y="-106" on="0"/>
        <pt x="257" y="-138" on="1"/>
        <pt x="257" y="-187" on="0"/>
        <pt x="181" y="-266" on="0"/>
        <pt x="129" y="-293" on="1"/>
        <pt x="111" y="-278" on="1"/>
        <pt x="111" y="-268" on="1"/>
        <pt x="142" y="-249" on="0"/>
        <pt x="183" y="-194" on="0"/>
        <pt x="183" y="-169" on="1"/>
        <pt x="183" y="-131" on="0"/>
        <pt x="143" y="-107" on="1"/>
      </contour>
    </TTGlyph>
    <TTGlyph name="T" xMin="40" yMin="-4" xMax="549" yMax="648">
      <contour>
        <pt x="549" y="641" on="1"/>
        <pt x="543" y="572" on="0"/>
        <pt x="543" y="534" on="1"/>
        <pt x="543" y="477" on="1"/>
        <pt x="499" y="473" on="1"/>
        <pt x="498" y="508" on="0"/>
        <pt x="497" y="540" on="0"/>
        <pt x="484" y="575" on="0"/>
        <pt x="472" y="585" on="0"/>
        <pt x="431" y="598" on="0"/>
        <pt x="393" y="600" on="0"/>
        <pt x="351" y="602" on="1"/>
        <pt x="336" y="531" on="0"/>
        <pt x="273" y="120" on="0"/>
        <pt x="273" y="65" on="0"/>
        <pt x="295" y="41" on="0"/>
        <pt x="320" y="41" on="1"/>
        <pt x="375" y="44" on="1"/>
        <pt x="377" y="40" on="1"/>
        <pt x="363" y="-3" on="1"/>
        <pt x="269" y="0" on="0"/>
        <pt x="223" y="0" on="1"/>
        <pt x="94" y="-4" on="1"/>
        <pt x="106" y="36" on="1"/>
        <pt x="174" y="43" on="0"/>
        <pt x="208" y="81" on="0"/>
        <pt x="218" y="162" on="1"/>
        <pt x="271" y="602" on="1"/>
        <pt x="225" y="600" on="0"/>
        <pt x="185" y="598" on="0"/>
        <pt x="137" y="586" on="0"/>
        <pt x="123" y="576" on="0"/>
        <pt x="101" y="541" on="0"/>
        <pt x="93" y="512" on="0"/>
        <pt x="84" y="477" on="1"/>
        <pt x="40" y="473" on="1"/>
        <pt x="62" y="558" on="0"/>
        <pt x="75" y="641" on="1"/>
        <pt x="85" y="648" on="1"/>
        <pt x="161" y="637" on="1"/>
        <pt x="459" y="637" on="1"/>
        <pt x="541" y="648" on="1"/>
      </contour>
    </TTGlyph>
</ttFont>
